ISO-10303-21;
HEADER;
FILE_DESCRIPTION(('KiCad electronic assembly'),'2;1');
FILE_NAME('wearable_v2_board_only.step','2026-09-17T23:26:01',('Pcbnew')
  ,('Kicad'),'Open CASCADE STEP processor 7.9','KiCad to STEP converter'
  ,'Unknown');
FILE_SCHEMA(('AUTOMOTIVE_DESIGN { 1 0 10303 214 1 1 1 1 }'));
ENDSEC;
DATA;
#1 = APPLICATION_PROTOCOL_DEFINITION('international standard',
  'automotive_design',2000,#2);
#2 = APPLICATION_CONTEXT(
  'core data for automotive mechanical design processes');
#3 = SHAPE_DEFINITION_REPRESENTATION(#4,#10);
#4 = PRODUCT_DEFINITION_SHAPE('','',#5);
#5 = PRODUCT_DEFINITION('design','',#6,#9);
#6 = PRODUCT_DEFINITION_FORMATION('','',#7);
#7 = PRODUCT('wearable_v2_board_only 1','wearable_v2_board_only 1','',(
    #8));
#8 = PRODUCT_CONTEXT('',#2,'mechanical');
#9 = PRODUCT_DEFINITION_CONTEXT('part definition',#2,'design');
#10 = SHAPE_REPRESENTATION('',(#11,#15),#19);
#11 = AXIS2_PLACEMENT_3D('',#12,#13,#14);
#12 = CARTESIAN_POINT('',(0.,0.,0.));
#13 = DIRECTION('',(0.,0.,1.));
#14 = DIRECTION('',(1.,0.,-0.));
#15 = AXIS2_PLACEMENT_3D('',#16,#17,#18);
#16 = CARTESIAN_POINT('',(0.,0.,0.));
#17 = DIRECTION('',(0.,0.,1.));
#18 = DIRECTION('',(1.,0.,-0.));
#19 = ( GEOMETRIC_REPRESENTATION_CONTEXT(3) 
GLOBAL_UNCERTAINTY_ASSIGNED_CONTEXT((#23)) GLOBAL_UNIT_ASSIGNED_CONTEXT(
(#20,#21,#22)) REPRESENTATION_CONTEXT('Context #1',
  '3D Context with UNIT and UNCERTAINTY') );
#20 = ( LENGTH_UNIT() NAMED_UNIT(*) SI_UNIT(.MILLI.,.METRE.) );
#21 = ( NAMED_UNIT(*) PLANE_ANGLE_UNIT() SI_UNIT($,.RADIAN.) );
#22 = ( NAMED_UNIT(*) SI_UNIT($,.STERADIAN.) SOLID_ANGLE_UNIT() );
#23 = UNCERTAINTY_MEASURE_WITH_UNIT(LENGTH_MEASURE(1.E-07),#20,
  'distance_accuracy_value','confusion accuracy');
#24 = PRODUCT_RELATED_PRODUCT_CATEGORY('part',$,(#7));
#25 = SHAPE_DEFINITION_REPRESENTATION(#26,#32);
#26 = PRODUCT_DEFINITION_SHAPE('','',#27);
#27 = PRODUCT_DEFINITION('design','',#28,#31);
#28 = PRODUCT_DEFINITION_FORMATION('','',#29);
#29 = PRODUCT('wearable_v2_PCB','wearable_v2_PCB','',(#30));
#30 = PRODUCT_CONTEXT('',#2,'mechanical');
#31 = PRODUCT_DEFINITION_CONTEXT('part definition',#2,'design');
#32 = ADVANCED_BREP_SHAPE_REPRESENTATION('',(#11,#33),#899);
#33 = MANIFOLD_SOLID_BREP('',#34);
#34 = CLOSED_SHELL('',(#35,#75,#106,#137,#342,#547,#559,#581,#598,#615,
    #627,#649,#666,#683,#695,#712,#729,#746,#768,#785,#802,#814,#831,
    #853,#870,#887));
#35 = ADVANCED_FACE('',(#36),#70,.T.);
#36 = FACE_BOUND('',#37,.T.);
#37 = EDGE_LOOP('',(#38,#48,#56,#64));
#38 = ORIENTED_EDGE('',*,*,#39,.T.);
#39 = EDGE_CURVE('',#40,#42,#44,.T.);
#40 = VERTEX_POINT('',#41);
#41 = CARTESIAN_POINT('',(84.,-146.,0.));
#42 = VERTEX_POINT('',#43);
#43 = CARTESIAN_POINT('',(84.,-146.,0.91));
#44 = LINE('',#45,#46);
#45 = CARTESIAN_POINT('',(84.,-146.,0.));
#46 = VECTOR('',#47,1.);
#47 = DIRECTION('',(0.,0.,1.));
#48 = ORIENTED_EDGE('',*,*,#49,.T.);
#49 = EDGE_CURVE('',#42,#50,#52,.T.);
#50 = VERTEX_POINT('',#51);
#51 = CARTESIAN_POINT('',(60.,-146.,0.91));
#52 = LINE('',#53,#54);
#53 = CARTESIAN_POINT('',(84.,-146.,0.91));
#54 = VECTOR('',#55,1.);
#55 = DIRECTION('',(-1.,0.,0.));
#56 = ORIENTED_EDGE('',*,*,#57,.F.);
#57 = EDGE_CURVE('',#58,#50,#60,.T.);
#58 = VERTEX_POINT('',#59);
#59 = CARTESIAN_POINT('',(60.,-146.,0.));
#60 = LINE('',#61,#62);
#61 = CARTESIAN_POINT('',(60.,-146.,0.));
#62 = VECTOR('',#63,1.);
#63 = DIRECTION('',(0.,0.,1.));
#64 = ORIENTED_EDGE('',*,*,#65,.F.);
#65 = EDGE_CURVE('',#40,#58,#66,.T.);
#66 = LINE('',#67,#68);
#67 = CARTESIAN_POINT('',(84.,-146.,0.));
#68 = VECTOR('',#69,1.);
#69 = DIRECTION('',(-1.,0.,0.));
#70 = PLANE('',#71);
#71 = AXIS2_PLACEMENT_3D('',#72,#73,#74);
#72 = CARTESIAN_POINT('',(84.,-146.,0.));
#73 = DIRECTION('',(0.,-1.,0.));
#74 = DIRECTION('',(-1.,0.,0.));
#75 = ADVANCED_FACE('',(#76),#101,.T.);
#76 = FACE_BOUND('',#77,.T.);
#77 = EDGE_LOOP('',(#78,#88,#94,#95));
#78 = ORIENTED_EDGE('',*,*,#79,.T.);
#79 = EDGE_CURVE('',#80,#82,#84,.T.);
#80 = VERTEX_POINT('',#81);
#81 = CARTESIAN_POINT('',(84.,-100.,0.));
#82 = VERTEX_POINT('',#83);
#83 = CARTESIAN_POINT('',(84.,-100.,0.91));
#84 = LINE('',#85,#86);
#85 = CARTESIAN_POINT('',(84.,-100.,0.));
#86 = VECTOR('',#87,1.);
#87 = DIRECTION('',(0.,0.,1.));
#88 = ORIENTED_EDGE('',*,*,#89,.T.);
#89 = EDGE_CURVE('',#82,#42,#90,.T.);
#90 = LINE('',#91,#92);
#91 = CARTESIAN_POINT('',(84.,-100.,0.91));
#92 = VECTOR('',#93,1.);
#93 = DIRECTION('',(0.,-1.,0.));
#94 = ORIENTED_EDGE('',*,*,#39,.F.);
#95 = ORIENTED_EDGE('',*,*,#96,.F.);
#96 = EDGE_CURVE('',#80,#40,#97,.T.);
#97 = LINE('',#98,#99);
#98 = CARTESIAN_POINT('',(84.,-100.,0.));
#99 = VECTOR('',#100,1.);
#100 = DIRECTION('',(0.,-1.,0.));
#101 = PLANE('',#102);
#102 = AXIS2_PLACEMENT_3D('',#103,#104,#105);
#103 = CARTESIAN_POINT('',(84.,-100.,0.));
#104 = DIRECTION('',(1.,0.,-0.));
#105 = DIRECTION('',(0.,-1.,0.));
#106 = ADVANCED_FACE('',(#107),#132,.T.);
#107 = FACE_BOUND('',#108,.T.);
#108 = EDGE_LOOP('',(#109,#110,#118,#126));
#109 = ORIENTED_EDGE('',*,*,#57,.T.);
#110 = ORIENTED_EDGE('',*,*,#111,.T.);
#111 = EDGE_CURVE('',#50,#112,#114,.T.);
#112 = VERTEX_POINT('',#113);
#113 = CARTESIAN_POINT('',(60.,-100.,0.91));
#114 = LINE('',#115,#116);
#115 = CARTESIAN_POINT('',(60.,-146.,0.91));
#116 = VECTOR('',#117,1.);
#117 = DIRECTION('',(0.,1.,0.));
#118 = ORIENTED_EDGE('',*,*,#119,.F.);
#119 = EDGE_CURVE('',#120,#112,#122,.T.);
#120 = VERTEX_POINT('',#121);
#121 = CARTESIAN_POINT('',(60.,-100.,0.));
#122 = LINE('',#123,#124);
#123 = CARTESIAN_POINT('',(60.,-100.,0.));
#124 = VECTOR('',#125,1.);
#125 = DIRECTION('',(0.,0.,1.));
#126 = ORIENTED_EDGE('',*,*,#127,.F.);
#127 = EDGE_CURVE('',#58,#120,#128,.T.);
#128 = LINE('',#129,#130);
#129 = CARTESIAN_POINT('',(60.,-146.,0.));
#130 = VECTOR('',#131,1.);
#131 = DIRECTION('',(0.,1.,0.));
#132 = PLANE('',#133);
#133 = AXIS2_PLACEMENT_3D('',#134,#135,#136);
#134 = CARTESIAN_POINT('',(60.,-146.,0.));
#135 = DIRECTION('',(-1.,0.,0.));
#136 = DIRECTION('',(0.,1.,0.));
#137 = ADVANCED_FACE('',(#138,#149,#185,#221,#232,#243,#254,#290,#301),
  #337,.F.);
#138 = FACE_BOUND('',#139,.F.);
#139 = EDGE_LOOP('',(#140,#141,#142,#148));
#140 = ORIENTED_EDGE('',*,*,#65,.F.);
#141 = ORIENTED_EDGE('',*,*,#96,.F.);
#142 = ORIENTED_EDGE('',*,*,#143,.F.);
#143 = EDGE_CURVE('',#120,#80,#144,.T.);
#144 = LINE('',#145,#146);
#145 = CARTESIAN_POINT('',(60.,-100.,0.));
#146 = VECTOR('',#147,1.);
#147 = DIRECTION('',(1.,0.,0.));
#148 = ORIENTED_EDGE('',*,*,#127,.F.);
#149 = FACE_BOUND('',#150,.F.);
#150 = EDGE_LOOP('',(#151,#162,#170,#179));
#151 = ORIENTED_EDGE('',*,*,#152,.T.);
#152 = EDGE_CURVE('',#153,#155,#157,.T.);
#153 = VERTEX_POINT('',#154);
#154 = CARTESIAN_POINT('',(73.46,-143.7,0.));
#155 = VERTEX_POINT('',#156);
#156 = CARTESIAN_POINT('',(72.86,-143.7,0.));
#157 = CIRCLE('',#158,0.3);
#158 = AXIS2_PLACEMENT_3D('',#159,#160,#161);
#159 = CARTESIAN_POINT('',(73.16,-143.7,0.));
#160 = DIRECTION('',(-0.,0.,-1.));
#161 = DIRECTION('',(-1.,0.,0.));
#162 = ORIENTED_EDGE('',*,*,#163,.T.);
#163 = EDGE_CURVE('',#155,#164,#166,.T.);
#164 = VERTEX_POINT('',#165);
#165 = CARTESIAN_POINT('',(72.86,-143.1,0.));
#166 = LINE('',#167,#168);
#167 = CARTESIAN_POINT('',(72.86,-71.55,0.));
#168 = VECTOR('',#169,1.);
#169 = DIRECTION('',(-0.,1.,0.));
#170 = ORIENTED_EDGE('',*,*,#171,.T.);
#171 = EDGE_CURVE('',#164,#172,#174,.T.);
#172 = VERTEX_POINT('',#173);
#173 = CARTESIAN_POINT('',(73.46,-143.1,0.));
#174 = CIRCLE('',#175,0.3);
#175 = AXIS2_PLACEMENT_3D('',#176,#177,#178);
#176 = CARTESIAN_POINT('',(73.16,-143.1,0.));
#177 = DIRECTION('',(0.,-0.,-1.));
#178 = DIRECTION('',(1.,0.,-0.));
#179 = ORIENTED_EDGE('',*,*,#180,.T.);
#180 = EDGE_CURVE('',#172,#153,#181,.T.);
#181 = LINE('',#182,#183);
#182 = CARTESIAN_POINT('',(73.46,-71.85,0.));
#183 = VECTOR('',#184,1.);
#184 = DIRECTION('',(0.,-1.,0.));
#185 = FACE_BOUND('',#186,.F.);
#186 = EDGE_LOOP('',(#187,#198,#206,#215));
#187 = ORIENTED_EDGE('',*,*,#188,.T.);
#188 = EDGE_CURVE('',#189,#191,#193,.T.);
#189 = VERTEX_POINT('',#190);
#190 = CARTESIAN_POINT('',(82.1,-143.7,0.));
#191 = VERTEX_POINT('',#192);
#192 = CARTESIAN_POINT('',(81.5,-143.7,0.));
#193 = CIRCLE('',#194,0.3);
#194 = AXIS2_PLACEMENT_3D('',#195,#196,#197);
#195 = CARTESIAN_POINT('',(81.8,-143.7,0.));
#196 = DIRECTION('',(-0.,0.,-1.));
#197 = DIRECTION('',(-1.,9.473903143468E-14,0.));
#198 = ORIENTED_EDGE('',*,*,#199,.T.);
#199 = EDGE_CURVE('',#191,#200,#202,.T.);
#200 = VERTEX_POINT('',#201);
#201 = CARTESIAN_POINT('',(81.5,-143.1,0.));
#202 = LINE('',#203,#204);
#203 = CARTESIAN_POINT('',(81.5,-71.55,0.));
#204 = VECTOR('',#205,1.);
#205 = DIRECTION('',(-0.,1.,0.));
#206 = ORIENTED_EDGE('',*,*,#207,.T.);
#207 = EDGE_CURVE('',#200,#208,#210,.T.);
#208 = VERTEX_POINT('',#209);
#209 = CARTESIAN_POINT('',(82.1,-143.1,0.));
#210 = CIRCLE('',#211,0.3);
#211 = AXIS2_PLACEMENT_3D('',#212,#213,#214);
#212 = CARTESIAN_POINT('',(81.8,-143.1,0.));
#213 = DIRECTION('',(0.,-0.,-1.));
#214 = DIRECTION('',(1.,0.,-0.));
#215 = ORIENTED_EDGE('',*,*,#216,.T.);
#216 = EDGE_CURVE('',#208,#189,#217,.T.);
#217 = LINE('',#218,#219);
#218 = CARTESIAN_POINT('',(82.1,-71.85,0.));
#219 = VECTOR('',#220,1.);
#220 = DIRECTION('',(0.,-1.,0.));
#221 = FACE_BOUND('',#222,.F.);
#222 = EDGE_LOOP('',(#223));
#223 = ORIENTED_EDGE('',*,*,#224,.T.);
#224 = EDGE_CURVE('',#225,#225,#227,.T.);
#225 = VERTEX_POINT('',#226);
#226 = CARTESIAN_POINT('',(63.4,-140.15,0.));
#227 = CIRCLE('',#228,0.55);
#228 = AXIS2_PLACEMENT_3D('',#229,#230,#231);
#229 = CARTESIAN_POINT('',(63.4,-139.6,0.));
#230 = DIRECTION('',(-0.,0.,-1.));
#231 = DIRECTION('',(-1.2918958832E-14,-1.,0.));
#232 = FACE_BOUND('',#233,.F.);
#233 = EDGE_LOOP('',(#234));
#234 = ORIENTED_EDGE('',*,*,#235,.T.);
#235 = EDGE_CURVE('',#236,#236,#238,.T.);
#236 = VERTEX_POINT('',#237);
#237 = CARTESIAN_POINT('',(67.4,-140.15,0.));
#238 = CIRCLE('',#239,0.55);
#239 = AXIS2_PLACEMENT_3D('',#240,#241,#242);
#240 = CARTESIAN_POINT('',(67.4,-139.6,0.));
#241 = DIRECTION('',(-0.,0.,-1.));
#242 = DIRECTION('',(-0.,-1.,0.));
#243 = FACE_BOUND('',#244,.F.);
#244 = EDGE_LOOP('',(#245));
#245 = ORIENTED_EDGE('',*,*,#246,.T.);
#246 = EDGE_CURVE('',#247,#247,#249,.T.);
#247 = VERTEX_POINT('',#248);
#248 = CARTESIAN_POINT('',(74.59,-140.075,0.));
#249 = CIRCLE('',#250,0.325);
#250 = AXIS2_PLACEMENT_3D('',#251,#252,#253);
#251 = CARTESIAN_POINT('',(74.59,-139.75,0.));
#252 = DIRECTION('',(-0.,0.,-1.));
#253 = DIRECTION('',(-0.,-1.,0.));
#254 = FACE_BOUND('',#255,.F.);
#255 = EDGE_LOOP('',(#256,#267,#275,#284));
#256 = ORIENTED_EDGE('',*,*,#257,.T.);
#257 = EDGE_CURVE('',#258,#260,#262,.T.);
#258 = VERTEX_POINT('',#259);
#259 = CARTESIAN_POINT('',(73.46,-139.77,0.));
#260 = VERTEX_POINT('',#261);
#261 = CARTESIAN_POINT('',(72.86,-139.77,0.));
#262 = CIRCLE('',#263,0.3);
#263 = AXIS2_PLACEMENT_3D('',#264,#265,#266);
#264 = CARTESIAN_POINT('',(73.16,-139.77,0.));
#265 = DIRECTION('',(-0.,0.,-1.));
#266 = DIRECTION('',(-1.,0.,0.));
#267 = ORIENTED_EDGE('',*,*,#268,.T.);
#268 = EDGE_CURVE('',#260,#269,#271,.T.);
#269 = VERTEX_POINT('',#270);
#270 = CARTESIAN_POINT('',(72.86,-138.67,0.));
#271 = LINE('',#272,#273);
#272 = CARTESIAN_POINT('',(72.86,-69.335,0.));
#273 = VECTOR('',#274,1.);
#274 = DIRECTION('',(-0.,1.,0.));
#275 = ORIENTED_EDGE('',*,*,#276,.T.);
#276 = EDGE_CURVE('',#269,#277,#279,.T.);
#277 = VERTEX_POINT('',#278);
#278 = CARTESIAN_POINT('',(73.46,-138.67,0.));
#279 = CIRCLE('',#280,0.3);
#280 = AXIS2_PLACEMENT_3D('',#281,#282,#283);
#281 = CARTESIAN_POINT('',(73.16,-138.67,0.));
#282 = DIRECTION('',(0.,-0.,-1.));
#283 = DIRECTION('',(1.,0.,-0.));
#284 = ORIENTED_EDGE('',*,*,#285,.T.);
#285 = EDGE_CURVE('',#277,#258,#286,.T.);
#286 = LINE('',#287,#288);
#287 = CARTESIAN_POINT('',(73.46,-69.885,0.));
#288 = VECTOR('',#289,1.);
#289 = DIRECTION('',(0.,-1.,0.));
#290 = FACE_BOUND('',#291,.F.);
#291 = EDGE_LOOP('',(#292));
#292 = ORIENTED_EDGE('',*,*,#293,.T.);
#293 = EDGE_CURVE('',#294,#294,#296,.T.);
#294 = VERTEX_POINT('',#295);
#295 = CARTESIAN_POINT('',(80.37,-140.075,0.));
#296 = CIRCLE('',#297,0.325);
#297 = AXIS2_PLACEMENT_3D('',#298,#299,#300);
#298 = CARTESIAN_POINT('',(80.37,-139.75,0.));
#299 = DIRECTION('',(-0.,0.,-1.));
#300 = DIRECTION('',(-0.,-1.,0.));
#301 = FACE_BOUND('',#302,.F.);
#302 = EDGE_LOOP('',(#303,#314,#322,#331));
#303 = ORIENTED_EDGE('',*,*,#304,.T.);
#304 = EDGE_CURVE('',#305,#307,#309,.T.);
#305 = VERTEX_POINT('',#306);
#306 = CARTESIAN_POINT('',(82.1,-139.77,0.));
#307 = VERTEX_POINT('',#308);
#308 = CARTESIAN_POINT('',(81.5,-139.77,0.));
#309 = CIRCLE('',#310,0.3);
#310 = AXIS2_PLACEMENT_3D('',#311,#312,#313);
#311 = CARTESIAN_POINT('',(81.8,-139.77,0.));
#312 = DIRECTION('',(-0.,0.,-1.));
#313 = DIRECTION('',(-1.,0.,0.));
#314 = ORIENTED_EDGE('',*,*,#315,.T.);
#315 = EDGE_CURVE('',#307,#316,#318,.T.);
#316 = VERTEX_POINT('',#317);
#317 = CARTESIAN_POINT('',(81.5,-138.67,0.));
#318 = LINE('',#319,#320);
#319 = CARTESIAN_POINT('',(81.5,-69.335,0.));
#320 = VECTOR('',#321,1.);
#321 = DIRECTION('',(-0.,1.,0.));
#322 = ORIENTED_EDGE('',*,*,#323,.T.);
#323 = EDGE_CURVE('',#316,#324,#326,.T.);
#324 = VERTEX_POINT('',#325);
#325 = CARTESIAN_POINT('',(82.1,-138.67,0.));
#326 = CIRCLE('',#327,0.3);
#327 = AXIS2_PLACEMENT_3D('',#328,#329,#330);
#328 = CARTESIAN_POINT('',(81.8,-138.67,0.));
#329 = DIRECTION('',(0.,-0.,-1.));
#330 = DIRECTION('',(1.,0.,-0.));
#331 = ORIENTED_EDGE('',*,*,#332,.T.);
#332 = EDGE_CURVE('',#324,#305,#333,.T.);
#333 = LINE('',#334,#335);
#334 = CARTESIAN_POINT('',(82.1,-69.885,0.));
#335 = VECTOR('',#336,1.);
#336 = DIRECTION('',(0.,-1.,0.));
#337 = PLANE('',#338);
#338 = AXIS2_PLACEMENT_3D('',#339,#340,#341);
#339 = CARTESIAN_POINT('',(0.,0.,0.));
#340 = DIRECTION('',(0.,0.,1.));
#341 = DIRECTION('',(1.,0.,-0.));
#342 = ADVANCED_FACE('',(#343,#354,#390,#426,#437,#448,#459,#495,#506),
  #542,.T.);
#343 = FACE_BOUND('',#344,.T.);
#344 = EDGE_LOOP('',(#345,#346,#347,#353));
#345 = ORIENTED_EDGE('',*,*,#49,.F.);
#346 = ORIENTED_EDGE('',*,*,#89,.F.);
#347 = ORIENTED_EDGE('',*,*,#348,.F.);
#348 = EDGE_CURVE('',#112,#82,#349,.T.);
#349 = LINE('',#350,#351);
#350 = CARTESIAN_POINT('',(60.,-100.,0.91));
#351 = VECTOR('',#352,1.);
#352 = DIRECTION('',(1.,0.,0.));
#353 = ORIENTED_EDGE('',*,*,#111,.F.);
#354 = FACE_BOUND('',#355,.T.);
#355 = EDGE_LOOP('',(#356,#367,#375,#384));
#356 = ORIENTED_EDGE('',*,*,#357,.T.);
#357 = EDGE_CURVE('',#358,#360,#362,.T.);
#358 = VERTEX_POINT('',#359);
#359 = CARTESIAN_POINT('',(73.46,-143.7,0.91));
#360 = VERTEX_POINT('',#361);
#361 = CARTESIAN_POINT('',(72.86,-143.7,0.91));
#362 = CIRCLE('',#363,0.3);
#363 = AXIS2_PLACEMENT_3D('',#364,#365,#366);
#364 = CARTESIAN_POINT('',(73.16,-143.7,0.91));
#365 = DIRECTION('',(-0.,0.,-1.));
#366 = DIRECTION('',(-1.,0.,0.));
#367 = ORIENTED_EDGE('',*,*,#368,.T.);
#368 = EDGE_CURVE('',#360,#369,#371,.T.);
#369 = VERTEX_POINT('',#370);
#370 = CARTESIAN_POINT('',(72.86,-143.1,0.91));
#371 = LINE('',#372,#373);
#372 = CARTESIAN_POINT('',(72.86,-71.55,0.91));
#373 = VECTOR('',#374,1.);
#374 = DIRECTION('',(-0.,1.,0.));
#375 = ORIENTED_EDGE('',*,*,#376,.T.);
#376 = EDGE_CURVE('',#369,#377,#379,.T.);
#377 = VERTEX_POINT('',#378);
#378 = CARTESIAN_POINT('',(73.46,-143.1,0.91));
#379 = CIRCLE('',#380,0.3);
#380 = AXIS2_PLACEMENT_3D('',#381,#382,#383);
#381 = CARTESIAN_POINT('',(73.16,-143.1,0.91));
#382 = DIRECTION('',(0.,-0.,-1.));
#383 = DIRECTION('',(1.,0.,-0.));
#384 = ORIENTED_EDGE('',*,*,#385,.T.);
#385 = EDGE_CURVE('',#377,#358,#386,.T.);
#386 = LINE('',#387,#388);
#387 = CARTESIAN_POINT('',(73.46,-71.85,0.91));
#388 = VECTOR('',#389,1.);
#389 = DIRECTION('',(0.,-1.,0.));
#390 = FACE_BOUND('',#391,.T.);
#391 = EDGE_LOOP('',(#392,#403,#411,#420));
#392 = ORIENTED_EDGE('',*,*,#393,.T.);
#393 = EDGE_CURVE('',#394,#396,#398,.T.);
#394 = VERTEX_POINT('',#395);
#395 = CARTESIAN_POINT('',(82.1,-143.7,0.91));
#396 = VERTEX_POINT('',#397);
#397 = CARTESIAN_POINT('',(81.5,-143.7,0.91));
#398 = CIRCLE('',#399,0.3);
#399 = AXIS2_PLACEMENT_3D('',#400,#401,#402);
#400 = CARTESIAN_POINT('',(81.8,-143.7,0.91));
#401 = DIRECTION('',(-0.,0.,-1.));
#402 = DIRECTION('',(-1.,9.473903143468E-14,0.));
#403 = ORIENTED_EDGE('',*,*,#404,.T.);
#404 = EDGE_CURVE('',#396,#405,#407,.T.);
#405 = VERTEX_POINT('',#406);
#406 = CARTESIAN_POINT('',(81.5,-143.1,0.91));
#407 = LINE('',#408,#409);
#408 = CARTESIAN_POINT('',(81.5,-71.55,0.91));
#409 = VECTOR('',#410,1.);
#410 = DIRECTION('',(-0.,1.,0.));
#411 = ORIENTED_EDGE('',*,*,#412,.T.);
#412 = EDGE_CURVE('',#405,#413,#415,.T.);
#413 = VERTEX_POINT('',#414);
#414 = CARTESIAN_POINT('',(82.1,-143.1,0.91));
#415 = CIRCLE('',#416,0.3);
#416 = AXIS2_PLACEMENT_3D('',#417,#418,#419);
#417 = CARTESIAN_POINT('',(81.8,-143.1,0.91));
#418 = DIRECTION('',(0.,-0.,-1.));
#419 = DIRECTION('',(1.,0.,-0.));
#420 = ORIENTED_EDGE('',*,*,#421,.T.);
#421 = EDGE_CURVE('',#413,#394,#422,.T.);
#422 = LINE('',#423,#424);
#423 = CARTESIAN_POINT('',(82.1,-71.85,0.91));
#424 = VECTOR('',#425,1.);
#425 = DIRECTION('',(0.,-1.,0.));
#426 = FACE_BOUND('',#427,.T.);
#427 = EDGE_LOOP('',(#428));
#428 = ORIENTED_EDGE('',*,*,#429,.T.);
#429 = EDGE_CURVE('',#430,#430,#432,.T.);
#430 = VERTEX_POINT('',#431);
#431 = CARTESIAN_POINT('',(63.4,-140.15,0.91));
#432 = CIRCLE('',#433,0.55);
#433 = AXIS2_PLACEMENT_3D('',#434,#435,#436);
#434 = CARTESIAN_POINT('',(63.4,-139.6,0.91));
#435 = DIRECTION('',(-0.,0.,-1.));
#436 = DIRECTION('',(-1.2918958832E-14,-1.,0.));
#437 = FACE_BOUND('',#438,.T.);
#438 = EDGE_LOOP('',(#439));
#439 = ORIENTED_EDGE('',*,*,#440,.T.);
#440 = EDGE_CURVE('',#441,#441,#443,.T.);
#441 = VERTEX_POINT('',#442);
#442 = CARTESIAN_POINT('',(67.4,-140.15,0.91));
#443 = CIRCLE('',#444,0.55);
#444 = AXIS2_PLACEMENT_3D('',#445,#446,#447);
#445 = CARTESIAN_POINT('',(67.4,-139.6,0.91));
#446 = DIRECTION('',(-0.,0.,-1.));
#447 = DIRECTION('',(-0.,-1.,0.));
#448 = FACE_BOUND('',#449,.T.);
#449 = EDGE_LOOP('',(#450));
#450 = ORIENTED_EDGE('',*,*,#451,.T.);
#451 = EDGE_CURVE('',#452,#452,#454,.T.);
#452 = VERTEX_POINT('',#453);
#453 = CARTESIAN_POINT('',(74.59,-140.075,0.91));
#454 = CIRCLE('',#455,0.325);
#455 = AXIS2_PLACEMENT_3D('',#456,#457,#458);
#456 = CARTESIAN_POINT('',(74.59,-139.75,0.91));
#457 = DIRECTION('',(-0.,0.,-1.));
#458 = DIRECTION('',(-0.,-1.,0.));
#459 = FACE_BOUND('',#460,.T.);
#460 = EDGE_LOOP('',(#461,#472,#480,#489));
#461 = ORIENTED_EDGE('',*,*,#462,.T.);
#462 = EDGE_CURVE('',#463,#465,#467,.T.);
#463 = VERTEX_POINT('',#464);
#464 = CARTESIAN_POINT('',(73.46,-139.77,0.91));
#465 = VERTEX_POINT('',#466);
#466 = CARTESIAN_POINT('',(72.86,-139.77,0.91));
#467 = CIRCLE('',#468,0.3);
#468 = AXIS2_PLACEMENT_3D('',#469,#470,#471);
#469 = CARTESIAN_POINT('',(73.16,-139.77,0.91));
#470 = DIRECTION('',(-0.,0.,-1.));
#471 = DIRECTION('',(-1.,0.,0.));
#472 = ORIENTED_EDGE('',*,*,#473,.T.);
#473 = EDGE_CURVE('',#465,#474,#476,.T.);
#474 = VERTEX_POINT('',#475);
#475 = CARTESIAN_POINT('',(72.86,-138.67,0.91));
#476 = LINE('',#477,#478);
#477 = CARTESIAN_POINT('',(72.86,-69.335,0.91));
#478 = VECTOR('',#479,1.);
#479 = DIRECTION('',(-0.,1.,0.));
#480 = ORIENTED_EDGE('',*,*,#481,.T.);
#481 = EDGE_CURVE('',#474,#482,#484,.T.);
#482 = VERTEX_POINT('',#483);
#483 = CARTESIAN_POINT('',(73.46,-138.67,0.91));
#484 = CIRCLE('',#485,0.3);
#485 = AXIS2_PLACEMENT_3D('',#486,#487,#488);
#486 = CARTESIAN_POINT('',(73.16,-138.67,0.91));
#487 = DIRECTION('',(0.,-0.,-1.));
#488 = DIRECTION('',(1.,0.,-0.));
#489 = ORIENTED_EDGE('',*,*,#490,.T.);
#490 = EDGE_CURVE('',#482,#463,#491,.T.);
#491 = LINE('',#492,#493);
#492 = CARTESIAN_POINT('',(73.46,-69.885,0.91));
#493 = VECTOR('',#494,1.);
#494 = DIRECTION('',(0.,-1.,0.));
#495 = FACE_BOUND('',#496,.T.);
#496 = EDGE_LOOP('',(#497));
#497 = ORIENTED_EDGE('',*,*,#498,.T.);
#498 = EDGE_CURVE('',#499,#499,#501,.T.);
#499 = VERTEX_POINT('',#500);
#500 = CARTESIAN_POINT('',(80.37,-140.075,0.91));
#501 = CIRCLE('',#502,0.325);
#502 = AXIS2_PLACEMENT_3D('',#503,#504,#505);
#503 = CARTESIAN_POINT('',(80.37,-139.75,0.91));
#504 = DIRECTION('',(-0.,0.,-1.));
#505 = DIRECTION('',(-0.,-1.,0.));
#506 = FACE_BOUND('',#507,.T.);
#507 = EDGE_LOOP('',(#508,#519,#527,#536));
#508 = ORIENTED_EDGE('',*,*,#509,.T.);
#509 = EDGE_CURVE('',#510,#512,#514,.T.);
#510 = VERTEX_POINT('',#511);
#511 = CARTESIAN_POINT('',(82.1,-139.77,0.91));
#512 = VERTEX_POINT('',#513);
#513 = CARTESIAN_POINT('',(81.5,-139.77,0.91));
#514 = CIRCLE('',#515,0.3);
#515 = AXIS2_PLACEMENT_3D('',#516,#517,#518);
#516 = CARTESIAN_POINT('',(81.8,-139.77,0.91));
#517 = DIRECTION('',(-0.,0.,-1.));
#518 = DIRECTION('',(-1.,0.,0.));
#519 = ORIENTED_EDGE('',*,*,#520,.T.);
#520 = EDGE_CURVE('',#512,#521,#523,.T.);
#521 = VERTEX_POINT('',#522);
#522 = CARTESIAN_POINT('',(81.5,-138.67,0.91));
#523 = LINE('',#524,#525);
#524 = CARTESIAN_POINT('',(81.5,-69.335,0.91));
#525 = VECTOR('',#526,1.);
#526 = DIRECTION('',(-0.,1.,0.));
#527 = ORIENTED_EDGE('',*,*,#528,.T.);
#528 = EDGE_CURVE('',#521,#529,#531,.T.);
#529 = VERTEX_POINT('',#530);
#530 = CARTESIAN_POINT('',(82.1,-138.67,0.91));
#531 = CIRCLE('',#532,0.3);
#532 = AXIS2_PLACEMENT_3D('',#533,#534,#535);
#533 = CARTESIAN_POINT('',(81.8,-138.67,0.91));
#534 = DIRECTION('',(0.,-0.,-1.));
#535 = DIRECTION('',(1.,0.,-0.));
#536 = ORIENTED_EDGE('',*,*,#537,.T.);
#537 = EDGE_CURVE('',#529,#510,#538,.T.);
#538 = LINE('',#539,#540);
#539 = CARTESIAN_POINT('',(82.1,-69.885,0.91));
#540 = VECTOR('',#541,1.);
#541 = DIRECTION('',(0.,-1.,0.));
#542 = PLANE('',#543);
#543 = AXIS2_PLACEMENT_3D('',#544,#545,#546);
#544 = CARTESIAN_POINT('',(0.,0.,0.91));
#545 = DIRECTION('',(0.,0.,1.));
#546 = DIRECTION('',(1.,0.,-0.));
#547 = ADVANCED_FACE('',(#548),#554,.T.);
#548 = FACE_BOUND('',#549,.T.);
#549 = EDGE_LOOP('',(#550,#551,#552,#553));
#550 = ORIENTED_EDGE('',*,*,#119,.T.);
#551 = ORIENTED_EDGE('',*,*,#348,.T.);
#552 = ORIENTED_EDGE('',*,*,#79,.F.);
#553 = ORIENTED_EDGE('',*,*,#143,.F.);
#554 = PLANE('',#555);
#555 = AXIS2_PLACEMENT_3D('',#556,#557,#558);
#556 = CARTESIAN_POINT('',(60.,-100.,0.));
#557 = DIRECTION('',(0.,1.,0.));
#558 = DIRECTION('',(1.,0.,0.));
#559 = ADVANCED_FACE('',(#560),#576,.F.);
#560 = FACE_BOUND('',#561,.T.);
#561 = EDGE_LOOP('',(#562,#563,#569,#570));
#562 = ORIENTED_EDGE('',*,*,#152,.T.);
#563 = ORIENTED_EDGE('',*,*,#564,.T.);
#564 = EDGE_CURVE('',#155,#360,#565,.T.);
#565 = LINE('',#566,#567);
#566 = CARTESIAN_POINT('',(72.86,-143.7,-4.6E-02));
#567 = VECTOR('',#568,1.);
#568 = DIRECTION('',(0.,0.,1.));
#569 = ORIENTED_EDGE('',*,*,#357,.F.);
#570 = ORIENTED_EDGE('',*,*,#571,.F.);
#571 = EDGE_CURVE('',#153,#358,#572,.T.);
#572 = LINE('',#573,#574);
#573 = CARTESIAN_POINT('',(73.46,-143.7,-4.6E-02));
#574 = VECTOR('',#575,1.);
#575 = DIRECTION('',(0.,0.,1.));
#576 = CYLINDRICAL_SURFACE('',#577,0.3);
#577 = AXIS2_PLACEMENT_3D('',#578,#579,#580);
#578 = CARTESIAN_POINT('',(73.16,-143.7,-4.6E-02));
#579 = DIRECTION('',(-0.,-0.,-1.));
#580 = DIRECTION('',(-1.,0.,-0.));
#581 = ADVANCED_FACE('',(#582),#593,.T.);
#582 = FACE_BOUND('',#583,.T.);
#583 = EDGE_LOOP('',(#584,#585,#586,#587));
#584 = ORIENTED_EDGE('',*,*,#180,.T.);
#585 = ORIENTED_EDGE('',*,*,#571,.T.);
#586 = ORIENTED_EDGE('',*,*,#385,.F.);
#587 = ORIENTED_EDGE('',*,*,#588,.F.);
#588 = EDGE_CURVE('',#172,#377,#589,.T.);
#589 = LINE('',#590,#591);
#590 = CARTESIAN_POINT('',(73.46,-143.1,-4.6E-02));
#591 = VECTOR('',#592,1.);
#592 = DIRECTION('',(0.,0.,1.));
#593 = PLANE('',#594);
#594 = AXIS2_PLACEMENT_3D('',#595,#596,#597);
#595 = CARTESIAN_POINT('',(73.46,-143.7,-4.6E-02));
#596 = DIRECTION('',(-1.,0.,0.));
#597 = DIRECTION('',(0.,1.,0.));
#598 = ADVANCED_FACE('',(#599),#610,.F.);
#599 = FACE_BOUND('',#600,.T.);
#600 = EDGE_LOOP('',(#601,#602,#603,#604));
#601 = ORIENTED_EDGE('',*,*,#171,.T.);
#602 = ORIENTED_EDGE('',*,*,#588,.T.);
#603 = ORIENTED_EDGE('',*,*,#376,.F.);
#604 = ORIENTED_EDGE('',*,*,#605,.F.);
#605 = EDGE_CURVE('',#164,#369,#606,.T.);
#606 = LINE('',#607,#608);
#607 = CARTESIAN_POINT('',(72.86,-143.1,-4.6E-02));
#608 = VECTOR('',#609,1.);
#609 = DIRECTION('',(0.,0.,1.));
#610 = CYLINDRICAL_SURFACE('',#611,0.3);
#611 = AXIS2_PLACEMENT_3D('',#612,#613,#614);
#612 = CARTESIAN_POINT('',(73.16,-143.1,-4.6E-02));
#613 = DIRECTION('',(-0.,-0.,-1.));
#614 = DIRECTION('',(1.,0.,-0.));
#615 = ADVANCED_FACE('',(#616),#622,.T.);
#616 = FACE_BOUND('',#617,.T.);
#617 = EDGE_LOOP('',(#618,#619,#620,#621));
#618 = ORIENTED_EDGE('',*,*,#163,.T.);
#619 = ORIENTED_EDGE('',*,*,#605,.T.);
#620 = ORIENTED_EDGE('',*,*,#368,.F.);
#621 = ORIENTED_EDGE('',*,*,#564,.F.);
#622 = PLANE('',#623);
#623 = AXIS2_PLACEMENT_3D('',#624,#625,#626);
#624 = CARTESIAN_POINT('',(72.86,-143.1,-4.6E-02));
#625 = DIRECTION('',(1.,0.,-0.));
#626 = DIRECTION('',(0.,-1.,0.));
#627 = ADVANCED_FACE('',(#628),#644,.F.);
#628 = FACE_BOUND('',#629,.T.);
#629 = EDGE_LOOP('',(#630,#631,#637,#638));
#630 = ORIENTED_EDGE('',*,*,#188,.T.);
#631 = ORIENTED_EDGE('',*,*,#632,.T.);
#632 = EDGE_CURVE('',#191,#396,#633,.T.);
#633 = LINE('',#634,#635);
#634 = CARTESIAN_POINT('',(81.5,-143.7,-4.6E-02));
#635 = VECTOR('',#636,1.);
#636 = DIRECTION('',(0.,0.,1.));
#637 = ORIENTED_EDGE('',*,*,#393,.F.);
#638 = ORIENTED_EDGE('',*,*,#639,.F.);
#639 = EDGE_CURVE('',#189,#394,#640,.T.);
#640 = LINE('',#641,#642);
#641 = CARTESIAN_POINT('',(82.1,-143.7,-4.6E-02));
#642 = VECTOR('',#643,1.);
#643 = DIRECTION('',(0.,0.,1.));
#644 = CYLINDRICAL_SURFACE('',#645,0.3);
#645 = AXIS2_PLACEMENT_3D('',#646,#647,#648);
#646 = CARTESIAN_POINT('',(81.8,-143.7,-4.6E-02));
#647 = DIRECTION('',(-0.,-0.,-1.));
#648 = DIRECTION('',(-1.,9.473903143468E-14,-0.));
#649 = ADVANCED_FACE('',(#650),#661,.T.);
#650 = FACE_BOUND('',#651,.T.);
#651 = EDGE_LOOP('',(#652,#653,#654,#655));
#652 = ORIENTED_EDGE('',*,*,#216,.T.);
#653 = ORIENTED_EDGE('',*,*,#639,.T.);
#654 = ORIENTED_EDGE('',*,*,#421,.F.);
#655 = ORIENTED_EDGE('',*,*,#656,.F.);
#656 = EDGE_CURVE('',#208,#413,#657,.T.);
#657 = LINE('',#658,#659);
#658 = CARTESIAN_POINT('',(82.1,-143.1,-4.6E-02));
#659 = VECTOR('',#660,1.);
#660 = DIRECTION('',(0.,0.,1.));
#661 = PLANE('',#662);
#662 = AXIS2_PLACEMENT_3D('',#663,#664,#665);
#663 = CARTESIAN_POINT('',(82.1,-143.7,-4.6E-02));
#664 = DIRECTION('',(-1.,0.,0.));
#665 = DIRECTION('',(0.,1.,0.));
#666 = ADVANCED_FACE('',(#667),#678,.F.);
#667 = FACE_BOUND('',#668,.T.);
#668 = EDGE_LOOP('',(#669,#670,#671,#672));
#669 = ORIENTED_EDGE('',*,*,#207,.T.);
#670 = ORIENTED_EDGE('',*,*,#656,.T.);
#671 = ORIENTED_EDGE('',*,*,#412,.F.);
#672 = ORIENTED_EDGE('',*,*,#673,.F.);
#673 = EDGE_CURVE('',#200,#405,#674,.T.);
#674 = LINE('',#675,#676);
#675 = CARTESIAN_POINT('',(81.5,-143.1,-4.6E-02));
#676 = VECTOR('',#677,1.);
#677 = DIRECTION('',(0.,0.,1.));
#678 = CYLINDRICAL_SURFACE('',#679,0.3);
#679 = AXIS2_PLACEMENT_3D('',#680,#681,#682);
#680 = CARTESIAN_POINT('',(81.8,-143.1,-4.6E-02));
#681 = DIRECTION('',(-0.,-0.,-1.));
#682 = DIRECTION('',(1.,0.,-0.));
#683 = ADVANCED_FACE('',(#684),#690,.T.);
#684 = FACE_BOUND('',#685,.T.);
#685 = EDGE_LOOP('',(#686,#687,#688,#689));
#686 = ORIENTED_EDGE('',*,*,#199,.T.);
#687 = ORIENTED_EDGE('',*,*,#673,.T.);
#688 = ORIENTED_EDGE('',*,*,#404,.F.);
#689 = ORIENTED_EDGE('',*,*,#632,.F.);
#690 = PLANE('',#691);
#691 = AXIS2_PLACEMENT_3D('',#692,#693,#694);
#692 = CARTESIAN_POINT('',(81.5,-143.1,-4.6E-02));
#693 = DIRECTION('',(1.,0.,-0.));
#694 = DIRECTION('',(0.,-1.,0.));
#695 = ADVANCED_FACE('',(#696),#707,.F.);
#696 = FACE_BOUND('',#697,.T.);
#697 = EDGE_LOOP('',(#698,#699,#705,#706));
#698 = ORIENTED_EDGE('',*,*,#224,.T.);
#699 = ORIENTED_EDGE('',*,*,#700,.T.);
#700 = EDGE_CURVE('',#225,#430,#701,.T.);
#701 = LINE('',#702,#703);
#702 = CARTESIAN_POINT('',(63.4,-140.15,-4.6E-02));
#703 = VECTOR('',#704,1.);
#704 = DIRECTION('',(0.,0.,1.));
#705 = ORIENTED_EDGE('',*,*,#429,.F.);
#706 = ORIENTED_EDGE('',*,*,#700,.F.);
#707 = CYLINDRICAL_SURFACE('',#708,0.55);
#708 = AXIS2_PLACEMENT_3D('',#709,#710,#711);
#709 = CARTESIAN_POINT('',(63.4,-139.6,-4.6E-02));
#710 = DIRECTION('',(-0.,-0.,-1.));
#711 = DIRECTION('',(-1.2918958832E-14,-1.,0.));
#712 = ADVANCED_FACE('',(#713),#724,.F.);
#713 = FACE_BOUND('',#714,.T.);
#714 = EDGE_LOOP('',(#715,#716,#722,#723));
#715 = ORIENTED_EDGE('',*,*,#235,.T.);
#716 = ORIENTED_EDGE('',*,*,#717,.T.);
#717 = EDGE_CURVE('',#236,#441,#718,.T.);
#718 = LINE('',#719,#720);
#719 = CARTESIAN_POINT('',(67.4,-140.15,-4.6E-02));
#720 = VECTOR('',#721,1.);
#721 = DIRECTION('',(0.,0.,1.));
#722 = ORIENTED_EDGE('',*,*,#440,.F.);
#723 = ORIENTED_EDGE('',*,*,#717,.F.);
#724 = CYLINDRICAL_SURFACE('',#725,0.55);
#725 = AXIS2_PLACEMENT_3D('',#726,#727,#728);
#726 = CARTESIAN_POINT('',(67.4,-139.6,-4.6E-02));
#727 = DIRECTION('',(-0.,-0.,-1.));
#728 = DIRECTION('',(-0.,-1.,0.));
#729 = ADVANCED_FACE('',(#730),#741,.F.);
#730 = FACE_BOUND('',#731,.T.);
#731 = EDGE_LOOP('',(#732,#733,#739,#740));
#732 = ORIENTED_EDGE('',*,*,#246,.T.);
#733 = ORIENTED_EDGE('',*,*,#734,.T.);
#734 = EDGE_CURVE('',#247,#452,#735,.T.);
#735 = LINE('',#736,#737);
#736 = CARTESIAN_POINT('',(74.59,-140.075,-4.6E-02));
#737 = VECTOR('',#738,1.);
#738 = DIRECTION('',(0.,0.,1.));
#739 = ORIENTED_EDGE('',*,*,#451,.F.);
#740 = ORIENTED_EDGE('',*,*,#734,.F.);
#741 = CYLINDRICAL_SURFACE('',#742,0.325);
#742 = AXIS2_PLACEMENT_3D('',#743,#744,#745);
#743 = CARTESIAN_POINT('',(74.59,-139.75,-4.6E-02));
#744 = DIRECTION('',(-0.,-0.,-1.));
#745 = DIRECTION('',(-0.,-1.,0.));
#746 = ADVANCED_FACE('',(#747),#763,.F.);
#747 = FACE_BOUND('',#748,.T.);
#748 = EDGE_LOOP('',(#749,#750,#756,#757));
#749 = ORIENTED_EDGE('',*,*,#257,.T.);
#750 = ORIENTED_EDGE('',*,*,#751,.T.);
#751 = EDGE_CURVE('',#260,#465,#752,.T.);
#752 = LINE('',#753,#754);
#753 = CARTESIAN_POINT('',(72.86,-139.77,-4.6E-02));
#754 = VECTOR('',#755,1.);
#755 = DIRECTION('',(0.,0.,1.));
#756 = ORIENTED_EDGE('',*,*,#462,.F.);
#757 = ORIENTED_EDGE('',*,*,#758,.F.);
#758 = EDGE_CURVE('',#258,#463,#759,.T.);
#759 = LINE('',#760,#761);
#760 = CARTESIAN_POINT('',(73.46,-139.77,-4.6E-02));
#761 = VECTOR('',#762,1.);
#762 = DIRECTION('',(0.,0.,1.));
#763 = CYLINDRICAL_SURFACE('',#764,0.3);
#764 = AXIS2_PLACEMENT_3D('',#765,#766,#767);
#765 = CARTESIAN_POINT('',(73.16,-139.77,-4.6E-02));
#766 = DIRECTION('',(-0.,-0.,-1.));
#767 = DIRECTION('',(-1.,0.,-0.));
#768 = ADVANCED_FACE('',(#769),#780,.T.);
#769 = FACE_BOUND('',#770,.T.);
#770 = EDGE_LOOP('',(#771,#772,#773,#774));
#771 = ORIENTED_EDGE('',*,*,#285,.T.);
#772 = ORIENTED_EDGE('',*,*,#758,.T.);
#773 = ORIENTED_EDGE('',*,*,#490,.F.);
#774 = ORIENTED_EDGE('',*,*,#775,.F.);
#775 = EDGE_CURVE('',#277,#482,#776,.T.);
#776 = LINE('',#777,#778);
#777 = CARTESIAN_POINT('',(73.46,-138.67,-4.6E-02));
#778 = VECTOR('',#779,1.);
#779 = DIRECTION('',(0.,0.,1.));
#780 = PLANE('',#781);
#781 = AXIS2_PLACEMENT_3D('',#782,#783,#784);
#782 = CARTESIAN_POINT('',(73.46,-139.77,-4.6E-02));
#783 = DIRECTION('',(-1.,0.,0.));
#784 = DIRECTION('',(0.,1.,0.));
#785 = ADVANCED_FACE('',(#786),#797,.F.);
#786 = FACE_BOUND('',#787,.T.);
#787 = EDGE_LOOP('',(#788,#789,#790,#791));
#788 = ORIENTED_EDGE('',*,*,#276,.T.);
#789 = ORIENTED_EDGE('',*,*,#775,.T.);
#790 = ORIENTED_EDGE('',*,*,#481,.F.);
#791 = ORIENTED_EDGE('',*,*,#792,.F.);
#792 = EDGE_CURVE('',#269,#474,#793,.T.);
#793 = LINE('',#794,#795);
#794 = CARTESIAN_POINT('',(72.86,-138.67,-4.6E-02));
#795 = VECTOR('',#796,1.);
#796 = DIRECTION('',(0.,0.,1.));
#797 = CYLINDRICAL_SURFACE('',#798,0.3);
#798 = AXIS2_PLACEMENT_3D('',#799,#800,#801);
#799 = CARTESIAN_POINT('',(73.16,-138.67,-4.6E-02));
#800 = DIRECTION('',(-0.,-0.,-1.));
#801 = DIRECTION('',(1.,0.,-0.));
#802 = ADVANCED_FACE('',(#803),#809,.T.);
#803 = FACE_BOUND('',#804,.T.);
#804 = EDGE_LOOP('',(#805,#806,#807,#808));
#805 = ORIENTED_EDGE('',*,*,#268,.T.);
#806 = ORIENTED_EDGE('',*,*,#792,.T.);
#807 = ORIENTED_EDGE('',*,*,#473,.F.);
#808 = ORIENTED_EDGE('',*,*,#751,.F.);
#809 = PLANE('',#810);
#810 = AXIS2_PLACEMENT_3D('',#811,#812,#813);
#811 = CARTESIAN_POINT('',(72.86,-138.67,-4.6E-02));
#812 = DIRECTION('',(1.,0.,-0.));
#813 = DIRECTION('',(0.,-1.,0.));
#814 = ADVANCED_FACE('',(#815),#826,.F.);
#815 = FACE_BOUND('',#816,.T.);
#816 = EDGE_LOOP('',(#817,#818,#824,#825));
#817 = ORIENTED_EDGE('',*,*,#293,.T.);
#818 = ORIENTED_EDGE('',*,*,#819,.T.);
#819 = EDGE_CURVE('',#294,#499,#820,.T.);
#820 = LINE('',#821,#822);
#821 = CARTESIAN_POINT('',(80.37,-140.075,-4.6E-02));
#822 = VECTOR('',#823,1.);
#823 = DIRECTION('',(0.,0.,1.));
#824 = ORIENTED_EDGE('',*,*,#498,.F.);
#825 = ORIENTED_EDGE('',*,*,#819,.F.);
#826 = CYLINDRICAL_SURFACE('',#827,0.325);
#827 = AXIS2_PLACEMENT_3D('',#828,#829,#830);
#828 = CARTESIAN_POINT('',(80.37,-139.75,-4.6E-02));
#829 = DIRECTION('',(-0.,-0.,-1.));
#830 = DIRECTION('',(-0.,-1.,0.));
#831 = ADVANCED_FACE('',(#832),#848,.F.);
#832 = FACE_BOUND('',#833,.T.);
#833 = EDGE_LOOP('',(#834,#835,#841,#842));
#834 = ORIENTED_EDGE('',*,*,#304,.T.);
#835 = ORIENTED_EDGE('',*,*,#836,.T.);
#836 = EDGE_CURVE('',#307,#512,#837,.T.);
#837 = LINE('',#838,#839);
#838 = CARTESIAN_POINT('',(81.5,-139.77,-4.6E-02));
#839 = VECTOR('',#840,1.);
#840 = DIRECTION('',(0.,0.,1.));
#841 = ORIENTED_EDGE('',*,*,#509,.F.);
#842 = ORIENTED_EDGE('',*,*,#843,.F.);
#843 = EDGE_CURVE('',#305,#510,#844,.T.);
#844 = LINE('',#845,#846);
#845 = CARTESIAN_POINT('',(82.1,-139.77,-4.6E-02));
#846 = VECTOR('',#847,1.);
#847 = DIRECTION('',(0.,0.,1.));
#848 = CYLINDRICAL_SURFACE('',#849,0.3);
#849 = AXIS2_PLACEMENT_3D('',#850,#851,#852);
#850 = CARTESIAN_POINT('',(81.8,-139.77,-4.6E-02));
#851 = DIRECTION('',(-0.,-0.,-1.));
#852 = DIRECTION('',(-1.,0.,-0.));
#853 = ADVANCED_FACE('',(#854),#865,.T.);
#854 = FACE_BOUND('',#855,.T.);
#855 = EDGE_LOOP('',(#856,#857,#858,#859));
#856 = ORIENTED_EDGE('',*,*,#332,.T.);
#857 = ORIENTED_EDGE('',*,*,#843,.T.);
#858 = ORIENTED_EDGE('',*,*,#537,.F.);
#859 = ORIENTED_EDGE('',*,*,#860,.F.);
#860 = EDGE_CURVE('',#324,#529,#861,.T.);
#861 = LINE('',#862,#863);
#862 = CARTESIAN_POINT('',(82.1,-138.67,-4.6E-02));
#863 = VECTOR('',#864,1.);
#864 = DIRECTION('',(0.,0.,1.));
#865 = PLANE('',#866);
#866 = AXIS2_PLACEMENT_3D('',#867,#868,#869);
#867 = CARTESIAN_POINT('',(82.1,-139.77,-4.6E-02));
#868 = DIRECTION('',(-1.,0.,0.));
#869 = DIRECTION('',(0.,1.,0.));
#870 = ADVANCED_FACE('',(#871),#882,.F.);
#871 = FACE_BOUND('',#872,.T.);
#872 = EDGE_LOOP('',(#873,#874,#875,#876));
#873 = ORIENTED_EDGE('',*,*,#323,.T.);
#874 = ORIENTED_EDGE('',*,*,#860,.T.);
#875 = ORIENTED_EDGE('',*,*,#528,.F.);
#876 = ORIENTED_EDGE('',*,*,#877,.F.);
#877 = EDGE_CURVE('',#316,#521,#878,.T.);
#878 = LINE('',#879,#880);
#879 = CARTESIAN_POINT('',(81.5,-138.67,-4.6E-02));
#880 = VECTOR('',#881,1.);
#881 = DIRECTION('',(0.,0.,1.));
#882 = CYLINDRICAL_SURFACE('',#883,0.3);
#883 = AXIS2_PLACEMENT_3D('',#884,#885,#886);
#884 = CARTESIAN_POINT('',(81.8,-138.67,-4.6E-02));
#885 = DIRECTION('',(-0.,-0.,-1.));
#886 = DIRECTION('',(1.,0.,-0.));
#887 = ADVANCED_FACE('',(#888),#894,.T.);
#888 = FACE_BOUND('',#889,.T.);
#889 = EDGE_LOOP('',(#890,#891,#892,#893));
#890 = ORIENTED_EDGE('',*,*,#315,.T.);
#891 = ORIENTED_EDGE('',*,*,#877,.T.);
#892 = ORIENTED_EDGE('',*,*,#520,.F.);
#893 = ORIENTED_EDGE('',*,*,#836,.F.);
#894 = PLANE('',#895);
#895 = AXIS2_PLACEMENT_3D('',#896,#897,#898);
#896 = CARTESIAN_POINT('',(81.5,-138.67,-4.6E-02));
#897 = DIRECTION('',(1.,0.,-0.));
#898 = DIRECTION('',(0.,-1.,0.));
#899 = ( GEOMETRIC_REPRESENTATION_CONTEXT(3) 
GLOBAL_UNCERTAINTY_ASSIGNED_CONTEXT((#903)) GLOBAL_UNIT_ASSIGNED_CONTEXT
((#900,#901,#902)) REPRESENTATION_CONTEXT('Context #1',
  '3D Context with UNIT and UNCERTAINTY') );
#900 = ( LENGTH_UNIT() NAMED_UNIT(*) SI_UNIT(.MILLI.,.METRE.) );
#901 = ( NAMED_UNIT(*) PLANE_ANGLE_UNIT() SI_UNIT($,.RADIAN.) );
#902 = ( NAMED_UNIT(*) SI_UNIT($,.STERADIAN.) SOLID_ANGLE_UNIT() );
#903 = UNCERTAINTY_MEASURE_WITH_UNIT(LENGTH_MEASURE(1.E-07),#900,
  'distance_accuracy_value','confusion accuracy');
#904 = CONTEXT_DEPENDENT_SHAPE_REPRESENTATION(#905,#907);
#905 = ( REPRESENTATION_RELATIONSHIP('','',#32,#10) 
REPRESENTATION_RELATIONSHIP_WITH_TRANSFORMATION(#906) 
SHAPE_REPRESENTATION_RELATIONSHIP() );
#906 = ITEM_DEFINED_TRANSFORMATION('','',#11,#15);
#907 = PRODUCT_DEFINITION_SHAPE('Placement','Placement of an item',#908
  );
#908 = NEXT_ASSEMBLY_USAGE_OCCURRENCE('1','=>[0:1:1:2]','',#5,#27,$);
#909 = PRODUCT_RELATED_PRODUCT_CATEGORY('part',$,(#29));
#910 = MECHANICAL_DESIGN_GEOMETRIC_PRESENTATION_REPRESENTATION('',(#911)
  ,#899);
#911 = STYLED_ITEM('color',(#912),#33);
#912 = PRESENTATION_STYLE_ASSIGNMENT((#913));
#913 = SURFACE_STYLE_USAGE(.BOTH.,#914);
#914 = SURFACE_SIDE_STYLE('',(#915));
#915 = SURFACE_STYLE_FILL_AREA(#916);
#916 = FILL_AREA_STYLE('',(#917));
#917 = FILL_AREA_STYLE_COLOUR('',#918);
#918 = COLOUR_RGB('',0.313304153717,0.484529207832,0.410020903123);
ENDSEC;
END-ISO-10303-21;
