%TF.GenerationSoftware,KiCad,Pcbnew,10.0.5*%
%TF.CreationDate,2026-09-17T23:34:35-05:00*%
%TF.ProjectId,wearable_v2,77656172-6162-46c6-955f-76322e6b6963,rev?*%
%TF.SameCoordinates,Original*%
%TF.FileFunction,Copper,L4,Bot*%
%TF.FilePolarity,Positive*%
%FSLAX46Y46*%
G04 Gerber Fmt 4.6, Leading zero omitted, Abs format (unit mm)*
G04 Created by KiCad (PCBNEW 10.0.5) date 2026-09-17 23:34:35*
%MOMM*%
%LPD*%
G01*
G04 APERTURE LIST*
G04 Aperture macros list*
%AMRoundRect*
0 Rectangle with rounded corners*
0 $1 Rounding radius*
0 $2 $3 $4 $5 $6 $7 $8 $9 X,Y pos of 4 corners*
0 Add a 4 corners polygon primitive as box body*
4,1,4,$2,$3,$4,$5,$6,$7,$8,$9,$2,$3,0*
0 Add four circle primitives for the rounded corners*
1,1,$1+$1,$2,$3*
1,1,$1+$1,$4,$5*
1,1,$1+$1,$6,$7*
1,1,$1+$1,$8,$9*
0 Add four rect primitives between the rounded corners*
20,1,$1+$1,$2,$3,$4,$5,0*
20,1,$1+$1,$4,$5,$6,$7,0*
20,1,$1+$1,$6,$7,$8,$9,0*
20,1,$1+$1,$8,$9,$2,$3,0*%
G04 Aperture macros list end*
%TA.AperFunction,ComponentPad*%
%ADD10O,1.000000X2.100000*%
%TD*%
%TA.AperFunction,ComponentPad*%
%ADD11O,1.000000X1.600000*%
%TD*%
%TA.AperFunction,SMDPad,CuDef*%
%ADD12RoundRect,0.093750X0.093750X0.106250X-0.093750X0.106250X-0.093750X-0.106250X0.093750X-0.106250X0*%
%TD*%
%TA.AperFunction,HeatsinkPad*%
%ADD13R,1.000000X1.600000*%
%TD*%
%TA.AperFunction,SMDPad,CuDef*%
%ADD14RoundRect,0.225000X0.225000X0.250000X-0.225000X0.250000X-0.225000X-0.250000X0.225000X-0.250000X0*%
%TD*%
%TA.AperFunction,SMDPad,CuDef*%
%ADD15RoundRect,0.140000X0.140000X0.170000X-0.140000X0.170000X-0.140000X-0.170000X0.140000X-0.170000X0*%
%TD*%
%TA.AperFunction,SMDPad,CuDef*%
%ADD16RoundRect,0.087500X0.287500X0.087500X-0.287500X0.087500X-0.287500X-0.087500X0.287500X-0.087500X0*%
%TD*%
%TA.AperFunction,ViaPad*%
%ADD17C,0.800000*%
%TD*%
%TA.AperFunction,ViaPad*%
%ADD18C,0.600000*%
%TD*%
%TA.AperFunction,Conductor*%
%ADD19C,0.400000*%
%TD*%
%TA.AperFunction,Conductor*%
%ADD20C,0.300000*%
%TD*%
%TA.AperFunction,Conductor*%
%ADD21C,0.375600*%
%TD*%
%TA.AperFunction,Conductor*%
%ADD22C,0.200000*%
%TD*%
%TA.AperFunction,Conductor*%
%ADD23C,0.350400*%
%TD*%
%TA.AperFunction,Conductor*%
%ADD24C,0.150000*%
%TD*%
G04 APERTURE END LIST*
D10*
%TO.P,J1,SH,SHIELD_SH*%
%TO.N,GND*%
X73160000Y-139220000D03*
D11*
X73160000Y-143400000D03*
D10*
X81800000Y-139220000D03*
D11*
X81800000Y-143400000D03*
%TD*%
D12*
%TO.P,U8,1,SCL_1*%
%TO.N,/SCL*%
X65387500Y-132850000D03*
%TO.P,U8,2,GND_2*%
%TO.N,GND*%
X65387500Y-133500000D03*
%TO.P,U8,3,ALERT_3*%
%TO.N,unconnected-(U8-ALERT-Pad3)*%
X65387500Y-134150000D03*
%TO.P,U8,4,ADD0_4*%
%TO.N,GND*%
X63612500Y-134150000D03*
%TO.P,U8,5,V+_5*%
%TO.N,3V3*%
X63612500Y-133500000D03*
%TO.P,U8,6,SDA_6*%
%TO.N,/SDA*%
X63612500Y-132850000D03*
D13*
%TO.P,U8,7*%
%TO.N,N/C*%
X64500000Y-133500000D03*
%TD*%
D14*
%TO.P,C15,1*%
%TO.N,4V7*%
X74575000Y-127000000D03*
%TO.P,C15,2*%
%TO.N,GND*%
X73025000Y-127000000D03*
%TD*%
D15*
%TO.P,C13,1*%
%TO.N,1V8*%
X74280000Y-129000000D03*
%TO.P,C13,2*%
%TO.N,GND*%
X73320000Y-129000000D03*
%TD*%
D16*
%TO.P,U7,1,NC_1*%
%TO.N,unconnected-(U7-NC-Pad1)*%
X71200000Y-125600000D03*
%TO.P,U7,2,SCL_2*%
%TO.N,/SCL*%
X71200000Y-126400000D03*
%TO.P,U7,3,SDA_3*%
%TO.N,/SDA*%
X71200000Y-127200000D03*
%TO.P,U7,4,PGND_4*%
%TO.N,GND*%
X71200000Y-128000000D03*
%TO.P,U7,5,NC_5*%
%TO.N,unconnected-(U7-NC-Pad5)*%
X71200000Y-128800000D03*
%TO.P,U7,6,NC_6*%
%TO.N,unconnected-(U7-NC-Pad6)*%
X71200000Y-129600000D03*
%TO.P,U7,7,NC_7*%
%TO.N,unconnected-(U7-NC-Pad7)*%
X71200000Y-130400000D03*
%TO.P,U7,8,NC_8*%
%TO.N,unconnected-(U7-NC-Pad8)*%
X68800000Y-130400000D03*
%TO.P,U7,9,VLED+_9*%
%TO.N,4V7*%
X68800000Y-129600000D03*
%TO.P,U7,10,VLED+_10*%
X68800000Y-128800000D03*
%TO.P,U7,11,VDD_11*%
%TO.N,1V8*%
X68800000Y-128000000D03*
%TO.P,U7,12,GND_12*%
%TO.N,GND*%
X68800000Y-127200000D03*
%TO.P,U7,13,INT_13*%
%TO.N,unconnected-(U7-INT-Pad13)*%
X68800000Y-126400000D03*
%TO.P,U7,14,NC_14*%
%TO.N,unconnected-(U7-NC-Pad14)*%
X68800000Y-125600000D03*
%TD*%
D15*
%TO.P,C14,1*%
%TO.N,1V8*%
X74280000Y-130600000D03*
%TO.P,C14,2*%
%TO.N,GND*%
X73320000Y-130600000D03*
%TD*%
%TO.P,C17,1*%
%TO.N,3V3*%
X67980000Y-133500000D03*
%TO.P,C17,2*%
%TO.N,GND*%
X67020000Y-133500000D03*
%TD*%
D17*
%TO.N,3V3*%
X72839300Y-120891100D03*
X63028600Y-124877300D03*
X62505900Y-109971200D03*
X64657000Y-118548500D03*
D18*
X69400000Y-142900000D03*
D17*
X68930700Y-138638000D03*
X67133400Y-109350100D03*
D18*
%TO.N,/SDA*%
X64200000Y-125950000D03*
X73747100Y-115489300D03*
X63440400Y-119281900D03*
X73510000Y-117398400D03*
X66719100Y-119408700D03*
X66850000Y-137500000D03*
X62250000Y-126900000D03*
D17*
%TO.N,GND*%
X62800600Y-143345400D03*
D18*
X64780000Y-113200000D03*
D17*
X71184600Y-132924100D03*
D18*
%TO.N,/SCL*%
X68219700Y-121519700D03*
X63923100Y-121133300D03*
X62300000Y-127700000D03*
X66050000Y-138100000D03*
X64400000Y-126750000D03*
X74318000Y-118399400D03*
D17*
%TO.N,VSYS*%
X76900000Y-130300000D03*
X75721700Y-124271000D03*
X79137500Y-120900000D03*
X64400000Y-137300000D03*
X80620700Y-131358200D03*
D18*
%TO.N,/USB_DP*%
X80681900Y-113071900D03*
X73887400Y-141600700D03*
%TO.N,/USB_DM*%
X73818200Y-132369500D03*
X81510000Y-117819400D03*
D17*
%TO.N,4V7*%
X73774500Y-124549000D03*
X69982800Y-124839100D03*
X78059200Y-126045700D03*
X69982800Y-128442300D03*
%TO.N,1V8*%
X75028400Y-133357400D03*
X71513200Y-131435200D03*
%TO.N,BAT+*%
X62144600Y-117925000D03*
X61500200Y-122102500D03*
%TO.N,VBUS*%
X71904300Y-137456600D03*
X75030000Y-136943300D03*
X79831600Y-136929000D03*
D18*
%TO.N,/USB_DP_CON*%
X77971400Y-136421600D03*
X71254100Y-136754900D03*
%TO.N,/USB_DM_CON*%
X69626200Y-135203100D03*
X76730000Y-142723800D03*
%TO.N,/CC2*%
X80914400Y-135247700D03*
X80948900Y-140712200D03*
%TO.N,/BAT_SENSE*%
X64942500Y-115143400D03*
X67024600Y-115472800D03*
%TO.N,/PPG_PWR_EN*%
X78700000Y-123050000D03*
X72965000Y-115113100D03*
%TD*%
%TO.N,3V3*%
D19*
X63189400Y-110654700D02*
X63189400Y-114433600D01*
X63076500Y-133450600D02*
X62973100Y-133554000D01*
X62973100Y-134972500D02*
X64443100Y-136442500D01*
X64198900Y-118090400D02*
X64657000Y-118548500D01*
X62973100Y-133554000D02*
X62973100Y-134972500D01*
X63189400Y-110654700D02*
X64494000Y-109350100D01*
X63076500Y-133450600D02*
X63004400Y-133378500D01*
D20*
X63563100Y-133450600D02*
X63612500Y-133500000D01*
D19*
X63189400Y-114433600D02*
X63189400Y-118090400D01*
X63004400Y-124901500D02*
X63028600Y-124877300D01*
X66735200Y-136442500D02*
X67980000Y-135197700D01*
D21*
X63188200Y-133450600D02*
X63563100Y-133450600D01*
D19*
X75078000Y-117903500D02*
X75078000Y-118652400D01*
X63189400Y-114433600D02*
X71293300Y-114433600D01*
X63189400Y-118090400D02*
X62738700Y-118541100D01*
X72674500Y-115814800D02*
X72989300Y-115814800D01*
X63189400Y-118090400D02*
X64198900Y-118090400D01*
X72989300Y-115814800D02*
X75078000Y-117903500D01*
X64443100Y-136442500D02*
X66735200Y-136442500D01*
X64494000Y-109350100D02*
X67133400Y-109350100D01*
X67980000Y-135197700D02*
X67980000Y-133500000D01*
X66735200Y-136442500D02*
X68930700Y-138638000D01*
X75078000Y-118652400D02*
X72839300Y-120891100D01*
X71293300Y-114433600D02*
X72674500Y-115814800D01*
X63004400Y-133378500D02*
X63004400Y-124901500D01*
X63188200Y-133450600D02*
X63076500Y-133450600D01*
X62738700Y-118541100D02*
X62738700Y-124587400D01*
X62738700Y-124587400D02*
X63028600Y-124877300D01*
X62505900Y-109971200D02*
X63189400Y-110654700D01*
%TO.N,/SDA*%
D22*
X78791700Y-125777800D02*
X78791700Y-126320100D01*
X77284600Y-127827200D02*
X74148300Y-127827200D01*
X66850000Y-137500000D02*
X66850000Y-137650000D01*
X63793500Y-130897100D02*
X63793500Y-123032000D01*
X78314500Y-125300600D02*
X78791700Y-125777800D01*
X74148300Y-127827200D02*
X73822400Y-127501300D01*
X76719100Y-125427600D02*
X76846100Y-125300600D01*
X74611600Y-121673900D02*
X74611600Y-124727400D01*
X63285700Y-122524200D02*
X63285700Y-120904000D01*
X73510000Y-117398400D02*
X68729400Y-117398400D01*
X73747100Y-115489300D02*
X75583400Y-117325600D01*
X61700000Y-127450000D02*
X62250000Y-126900000D01*
X63612500Y-132850000D02*
X63612500Y-131078100D01*
X64200000Y-138700000D02*
X61700000Y-136200000D01*
X75583400Y-117325600D02*
X75583400Y-120702100D01*
X73570300Y-126218300D02*
X72529500Y-126218300D01*
X66750000Y-137750000D02*
X66750000Y-138250000D01*
X63612500Y-131078100D02*
X63793500Y-130897100D01*
X74611600Y-124727400D02*
X75311800Y-125427600D01*
X66250000Y-138650000D02*
X66200000Y-138700000D01*
X75583400Y-120702100D02*
X74611600Y-121673900D01*
X66850000Y-137650000D02*
X66750000Y-137750000D01*
X64200000Y-125950000D02*
X63950000Y-125950000D01*
X66200000Y-138700000D02*
X64200000Y-138700000D01*
X76846100Y-125300600D02*
X78314500Y-125300600D01*
X78791700Y-126320100D02*
X77284600Y-127827200D01*
X64781000Y-119408700D02*
X66719100Y-119408700D01*
X68729400Y-117398400D02*
X66719100Y-119408700D01*
X64174100Y-120015600D02*
X63440400Y-119281900D01*
X72529500Y-126218300D02*
X71547800Y-127200000D01*
X64174100Y-120015600D02*
X64781000Y-119408700D01*
X73822400Y-126470400D02*
X73570300Y-126218300D01*
X63793500Y-123032000D02*
X63285700Y-122524200D01*
X75311800Y-125427600D02*
X76719100Y-125427600D01*
X73822400Y-127501300D02*
X73822400Y-126470400D01*
X71547800Y-127200000D02*
X71200000Y-127200000D01*
X63285700Y-120904000D02*
X64174100Y-120015600D01*
X66350000Y-138650000D02*
X66250000Y-138650000D01*
X66750000Y-138250000D02*
X66350000Y-138650000D01*
X61700000Y-136200000D02*
X61700000Y-127450000D01*
%TO.N,GND*%
D19*
X73160000Y-139220000D02*
X73160000Y-137918400D01*
X65767900Y-134752100D02*
X63650000Y-134752100D01*
X72728000Y-137768300D02*
X72237900Y-138258400D01*
X72237900Y-138258400D02*
X71572400Y-138258400D01*
X71184600Y-132924100D02*
X73320000Y-130788700D01*
X72531600Y-127493400D02*
X73025000Y-127000000D01*
X72531600Y-128211600D02*
X72531600Y-127775500D01*
X73310100Y-137768300D02*
X73160000Y-137918400D01*
X63650000Y-134752100D02*
X63599800Y-134701900D01*
X69036400Y-132743200D02*
X67659200Y-132743200D01*
X66447100Y-134072900D02*
X65923500Y-133549400D01*
X73160000Y-142198300D02*
X63947700Y-142198300D01*
X67659200Y-132743200D02*
X67020000Y-133382400D01*
X81800000Y-139220000D02*
X81800000Y-137768300D01*
X70327900Y-134034700D02*
X70201000Y-133907700D01*
X67020000Y-133382400D02*
X67020000Y-133500000D01*
X66447100Y-134072900D02*
X65767900Y-134752100D01*
D23*
X70975500Y-127775500D02*
X71200000Y-128000000D01*
D21*
X65923500Y-133549400D02*
X65436900Y-133549400D01*
D19*
X73320000Y-130600000D02*
X73320000Y-129000000D01*
X73160000Y-137918400D02*
X73160000Y-137768300D01*
X66447100Y-134072900D02*
X67020000Y-133500000D01*
X63947700Y-142198300D02*
X62800600Y-143345400D01*
D23*
X70472800Y-127775500D02*
X70975500Y-127775500D01*
D19*
X73160000Y-143400000D02*
X73160000Y-142198300D01*
X72531600Y-127775500D02*
X71927200Y-127775500D01*
D23*
X71424500Y-127775500D02*
X71200000Y-128000000D01*
D19*
X81800000Y-137768300D02*
X73310100Y-137768300D01*
X73320000Y-130788700D02*
X73320000Y-130600000D01*
D21*
X63599800Y-134701900D02*
X63599800Y-134162700D01*
D19*
X70201000Y-133907700D02*
X69036400Y-132743200D01*
X73320000Y-129000000D02*
X72531600Y-128211600D01*
X72531600Y-127775500D02*
X72531600Y-127493400D01*
X68800000Y-127200000D02*
X69897300Y-127200000D01*
X70327900Y-137013900D02*
X70327900Y-134034700D01*
X70201000Y-133907700D02*
X71184600Y-132924100D01*
D20*
X65436900Y-133549400D02*
X65387500Y-133500000D01*
D19*
X73160000Y-137768300D02*
X72728000Y-137768300D01*
X73160000Y-139220000D02*
X73160000Y-142198300D01*
D23*
X71927200Y-127775500D02*
X71424500Y-127775500D01*
D20*
X63599800Y-134162700D02*
X63612500Y-134150000D01*
D19*
X69897300Y-127200000D02*
X70472800Y-127775500D01*
X71572400Y-138258400D02*
X70327900Y-137013900D01*
%TO.N,/SCL*%
D22*
X68150000Y-125259900D02*
X66314800Y-123424600D01*
X66314800Y-123424600D02*
X68219700Y-121519700D01*
X64100000Y-138000000D02*
X62300000Y-136200000D01*
X66050000Y-138100000D02*
X65950000Y-138000000D01*
X64023400Y-121133300D02*
X63923100Y-121133300D01*
X68150000Y-125259900D02*
X68303600Y-125106300D01*
X68303600Y-125106300D02*
X69257800Y-125106300D01*
X65387500Y-127737500D02*
X65387500Y-128022400D01*
X66314800Y-123424600D02*
X64023400Y-121133300D01*
X65387500Y-128022400D02*
X65387500Y-132850000D01*
D24*
X71200000Y-126400000D02*
X70307500Y-126400000D01*
D22*
X64400000Y-126750000D02*
X65387500Y-127737500D01*
X70307400Y-126155900D02*
X70307500Y-126155900D01*
X62300000Y-136200000D02*
X62300000Y-127700000D01*
X74318000Y-118399400D02*
X71340000Y-118399400D01*
X65950000Y-138000000D02*
X64100000Y-138000000D01*
X70307500Y-126155900D02*
X70307500Y-126400000D01*
X69257800Y-125106300D02*
X70307400Y-126155900D01*
X68150000Y-125259900D02*
X65387500Y-128022400D01*
X71340000Y-118399400D02*
X68219700Y-121519700D01*
%TO.N,VSYS*%
D19*
X81837400Y-117086600D02*
X81235500Y-117086600D01*
X75721700Y-122600400D02*
X75721700Y-124271000D01*
X80620700Y-131358200D02*
X82214200Y-129764700D01*
X82214200Y-117463400D02*
X81837400Y-117086600D01*
X82214200Y-129764700D02*
X82214200Y-117463400D01*
X79137500Y-120900000D02*
X78279500Y-120042600D01*
X81235500Y-117086600D02*
X75721700Y-122600400D01*
%TO.N,/USB_DP*%
D22*
X83124400Y-115514400D02*
X80681900Y-113071900D01*
X73887400Y-141600700D02*
X81760800Y-141600700D01*
X83124400Y-140237100D02*
X83124400Y-115514400D01*
X81760800Y-141600700D02*
X83124400Y-140237100D01*
%TO.N,/USB_DM*%
X81510000Y-124677700D02*
X73818200Y-132369500D01*
X81510000Y-117819400D02*
X81510000Y-124677700D01*
%TO.N,4V7*%
D19*
X78051500Y-126053400D02*
X78059200Y-126045700D01*
X68800000Y-128800000D02*
X68800000Y-129600000D01*
X68800000Y-128800000D02*
X69625100Y-128800000D01*
X74575000Y-127000000D02*
X74575000Y-126053400D01*
X73484400Y-124839100D02*
X73774500Y-124549000D01*
X74575000Y-126053400D02*
X73774500Y-125252900D01*
X69625100Y-128800000D02*
X69982800Y-128442300D01*
X69982800Y-124839100D02*
X73484400Y-124839100D01*
X74575000Y-126053400D02*
X78051500Y-126053400D01*
X73774500Y-125252900D02*
X73774500Y-124549000D01*
%TO.N,1V8*%
X68023000Y-128486200D02*
X68023000Y-130690300D01*
X68023000Y-130690300D02*
X68767900Y-131435200D01*
X74280000Y-129000000D02*
X74280000Y-130600000D01*
X68800000Y-128000000D02*
X68509200Y-128000000D01*
X73775300Y-133357400D02*
X75028400Y-133357400D01*
X68509200Y-128000000D02*
X68023000Y-128486200D01*
X73116500Y-132698600D02*
X73775300Y-133357400D01*
X74280000Y-130911100D02*
X73116500Y-132074600D01*
X68767900Y-131435200D02*
X71513200Y-131435200D01*
X73116500Y-132074600D02*
X73116500Y-132698600D01*
X74280000Y-130600000D02*
X74280000Y-130911100D01*
%TO.N,BAT+*%
X61500200Y-118569400D02*
X61500200Y-122102500D01*
X62144600Y-117925000D02*
X61500200Y-118569400D01*
%TO.N,VBUS*%
X75030000Y-136943300D02*
X75210000Y-137123300D01*
X79637300Y-137123300D02*
X79831600Y-136929000D01*
X75210000Y-137123300D02*
X79637300Y-137123300D01*
X75030000Y-136943300D02*
X72417600Y-136943300D01*
X72417600Y-136943300D02*
X71904300Y-137456600D01*
%TO.N,/USB_DP_CON*%
D22*
X77971400Y-136421600D02*
X77784700Y-136234900D01*
X71774100Y-136234900D02*
X71254100Y-136754900D01*
X77784700Y-136234900D02*
X71774100Y-136234900D01*
%TO.N,/USB_DM_CON*%
X62912000Y-144501700D02*
X74952100Y-144501700D01*
X67868500Y-140701700D02*
X64429200Y-140701700D01*
X62081400Y-143671100D02*
X62912000Y-144501700D01*
X69626200Y-135203100D02*
X69708400Y-135285300D01*
X69708400Y-138861800D02*
X67868500Y-140701700D01*
X74952100Y-144501700D02*
X76730000Y-142723800D01*
X62081400Y-143049500D02*
X62081400Y-143671100D01*
X64429200Y-140701700D02*
X62081400Y-143049500D01*
X69708400Y-135285300D02*
X69708400Y-138861800D01*
%TO.N,/CC2*%
X82722700Y-137056000D02*
X82722700Y-140070800D01*
X81289400Y-141052700D02*
X80948900Y-140712200D01*
X81740800Y-141052700D02*
X81289400Y-141052700D01*
X80914400Y-135247700D02*
X82722700Y-137056000D01*
X82722700Y-140070800D02*
X81740800Y-141052700D01*
%TO.N,/BAT_SENSE*%
X67024600Y-115472800D02*
X65271900Y-115472800D01*
X65271900Y-115472800D02*
X64942500Y-115143400D01*
%TO.N,/PPG_PWR_EN*%
X73086900Y-115113100D02*
X72965000Y-115113100D01*
X73300000Y-114900000D02*
X73086900Y-115113100D01*
X75050000Y-121850000D02*
X75950000Y-120950000D01*
X75950000Y-116800000D02*
X74050000Y-114900000D01*
X76050000Y-124950000D02*
X75450000Y-124950000D01*
X75450000Y-124950000D02*
X75050000Y-124550000D01*
X77950000Y-123050000D02*
X76050000Y-124950000D01*
X78700000Y-123050000D02*
X77950000Y-123050000D01*
X74050000Y-114900000D02*
X73300000Y-114900000D01*
X75950000Y-120950000D02*
X75950000Y-116800000D01*
X75050000Y-124550000D02*
X75050000Y-121850000D01*
%TD*%
M02*
