%TF.GenerationSoftware,KiCad,Pcbnew,10.0.5*%
%TF.CreationDate,2026-09-17T23:34:35-05:00*%
%TF.ProjectId,wearable_v2,77656172-6162-46c6-955f-76322e6b6963,rev?*%
%TF.SameCoordinates,Original*%
%TF.FileFunction,Soldermask,Top*%
%TF.FilePolarity,Negative*%
%FSLAX46Y46*%
G04 Gerber Fmt 4.6, Leading zero omitted, Abs format (unit mm)*
G04 Created by KiCad (PCBNEW 10.0.5) date 2026-09-17 23:34:35*
%MOMM*%
%LPD*%
G01*
G04 APERTURE LIST*
G04 Aperture macros list*
%AMRoundRect*
0 Rectangle with rounded corners*
0 $1 Rounding radius*
0 $2 $3 $4 $5 $6 $7 $8 $9 X,Y pos of 4 corners*
0 Add a 4 corners polygon primitive as box body*
4,1,4,$2,$3,$4,$5,$6,$7,$8,$9,$2,$3,0*
0 Add four circle primitives for the rounded corners*
1,1,$1+$1,$2,$3*
1,1,$1+$1,$4,$5*
1,1,$1+$1,$6,$7*
1,1,$1+$1,$8,$9*
0 Add four rect primitives between the rounded corners*
20,1,$1+$1,$2,$3,$4,$5,0*
20,1,$1+$1,$4,$5,$6,$7,0*
20,1,$1+$1,$6,$7,$8,$9,0*
20,1,$1+$1,$8,$9,$2,$3,0*%
%AMFreePoly0*
4,1,14,0.760322,0.760195,0.774967,0.724840,0.774967,-0.725145,0.760322,-0.760500,0.724967,-0.775145,-0.725018,-0.775145,-0.760373,-0.760500,-0.775018,-0.725145,-0.775018,0.124841,-0.760373,0.160196,-0.160374,0.760195,-0.125019,0.774840,0.724967,0.774840,0.760322,0.760195,0.760322,0.760195,$1*%
G04 Aperture macros list end*
%ADD10C,1.000000*%
%ADD11RoundRect,0.135000X-0.135000X-0.185000X0.135000X-0.185000X0.135000X0.185000X-0.135000X0.185000X0*%
%ADD12RoundRect,0.140000X-0.140000X-0.170000X0.140000X-0.170000X0.140000X0.170000X-0.140000X0.170000X0*%
%ADD13RoundRect,0.087500X-0.225000X-0.087500X0.225000X-0.087500X0.225000X0.087500X-0.225000X0.087500X0*%
%ADD14RoundRect,0.087500X-0.087500X-0.225000X0.087500X-0.225000X0.087500X0.225000X-0.087500X0.225000X0*%
%ADD15RoundRect,0.225000X-0.225000X-0.250000X0.225000X-0.250000X0.225000X0.250000X-0.225000X0.250000X0*%
%ADD16R,1.200000X1.800000*%
%ADD17RoundRect,0.150000X-0.512500X-0.150000X0.512500X-0.150000X0.512500X0.150000X-0.512500X0.150000X0*%
%ADD18RoundRect,0.150000X-0.587500X-0.150000X0.587500X-0.150000X0.587500X0.150000X-0.587500X0.150000X0*%
%ADD19C,0.650000*%
%ADD20RoundRect,0.150000X-0.150000X-0.575000X0.150000X-0.575000X0.150000X0.575000X-0.150000X0.575000X0*%
%ADD21RoundRect,0.075000X-0.075000X-0.650000X0.075000X-0.650000X0.075000X0.650000X-0.075000X0.650000X0*%
%ADD22O,1.000000X2.100000*%
%ADD23O,1.000000X1.600000*%
%ADD24R,0.500000X0.300000*%
%ADD25C,1.100000*%
%ADD26R,2.000000X1.400000*%
%ADD27R,0.800000X0.400000*%
%ADD28R,0.400000X0.800000*%
%ADD29FreePoly0,0.000000*%
%ADD30R,1.450000X1.450000*%
%ADD31R,0.700000X0.700000*%
%ADD32RoundRect,0.093750X-0.093750X-0.106250X0.093750X-0.106250X0.093750X0.106250X-0.093750X0.106250X0*%
%ADD33R,1.000000X1.600000*%
%ADD34RoundRect,0.250000X-1.000000X-0.650000X1.000000X-0.650000X1.000000X0.650000X-1.000000X0.650000X0*%
G04 APERTURE END LIST*
D10*
%TO.C,TP7*%
X61300000Y-112000000D03*
%TD*%
D11*
%TO.C,R16*%
X72490000Y-118400000D03*
X73510000Y-118400000D03*
%TD*%
D12*
%TO.C,C4*%
X63320000Y-109300000D03*
X64280000Y-109300000D03*
%TD*%
D13*
%TO.C,U9*%
X62837500Y-122250000D03*
X62837500Y-122750000D03*
X62837500Y-123250000D03*
X62837500Y-123750000D03*
D14*
X63500000Y-123912500D03*
X64000000Y-123912500D03*
X64500000Y-123912500D03*
D13*
X65162500Y-123750000D03*
X65162500Y-123250000D03*
X65162500Y-122750000D03*
X65162500Y-122250000D03*
D14*
X64500000Y-122087500D03*
X64000000Y-122087500D03*
X63500000Y-122087500D03*
%TD*%
D15*
%TO.C,C7*%
X81225000Y-126600000D03*
X82775000Y-126600000D03*
%TD*%
D16*
%TO.C,L1*%
X77000000Y-124600000D03*
X79000000Y-124600000D03*
%TD*%
D12*
%TO.C,C20*%
X70020000Y-143200000D03*
X70980000Y-143200000D03*
%TD*%
%TO.C,C10*%
X63320000Y-113200000D03*
X64280000Y-113200000D03*
%TD*%
D11*
%TO.C,R4*%
X80490000Y-113900000D03*
X81510000Y-113900000D03*
%TD*%
D10*
%TO.C,TP9*%
X81500000Y-110000000D03*
%TD*%
D17*
%TO.C,U4*%
X76862500Y-127650000D03*
X76862500Y-128600000D03*
X76862500Y-129550000D03*
X79137500Y-129550000D03*
X79137500Y-127650000D03*
%TD*%
D10*
%TO.C,TP8*%
X78800000Y-118400000D03*
%TD*%
D15*
%TO.C,C9*%
X81225000Y-123300000D03*
X82775000Y-123300000D03*
%TD*%
D18*
%TO.C,U5*%
X77062500Y-131650000D03*
X77062500Y-133550000D03*
X78937500Y-132600000D03*
%TD*%
D17*
%TO.C,U3*%
X63862500Y-127550000D03*
X63862500Y-128500000D03*
X63862500Y-129450000D03*
X66137500Y-129450000D03*
X66137500Y-127550000D03*
%TD*%
D12*
%TO.C,C5*%
X81520000Y-130200000D03*
X82480000Y-130200000D03*
%TD*%
D10*
%TO.C,TP2*%
X72800000Y-129200000D03*
%TD*%
%TO.C,TP12*%
X67500000Y-120800000D03*
%TD*%
D11*
%TO.C,R6*%
X68990000Y-132400000D03*
X70010000Y-132400000D03*
%TD*%
D10*
%TO.C,TP10*%
X81500000Y-107500000D03*
%TD*%
D12*
%TO.C,C18*%
X67120000Y-122600000D03*
X68080000Y-122600000D03*
%TD*%
D11*
%TO.C,R13*%
X63290000Y-110600000D03*
X64310000Y-110600000D03*
%TD*%
D19*
%TO.C,J1*%
X74590000Y-139750000D03*
X80370000Y-139750000D03*
D20*
X74230000Y-138305000D03*
X75030000Y-138305000D03*
D21*
X76230000Y-138305000D03*
X77230000Y-138305000D03*
X77730000Y-138305000D03*
X78730000Y-138305000D03*
D20*
X79930000Y-138305000D03*
X80730000Y-138305000D03*
X80730000Y-138305000D03*
X79930000Y-138305000D03*
D21*
X79230000Y-138305000D03*
X78230000Y-138305000D03*
X76730000Y-138305000D03*
X75730000Y-138305000D03*
D20*
X75030000Y-138305000D03*
X74230000Y-138305000D03*
D22*
X73160000Y-139220000D03*
D23*
X73160000Y-143400000D03*
D22*
X81800000Y-139220000D03*
D23*
X81800000Y-143400000D03*
%TD*%
D11*
%TO.C,R3*%
X80490000Y-115200000D03*
X81510000Y-115200000D03*
%TD*%
D18*
%TO.C,Q1*%
X64062500Y-131450000D03*
X64062500Y-133350000D03*
X65937500Y-132400000D03*
%TD*%
D10*
%TO.C,TP1*%
X61500000Y-119000000D03*
%TD*%
D15*
%TO.C,C1*%
X74925000Y-135300000D03*
X76475000Y-135300000D03*
%TD*%
%TO.C,C8*%
X81225000Y-121500000D03*
X82775000Y-121500000D03*
%TD*%
D11*
%TO.C,R5*%
X67990000Y-128000000D03*
X69010000Y-128000000D03*
%TD*%
D12*
%TO.C,C6*%
X81520000Y-133000000D03*
X82480000Y-133000000D03*
%TD*%
%TO.C,C12*%
X63320000Y-108000000D03*
X64280000Y-108000000D03*
%TD*%
D11*
%TO.C,R10*%
X74490000Y-122700000D03*
X75510000Y-122700000D03*
%TD*%
D12*
%TO.C,C16*%
X81520000Y-124900000D03*
X82480000Y-124900000D03*
%TD*%
D10*
%TO.C,TP11*%
X67500000Y-118400000D03*
%TD*%
D24*
%TO.C,U10*%
X69800000Y-140800000D03*
X69800000Y-141600000D03*
X71200000Y-141600000D03*
X71200000Y-140800000D03*
%TD*%
D10*
%TO.C,TP5*%
X72800000Y-127000000D03*
%TD*%
%TO.C,TP3*%
X72800000Y-131400000D03*
%TD*%
D11*
%TO.C,R14*%
X75490000Y-118400000D03*
X76510000Y-118400000D03*
%TD*%
D25*
%TO.C,BT1*%
X67400000Y-139600000D03*
X63400000Y-139600000D03*
D26*
X67400000Y-142000000D03*
X63400000Y-142000000D03*
%TD*%
D12*
%TO.C,C2*%
X63320000Y-117100000D03*
X64280000Y-117100000D03*
%TD*%
D11*
%TO.C,R17*%
X72490000Y-119800000D03*
X73510000Y-119800000D03*
%TD*%
%TO.C,R8*%
X63290000Y-115800000D03*
X64310000Y-115800000D03*
%TD*%
D17*
%TO.C,U2*%
X70862500Y-134050000D03*
X70862500Y-135000000D03*
X70862500Y-135950000D03*
X73137500Y-135950000D03*
X73137500Y-135000000D03*
X73137500Y-134050000D03*
%TD*%
D11*
%TO.C,R2*%
X81390000Y-136000000D03*
X82410000Y-136000000D03*
%TD*%
D27*
%TO.C,U1*%
X66100000Y-107500000D03*
X66100000Y-108300000D03*
X66100000Y-109100000D03*
X66100000Y-109900000D03*
X66100000Y-110700000D03*
X66100000Y-111500000D03*
X66100000Y-112300000D03*
X66100000Y-113100000D03*
X66100000Y-113900000D03*
X66100000Y-114700000D03*
X66100000Y-115500000D03*
D28*
X67200000Y-116400000D03*
X68000000Y-116400000D03*
X68800000Y-116400000D03*
X69600000Y-116400000D03*
X70400000Y-116400000D03*
X71200000Y-116400000D03*
X72000000Y-116400000D03*
X72800000Y-116400000D03*
X73600000Y-116400000D03*
X74400000Y-116400000D03*
X75200000Y-116400000D03*
X76000000Y-116400000D03*
X76800000Y-116400000D03*
D27*
X77900000Y-115500000D03*
X77900000Y-114700000D03*
X77900000Y-113900000D03*
X77900000Y-113100000D03*
X77900000Y-112300000D03*
X77900000Y-111500000D03*
X77900000Y-110700000D03*
X77900000Y-109900000D03*
X77900000Y-109100000D03*
X77900000Y-108300000D03*
X77900000Y-107500000D03*
D28*
X76800000Y-106600000D03*
X76000000Y-106600000D03*
X75200000Y-106600000D03*
X74400000Y-106600000D03*
X73600000Y-106600000D03*
X72800000Y-106600000D03*
X72000000Y-106600000D03*
X71200000Y-106600000D03*
X70400000Y-106600000D03*
X69600000Y-106600000D03*
X68800000Y-106600000D03*
X68000000Y-106600000D03*
X67200000Y-106600000D03*
D29*
X70020000Y-109520000D03*
D30*
X70020000Y-111500000D03*
X70020000Y-113480000D03*
X72000000Y-109530000D03*
X72000000Y-111500000D03*
X72000000Y-113480000D03*
X73970000Y-109530000D03*
X73970000Y-111500000D03*
X73970000Y-113480000D03*
D31*
X77950000Y-106550000D03*
X77950000Y-116450000D03*
X66050000Y-116450000D03*
X66050000Y-106550000D03*
%TD*%
D11*
%TO.C,R1*%
X78990000Y-136000000D03*
X80010000Y-136000000D03*
%TD*%
D32*
%TO.C,U6*%
X77112500Y-121150000D03*
X77112500Y-121800000D03*
X77112500Y-122450000D03*
X78887500Y-122450000D03*
X78887500Y-121800000D03*
X78887500Y-121150000D03*
D33*
X78000000Y-121800000D03*
%TD*%
D12*
%TO.C,C19*%
X67120000Y-124000000D03*
X68080000Y-124000000D03*
%TD*%
D15*
%TO.C,C11*%
X81225000Y-128400000D03*
X82775000Y-128400000D03*
%TD*%
D11*
%TO.C,R11*%
X69490000Y-118400000D03*
X70510000Y-118400000D03*
%TD*%
%TO.C,R7*%
X63290000Y-114500000D03*
X64310000Y-114500000D03*
%TD*%
%TO.C,R9*%
X74490000Y-121300000D03*
X75510000Y-121300000D03*
%TD*%
D12*
%TO.C,C3*%
X81520000Y-131600000D03*
X82480000Y-131600000D03*
%TD*%
D11*
%TO.C,R12*%
X63290000Y-111900000D03*
X64310000Y-111900000D03*
%TD*%
D10*
%TO.C,TP4*%
X82000000Y-119500000D03*
%TD*%
D11*
%TO.C,R15*%
X75490000Y-119800000D03*
X76510000Y-119800000D03*
%TD*%
D34*
%TO.C,D1*%
X63000000Y-136000000D03*
X67000000Y-136000000D03*
%TD*%
D10*
%TO.C,TP6*%
X61500000Y-130000000D03*
%TD*%
M02*
