%TF.GenerationSoftware,KiCad,Pcbnew,10.0.5*%
%TF.CreationDate,2026-09-17T23:34:35-05:00*%
%TF.ProjectId,wearable_v2,77656172-6162-46c6-955f-76322e6b6963,rev?*%
%TF.SameCoordinates,Original*%
%TF.FileFunction,Copper,L3,Inr*%
%TF.FilePolarity,Positive*%
%FSLAX46Y46*%
G04 Gerber Fmt 4.6, Leading zero omitted, Abs format (unit mm)*
G04 Created by KiCad (PCBNEW 10.0.5) date 2026-09-17 23:34:35*
%MOMM*%
%LPD*%
G01*
G04 APERTURE LIST*
%TA.AperFunction,ComponentPad*%
%ADD10O,1.000000X2.100000*%
%TD*%
%TA.AperFunction,ComponentPad*%
%ADD11O,1.000000X1.600000*%
%TD*%
%TA.AperFunction,ViaPad*%
%ADD12C,0.800000*%
%TD*%
%TA.AperFunction,ViaPad*%
%ADD13C,0.600000*%
%TD*%
%TA.AperFunction,Conductor*%
%ADD14C,0.300000*%
%TD*%
%TA.AperFunction,Conductor*%
%ADD15C,0.400000*%
%TD*%
G04 APERTURE END LIST*
D10*
%TO.N,GND*%
%TO.C,J1*%
X73160000Y-139220000D03*
D11*
X73160000Y-143400000D03*
D10*
X81800000Y-139220000D03*
D11*
X81800000Y-143400000D03*
%TD*%
D12*
%TO.N,3V3*%
X72839300Y-120891100D03*
X63028600Y-124877300D03*
X62505900Y-109971200D03*
X64657000Y-118548500D03*
D13*
X69400000Y-142900000D03*
D12*
X68930700Y-138638000D03*
X67133400Y-109350100D03*
D13*
%TO.N,/SDA*%
X64200000Y-125950000D03*
X73747100Y-115489300D03*
X63440400Y-119281900D03*
X73510000Y-117398400D03*
X66719100Y-119408700D03*
X66850000Y-137500000D03*
X62250000Y-126900000D03*
D12*
%TO.N,GND*%
X62800600Y-143345400D03*
D13*
X64780000Y-113200000D03*
D12*
X71184600Y-132924100D03*
D13*
%TO.N,/SCL*%
X68219700Y-121519700D03*
X63923100Y-121133300D03*
X62300000Y-127700000D03*
X66050000Y-138100000D03*
X64400000Y-126750000D03*
X74318000Y-118399400D03*
D12*
%TO.N,VSYS*%
X76900000Y-130300000D03*
X75721700Y-124271000D03*
X79137500Y-120900000D03*
X64400000Y-137300000D03*
X80620700Y-131358200D03*
D13*
%TO.N,/USB_DP*%
X80681900Y-113071900D03*
X73887400Y-141600700D03*
%TO.N,/USB_DM*%
X73818200Y-132369500D03*
X81510000Y-117819400D03*
D12*
%TO.N,4V7*%
X73774500Y-124549000D03*
X69982800Y-124839100D03*
X78059200Y-126045700D03*
X69982800Y-128442300D03*
%TO.N,1V8*%
X75028400Y-133357400D03*
X71513200Y-131435200D03*
%TO.N,BAT+*%
X62144600Y-117925000D03*
X61500200Y-122102500D03*
%TO.N,VBUS*%
X71904300Y-137456600D03*
X75030000Y-136943300D03*
X79831600Y-136929000D03*
D13*
%TO.N,/USB_DP_CON*%
X77971400Y-136421600D03*
X71254100Y-136754900D03*
%TO.N,/USB_DM_CON*%
X69626200Y-135203100D03*
X76730000Y-142723800D03*
%TO.N,/CC2*%
X80914400Y-135247700D03*
X80948900Y-140712200D03*
%TO.N,/BAT_SENSE*%
X64942500Y-115143400D03*
X67024600Y-115472800D03*
%TO.N,/PPG_PWR_EN*%
X78700000Y-123050000D03*
X72965000Y-115113100D03*
%TD*%
%TO.N,3V3*%
D14*
X68930700Y-138980700D02*
X68930700Y-138638000D01*
X69100000Y-139150000D02*
X68930700Y-138980700D01*
X69400000Y-142900000D02*
X69400000Y-139450000D01*
X69400000Y-139450000D02*
X69100000Y-139150000D01*
%TO.N,VSYS*%
D15*
X64400000Y-137300000D02*
X71400000Y-130300000D01*
X71400000Y-130300000D02*
X76900000Y-130300000D01*
%TD*%
%TA.AperFunction,Conductor*%
%TO.N,GND*%
G36*
X83642539Y-105919685D02*
G01*
X83688294Y-105972489D01*
X83699500Y-106024000D01*
X83699500Y-145575500D01*
X83679815Y-145642539D01*
X83627011Y-145688294D01*
X83575500Y-145699500D01*
X60424500Y-145699500D01*
X60357461Y-145679815D01*
X60311706Y-145627011D01*
X60300500Y-145575500D01*
X60300500Y-139521153D01*
X62599500Y-139521153D01*
X62599500Y-139678846D01*
X62630261Y-139833489D01*
X62630264Y-139833501D01*
X62690602Y-139979172D01*
X62690609Y-139979185D01*
X62778210Y-140110288D01*
X62778213Y-140110292D01*
X62889707Y-140221786D01*
X62889711Y-140221789D01*
X63020814Y-140309390D01*
X63020827Y-140309397D01*
X63166498Y-140369735D01*
X63166503Y-140369737D01*
X63321153Y-140400499D01*
X63321156Y-140400500D01*
X63321158Y-140400500D01*
X63478844Y-140400500D01*
X63478845Y-140400499D01*
X63633497Y-140369737D01*
X63779179Y-140309394D01*
X63910289Y-140221789D01*
X64021789Y-140110289D01*
X64109394Y-139979179D01*
X64169737Y-139833497D01*
X64200500Y-139678842D01*
X64200500Y-139521158D01*
X64200500Y-139521155D01*
X64200499Y-139521153D01*
X66599500Y-139521153D01*
X66599500Y-139678846D01*
X66630261Y-139833489D01*
X66630264Y-139833501D01*
X66690602Y-139979172D01*
X66690609Y-139979185D01*
X66778210Y-140110288D01*
X66778213Y-140110292D01*
X66889707Y-140221786D01*
X66889711Y-140221789D01*
X67020814Y-140309390D01*
X67020827Y-140309397D01*
X67166498Y-140369735D01*
X67166503Y-140369737D01*
X67321153Y-140400499D01*
X67321156Y-140400500D01*
X67321158Y-140400500D01*
X67478844Y-140400500D01*
X67478845Y-140400499D01*
X67633497Y-140369737D01*
X67779179Y-140309394D01*
X67910289Y-140221789D01*
X68021789Y-140110289D01*
X68109394Y-139979179D01*
X68169737Y-139833497D01*
X68200500Y-139678842D01*
X68200500Y-139521158D01*
X68200500Y-139521155D01*
X68192826Y-139482577D01*
X68199053Y-139412985D01*
X68241916Y-139357808D01*
X68307805Y-139334563D01*
X68375802Y-139350631D01*
X68383317Y-139355272D01*
X68390478Y-139360057D01*
X68421296Y-139390876D01*
X68421559Y-139390661D01*
X68423746Y-139393326D01*
X68424685Y-139394265D01*
X68425422Y-139395368D01*
X68425425Y-139395372D01*
X68594723Y-139564669D01*
X68713181Y-139683127D01*
X68746666Y-139744450D01*
X68749500Y-139770808D01*
X68749500Y-142395064D01*
X68729815Y-142462103D01*
X68728603Y-142463954D01*
X68690608Y-142520817D01*
X68690602Y-142520828D01*
X68630264Y-142666498D01*
X68630261Y-142666510D01*
X68599500Y-142821153D01*
X68599500Y-142978846D01*
X68630261Y-143133489D01*
X68630264Y-143133501D01*
X68690602Y-143279172D01*
X68690609Y-143279185D01*
X68778210Y-143410288D01*
X68778213Y-143410292D01*
X68889707Y-143521786D01*
X68889711Y-143521789D01*
X69020814Y-143609390D01*
X69020827Y-143609397D01*
X69166498Y-143669735D01*
X69166503Y-143669737D01*
X69321153Y-143700499D01*
X69321156Y-143700500D01*
X69321158Y-143700500D01*
X69478844Y-143700500D01*
X69478845Y-143700499D01*
X69633497Y-143669737D01*
X69779179Y-143609394D01*
X69910289Y-143521789D01*
X70021789Y-143410289D01*
X70109394Y-143279179D01*
X70169737Y-143133497D01*
X70200500Y-142978842D01*
X70200500Y-142821158D01*
X70200500Y-142821155D01*
X70169738Y-142666507D01*
X70169735Y-142666498D01*
X70160811Y-142644953D01*
X75929500Y-142644953D01*
X75929500Y-142802646D01*
X75960261Y-142957289D01*
X75960264Y-142957301D01*
X76020602Y-143102972D01*
X76020609Y-143102985D01*
X76108210Y-143234088D01*
X76108213Y-143234092D01*
X76219707Y-143345586D01*
X76219711Y-143345589D01*
X76350814Y-143433190D01*
X76350827Y-143433197D01*
X76496498Y-143493535D01*
X76496503Y-143493537D01*
X76651153Y-143524299D01*
X76651156Y-143524300D01*
X76651158Y-143524300D01*
X76808844Y-143524300D01*
X76808845Y-143524299D01*
X76963497Y-143493537D01*
X77109179Y-143433194D01*
X77240289Y-143345589D01*
X77351789Y-143234089D01*
X77439394Y-143102979D01*
X77499737Y-142957297D01*
X77530500Y-142802642D01*
X77530500Y-142644958D01*
X77530500Y-142644955D01*
X77530499Y-142644953D01*
X77505807Y-142520821D01*
X77499737Y-142490303D01*
X77462830Y-142401200D01*
X77439397Y-142344627D01*
X77439390Y-142344614D01*
X77351789Y-142213511D01*
X77351786Y-142213507D01*
X77240292Y-142102013D01*
X77240288Y-142102010D01*
X77109185Y-142014409D01*
X77109172Y-142014402D01*
X76963501Y-141954064D01*
X76963489Y-141954061D01*
X76808845Y-141923300D01*
X76808842Y-141923300D01*
X76651158Y-141923300D01*
X76651155Y-141923300D01*
X76496510Y-141954061D01*
X76496498Y-141954064D01*
X76350827Y-142014402D01*
X76350814Y-142014409D01*
X76219711Y-142102010D01*
X76219707Y-142102013D01*
X76108213Y-142213507D01*
X76108210Y-142213511D01*
X76020609Y-142344614D01*
X76020602Y-142344627D01*
X75960264Y-142490298D01*
X75960261Y-142490310D01*
X75929500Y-142644953D01*
X70160811Y-142644953D01*
X70109397Y-142520828D01*
X70109396Y-142520827D01*
X70109394Y-142520821D01*
X70071396Y-142463953D01*
X70050520Y-142397276D01*
X70050500Y-142395064D01*
X70050500Y-142324000D01*
X70070185Y-142256961D01*
X70122989Y-142211206D01*
X70174500Y-142200000D01*
X71700000Y-142200000D01*
X71700000Y-141521853D01*
X73086900Y-141521853D01*
X73086900Y-141679546D01*
X73117661Y-141834189D01*
X73117664Y-141834201D01*
X73178002Y-141979872D01*
X73178009Y-141979885D01*
X73265610Y-142110988D01*
X73265613Y-142110992D01*
X73377107Y-142222486D01*
X73377111Y-142222489D01*
X73508214Y-142310090D01*
X73508227Y-142310097D01*
X73653898Y-142370435D01*
X73653903Y-142370437D01*
X73788831Y-142397276D01*
X73808553Y-142401199D01*
X73808556Y-142401200D01*
X73808558Y-142401200D01*
X73966244Y-142401200D01*
X73966245Y-142401199D01*
X74120897Y-142370437D01*
X74266579Y-142310094D01*
X74397689Y-142222489D01*
X74509189Y-142110989D01*
X74596794Y-141979879D01*
X74657137Y-141834197D01*
X74687900Y-141679542D01*
X74687900Y-141521858D01*
X74687900Y-141521855D01*
X74687899Y-141521853D01*
X74679959Y-141481935D01*
X74657137Y-141367203D01*
X74657135Y-141367198D01*
X74596797Y-141221527D01*
X74596790Y-141221514D01*
X74509189Y-141090411D01*
X74509186Y-141090407D01*
X74397692Y-140978913D01*
X74397688Y-140978910D01*
X74266585Y-140891309D01*
X74266572Y-140891302D01*
X74120901Y-140830964D01*
X74120889Y-140830961D01*
X73966245Y-140800200D01*
X73966242Y-140800200D01*
X73808558Y-140800200D01*
X73808555Y-140800200D01*
X73653910Y-140830961D01*
X73653898Y-140830964D01*
X73508227Y-140891302D01*
X73508214Y-140891309D01*
X73377111Y-140978910D01*
X73377107Y-140978913D01*
X73265613Y-141090407D01*
X73265610Y-141090411D01*
X73178009Y-141221514D01*
X73178002Y-141221527D01*
X73117664Y-141367198D01*
X73117661Y-141367210D01*
X73086900Y-141521853D01*
X71700000Y-141521853D01*
X71700000Y-140200000D01*
X70174500Y-140200000D01*
X70107461Y-140180315D01*
X70061706Y-140127511D01*
X70050500Y-140076000D01*
X70050500Y-139674234D01*
X74014500Y-139674234D01*
X74014500Y-139825766D01*
X74016573Y-139833501D01*
X74053719Y-139972136D01*
X74091602Y-140037750D01*
X74129485Y-140103365D01*
X74236635Y-140210515D01*
X74367865Y-140286281D01*
X74514234Y-140325500D01*
X74514236Y-140325500D01*
X74665764Y-140325500D01*
X74665766Y-140325500D01*
X74812135Y-140286281D01*
X74943365Y-140210515D01*
X75050515Y-140103365D01*
X75126281Y-139972135D01*
X75165500Y-139825766D01*
X75165500Y-139674234D01*
X79794500Y-139674234D01*
X79794500Y-139825766D01*
X79796573Y-139833501D01*
X79833719Y-139972136D01*
X79871602Y-140037750D01*
X79909485Y-140103365D01*
X80016635Y-140210515D01*
X80129329Y-140275579D01*
X80143268Y-140283627D01*
X80191484Y-140334194D01*
X80204706Y-140402801D01*
X80195829Y-140438466D01*
X80179164Y-140478698D01*
X80179161Y-140478710D01*
X80148400Y-140633353D01*
X80148400Y-140791046D01*
X80179161Y-140945689D01*
X80179164Y-140945701D01*
X80239502Y-141091372D01*
X80239509Y-141091385D01*
X80327110Y-141222488D01*
X80327113Y-141222492D01*
X80438607Y-141333986D01*
X80438611Y-141333989D01*
X80569714Y-141421590D01*
X80569727Y-141421597D01*
X80715398Y-141481935D01*
X80715403Y-141481937D01*
X80870053Y-141512699D01*
X80870056Y-141512700D01*
X80870058Y-141512700D01*
X81027744Y-141512700D01*
X81027745Y-141512699D01*
X81182397Y-141481937D01*
X81328079Y-141421594D01*
X81459189Y-141333989D01*
X81570689Y-141222489D01*
X81658294Y-141091379D01*
X81718637Y-140945697D01*
X81749400Y-140791042D01*
X81749400Y-140633358D01*
X81749400Y-140633355D01*
X81749399Y-140633353D01*
X81718638Y-140478710D01*
X81718637Y-140478703D01*
X81718635Y-140478698D01*
X81658297Y-140333027D01*
X81658290Y-140333014D01*
X81570689Y-140201911D01*
X81570686Y-140201907D01*
X81459192Y-140090413D01*
X81459188Y-140090410D01*
X81328085Y-140002809D01*
X81328072Y-140002802D01*
X81182401Y-139942464D01*
X81182391Y-139942461D01*
X81045308Y-139915193D01*
X80983397Y-139882808D01*
X80948823Y-139822092D01*
X80945500Y-139793576D01*
X80945500Y-139674236D01*
X80945500Y-139674234D01*
X80906281Y-139527865D01*
X80830515Y-139396635D01*
X80723365Y-139289485D01*
X80657750Y-139251602D01*
X80592136Y-139213719D01*
X80518950Y-139194109D01*
X80445766Y-139174500D01*
X80294234Y-139174500D01*
X80147863Y-139213719D01*
X80016635Y-139289485D01*
X80016632Y-139289487D01*
X79909487Y-139396632D01*
X79909485Y-139396635D01*
X79833719Y-139527863D01*
X79794500Y-139674234D01*
X75165500Y-139674234D01*
X75126281Y-139527865D01*
X75050515Y-139396635D01*
X74943365Y-139289485D01*
X74877750Y-139251602D01*
X74812136Y-139213719D01*
X74738950Y-139194109D01*
X74665766Y-139174500D01*
X74514234Y-139174500D01*
X74367863Y-139213719D01*
X74236635Y-139289485D01*
X74236632Y-139289487D01*
X74129487Y-139396632D01*
X74129485Y-139396635D01*
X74053719Y-139527863D01*
X74014500Y-139674234D01*
X70050500Y-139674234D01*
X70050500Y-139385928D01*
X70025502Y-139260261D01*
X70025501Y-139260260D01*
X70025501Y-139260256D01*
X69976465Y-139141873D01*
X69938158Y-139084542D01*
X69938158Y-139084541D01*
X69905275Y-139035328D01*
X69839150Y-138969203D01*
X69805665Y-138907880D01*
X69805214Y-138857330D01*
X69831200Y-138726693D01*
X69831200Y-138549306D01*
X69831199Y-138549304D01*
X69796596Y-138375341D01*
X69796593Y-138375332D01*
X69728716Y-138211459D01*
X69728709Y-138211446D01*
X69630164Y-138063965D01*
X69630161Y-138063961D01*
X69504738Y-137938538D01*
X69504734Y-137938535D01*
X69357253Y-137839990D01*
X69357240Y-137839983D01*
X69193367Y-137772106D01*
X69193358Y-137772103D01*
X69019394Y-137737500D01*
X69019391Y-137737500D01*
X68842009Y-137737500D01*
X68842006Y-137737500D01*
X68668041Y-137772103D01*
X68668032Y-137772106D01*
X68504159Y-137839983D01*
X68504146Y-137839990D01*
X68356665Y-137938535D01*
X68356661Y-137938538D01*
X68231238Y-138063961D01*
X68231235Y-138063965D01*
X68132690Y-138211446D01*
X68132683Y-138211459D01*
X68064806Y-138375332D01*
X68064803Y-138375341D01*
X68030200Y-138549304D01*
X68030200Y-138549309D01*
X68030200Y-138726691D01*
X68030200Y-138726693D01*
X68030199Y-138726693D01*
X68047876Y-138815555D01*
X68041649Y-138885147D01*
X67998786Y-138940324D01*
X67932896Y-138963569D01*
X67864899Y-138947501D01*
X67857369Y-138942850D01*
X67779183Y-138890608D01*
X67779172Y-138890602D01*
X67633501Y-138830264D01*
X67633489Y-138830261D01*
X67478845Y-138799500D01*
X67478842Y-138799500D01*
X67321158Y-138799500D01*
X67321155Y-138799500D01*
X67166510Y-138830261D01*
X67166498Y-138830264D01*
X67020827Y-138890602D01*
X67020814Y-138890609D01*
X66889711Y-138978210D01*
X66889707Y-138978213D01*
X66778213Y-139089707D01*
X66778210Y-139089711D01*
X66690609Y-139220814D01*
X66690602Y-139220827D01*
X66630264Y-139366498D01*
X66630261Y-139366510D01*
X66599500Y-139521153D01*
X64200499Y-139521153D01*
X64178983Y-139412985D01*
X64169737Y-139366503D01*
X64167066Y-139360055D01*
X64109397Y-139220827D01*
X64109390Y-139220814D01*
X64021789Y-139089711D01*
X64021786Y-139089707D01*
X63910292Y-138978213D01*
X63910288Y-138978210D01*
X63779185Y-138890609D01*
X63779172Y-138890602D01*
X63633501Y-138830264D01*
X63633489Y-138830261D01*
X63478845Y-138799500D01*
X63478842Y-138799500D01*
X63321158Y-138799500D01*
X63321155Y-138799500D01*
X63166510Y-138830261D01*
X63166498Y-138830264D01*
X63020827Y-138890602D01*
X63020814Y-138890609D01*
X62889711Y-138978210D01*
X62889707Y-138978213D01*
X62778213Y-139089707D01*
X62778210Y-139089711D01*
X62690609Y-139220814D01*
X62690602Y-139220827D01*
X62630264Y-139366498D01*
X62630261Y-139366510D01*
X62599500Y-139521153D01*
X60300500Y-139521153D01*
X60300500Y-137211304D01*
X63499500Y-137211304D01*
X63499500Y-137388695D01*
X63534103Y-137562658D01*
X63534106Y-137562667D01*
X63601983Y-137726540D01*
X63601990Y-137726553D01*
X63700535Y-137874034D01*
X63700538Y-137874038D01*
X63825961Y-137999461D01*
X63825965Y-137999464D01*
X63973446Y-138098009D01*
X63973459Y-138098016D01*
X64096363Y-138148923D01*
X64137334Y-138165894D01*
X64137336Y-138165894D01*
X64137341Y-138165896D01*
X64311304Y-138200499D01*
X64311307Y-138200500D01*
X64311309Y-138200500D01*
X64488693Y-138200500D01*
X64488694Y-138200499D01*
X64546682Y-138188964D01*
X64662658Y-138165896D01*
X64662661Y-138165894D01*
X64662666Y-138165894D01*
X64826547Y-138098013D01*
X64974035Y-137999464D01*
X64974038Y-137999461D01*
X65037819Y-137935681D01*
X65099142Y-137902196D01*
X65168834Y-137907180D01*
X65224767Y-137949052D01*
X65249184Y-138014516D01*
X65249500Y-138023362D01*
X65249500Y-138178846D01*
X65280261Y-138333489D01*
X65280264Y-138333501D01*
X65340602Y-138479172D01*
X65340609Y-138479185D01*
X65428210Y-138610288D01*
X65428213Y-138610292D01*
X65539707Y-138721786D01*
X65539711Y-138721789D01*
X65670814Y-138809390D01*
X65670827Y-138809397D01*
X65816498Y-138869735D01*
X65816503Y-138869737D01*
X65971153Y-138900499D01*
X65971156Y-138900500D01*
X65971158Y-138900500D01*
X66128844Y-138900500D01*
X66128845Y-138900499D01*
X66283497Y-138869737D01*
X66429179Y-138809394D01*
X66560289Y-138721789D01*
X66671789Y-138610289D01*
X66759394Y-138479179D01*
X66801698Y-138377048D01*
X66845538Y-138322644D01*
X66911833Y-138300579D01*
X66916259Y-138300500D01*
X66928844Y-138300500D01*
X66928845Y-138300499D01*
X67083497Y-138269737D01*
X67229179Y-138209394D01*
X67360289Y-138121789D01*
X67471789Y-138010289D01*
X67559394Y-137879179D01*
X67559397Y-137879172D01*
X67619736Y-137733500D01*
X67619737Y-137733497D01*
X67650500Y-137578842D01*
X67650500Y-137421158D01*
X67650500Y-137421155D01*
X67650499Y-137421153D01*
X67643938Y-137388170D01*
X67619737Y-137266503D01*
X67615029Y-137255136D01*
X67559397Y-137120827D01*
X67559390Y-137120814D01*
X67471789Y-136989711D01*
X67471786Y-136989707D01*
X67360292Y-136878213D01*
X67360288Y-136878210D01*
X67229185Y-136790609D01*
X67229173Y-136790602D01*
X67214504Y-136784527D01*
X67083501Y-136730264D01*
X67083489Y-136730261D01*
X66928845Y-136699500D01*
X66928842Y-136699500D01*
X66771158Y-136699500D01*
X66771155Y-136699500D01*
X66616510Y-136730261D01*
X66616498Y-136730264D01*
X66470827Y-136790602D01*
X66470814Y-136790609D01*
X66339711Y-136878210D01*
X66339707Y-136878213D01*
X66228213Y-136989707D01*
X66228210Y-136989711D01*
X66140609Y-137120814D01*
X66140602Y-137120827D01*
X66098302Y-137222952D01*
X66054462Y-137277356D01*
X65988167Y-137299421D01*
X65983741Y-137299500D01*
X65971155Y-137299500D01*
X65816510Y-137330261D01*
X65816498Y-137330264D01*
X65670827Y-137390602D01*
X65670816Y-137390608D01*
X65600253Y-137437757D01*
X65533575Y-137458634D01*
X65466195Y-137440149D01*
X65419506Y-137388170D01*
X65408330Y-137319200D01*
X65436216Y-137255136D01*
X65443671Y-137246984D01*
X66014602Y-136676053D01*
X70453600Y-136676053D01*
X70453600Y-136833746D01*
X70484361Y-136988389D01*
X70484364Y-136988401D01*
X70544702Y-137134072D01*
X70544709Y-137134085D01*
X70632310Y-137265188D01*
X70632313Y-137265192D01*
X70743807Y-137376686D01*
X70743811Y-137376689D01*
X70874914Y-137464290D01*
X70874918Y-137464292D01*
X70874921Y-137464294D01*
X70936580Y-137489833D01*
X70990981Y-137533673D01*
X71010743Y-137580202D01*
X71038404Y-137719259D01*
X71038406Y-137719267D01*
X71106283Y-137883140D01*
X71106290Y-137883153D01*
X71204835Y-138030634D01*
X71204838Y-138030638D01*
X71330261Y-138156061D01*
X71330265Y-138156064D01*
X71477746Y-138254609D01*
X71477759Y-138254616D01*
X71514268Y-138269738D01*
X71641634Y-138322494D01*
X71641636Y-138322494D01*
X71641641Y-138322496D01*
X71815604Y-138357099D01*
X71815607Y-138357100D01*
X71815609Y-138357100D01*
X71992993Y-138357100D01*
X71992994Y-138357099D01*
X72050982Y-138345564D01*
X72166958Y-138322496D01*
X72166961Y-138322494D01*
X72166966Y-138322494D01*
X72330847Y-138254613D01*
X72478335Y-138156064D01*
X72603764Y-138030635D01*
X72702313Y-137883147D01*
X72703960Y-137879172D01*
X72738868Y-137794894D01*
X72770194Y-137719266D01*
X72770194Y-137719261D01*
X72770196Y-137719258D01*
X72804799Y-137545295D01*
X72804800Y-137545293D01*
X72804800Y-137367906D01*
X72804799Y-137367904D01*
X72770196Y-137193941D01*
X72770193Y-137193932D01*
X72769254Y-137191666D01*
X72744122Y-137130990D01*
X72702316Y-137030059D01*
X72702309Y-137030046D01*
X72627046Y-136917408D01*
X72603764Y-136882565D01*
X72603761Y-136882561D01*
X72575804Y-136854604D01*
X74129500Y-136854604D01*
X74129500Y-137031995D01*
X74164103Y-137205958D01*
X74164106Y-137205967D01*
X74231983Y-137369840D01*
X74231990Y-137369853D01*
X74330535Y-137517334D01*
X74330538Y-137517338D01*
X74455961Y-137642761D01*
X74455965Y-137642764D01*
X74603446Y-137741309D01*
X74603459Y-137741316D01*
X74726363Y-137792223D01*
X74767334Y-137809194D01*
X74767336Y-137809194D01*
X74767341Y-137809196D01*
X74941304Y-137843799D01*
X74941307Y-137843800D01*
X74941309Y-137843800D01*
X75118693Y-137843800D01*
X75118694Y-137843799D01*
X75176682Y-137832264D01*
X75292658Y-137809196D01*
X75292661Y-137809194D01*
X75292666Y-137809194D01*
X75456547Y-137741313D01*
X75604035Y-137642764D01*
X75729464Y-137517335D01*
X75828013Y-137369847D01*
X75895894Y-137205966D01*
X75898288Y-137193934D01*
X75929437Y-137037334D01*
X75930500Y-137031991D01*
X75930500Y-136854609D01*
X75930500Y-136854606D01*
X75930499Y-136854604D01*
X75895896Y-136680641D01*
X75895893Y-136680632D01*
X75893998Y-136676058D01*
X75862716Y-136600535D01*
X75828016Y-136516759D01*
X75828014Y-136516755D01*
X75828013Y-136516753D01*
X75772790Y-136434106D01*
X75753714Y-136405557D01*
X75729464Y-136369265D01*
X75729461Y-136369261D01*
X75702953Y-136342753D01*
X77170900Y-136342753D01*
X77170900Y-136500446D01*
X77201661Y-136655089D01*
X77201664Y-136655101D01*
X77262002Y-136800772D01*
X77262009Y-136800785D01*
X77349610Y-136931888D01*
X77349613Y-136931892D01*
X77461107Y-137043386D01*
X77461111Y-137043389D01*
X77592214Y-137130990D01*
X77592227Y-137130997D01*
X77737898Y-137191335D01*
X77737903Y-137191337D01*
X77892553Y-137222099D01*
X77892556Y-137222100D01*
X77892558Y-137222100D01*
X78050244Y-137222100D01*
X78050245Y-137222099D01*
X78204897Y-137191337D01*
X78350579Y-137130994D01*
X78481689Y-137043389D01*
X78593189Y-136931889D01*
X78680794Y-136800779D01*
X78695683Y-136764831D01*
X78739521Y-136710430D01*
X78805815Y-136688363D01*
X78873515Y-136705640D01*
X78921126Y-136756776D01*
X78933534Y-136825536D01*
X78931864Y-136836464D01*
X78931100Y-136840306D01*
X78931100Y-137017695D01*
X78965703Y-137191658D01*
X78965706Y-137191667D01*
X79033583Y-137355540D01*
X79033590Y-137355553D01*
X79132135Y-137503034D01*
X79132138Y-137503038D01*
X79257561Y-137628461D01*
X79257565Y-137628464D01*
X79405046Y-137727009D01*
X79405059Y-137727016D01*
X79513911Y-137772103D01*
X79568934Y-137794894D01*
X79568936Y-137794894D01*
X79568941Y-137794896D01*
X79742904Y-137829499D01*
X79742907Y-137829500D01*
X79742909Y-137829500D01*
X79920293Y-137829500D01*
X79920294Y-137829499D01*
X79978282Y-137817964D01*
X80094258Y-137794896D01*
X80094261Y-137794894D01*
X80094266Y-137794894D01*
X80258147Y-137727013D01*
X80405635Y-137628464D01*
X80531064Y-137503035D01*
X80629613Y-137355547D01*
X80697494Y-137191666D01*
X80697560Y-137191338D01*
X80729255Y-137031993D01*
X80732100Y-137017691D01*
X80732100Y-136840309D01*
X80732100Y-136840306D01*
X80732099Y-136840304D01*
X80697496Y-136666341D01*
X80697493Y-136666332D01*
X80692839Y-136655097D01*
X80670240Y-136600536D01*
X80629616Y-136502459D01*
X80629609Y-136502446D01*
X80531064Y-136354965D01*
X80531061Y-136354961D01*
X80405638Y-136229538D01*
X80405634Y-136229535D01*
X80258153Y-136130990D01*
X80258140Y-136130983D01*
X80094267Y-136063106D01*
X80094258Y-136063103D01*
X79920294Y-136028500D01*
X79920291Y-136028500D01*
X79742909Y-136028500D01*
X79742906Y-136028500D01*
X79568941Y-136063103D01*
X79568932Y-136063106D01*
X79405059Y-136130983D01*
X79405046Y-136130990D01*
X79257565Y-136229535D01*
X79257561Y-136229538D01*
X79132138Y-136354961D01*
X79132135Y-136354965D01*
X79033590Y-136502446D01*
X79033585Y-136502456D01*
X79009905Y-136559625D01*
X78966063Y-136614029D01*
X78899769Y-136636093D01*
X78832070Y-136618813D01*
X78784460Y-136567676D01*
X78773151Y-136506534D01*
X78771900Y-136506534D01*
X78771900Y-136342755D01*
X78771899Y-136342753D01*
X78749379Y-136229538D01*
X78741137Y-136188103D01*
X78741135Y-136188098D01*
X78680797Y-136042427D01*
X78680790Y-136042414D01*
X78593189Y-135911311D01*
X78593186Y-135911307D01*
X78481692Y-135799813D01*
X78481688Y-135799810D01*
X78350585Y-135712209D01*
X78350572Y-135712202D01*
X78204901Y-135651864D01*
X78204889Y-135651861D01*
X78050245Y-135621100D01*
X78050242Y-135621100D01*
X77892558Y-135621100D01*
X77892555Y-135621100D01*
X77737910Y-135651861D01*
X77737898Y-135651864D01*
X77592227Y-135712202D01*
X77592214Y-135712209D01*
X77461111Y-135799810D01*
X77461107Y-135799813D01*
X77349613Y-135911307D01*
X77349610Y-135911311D01*
X77262009Y-136042414D01*
X77262002Y-136042427D01*
X77201664Y-136188098D01*
X77201661Y-136188110D01*
X77170900Y-136342753D01*
X75702953Y-136342753D01*
X75604038Y-136243838D01*
X75604034Y-136243835D01*
X75456553Y-136145290D01*
X75456540Y-136145283D01*
X75292667Y-136077406D01*
X75292658Y-136077403D01*
X75118694Y-136042800D01*
X75118691Y-136042800D01*
X74941309Y-136042800D01*
X74941306Y-136042800D01*
X74767341Y-136077403D01*
X74767332Y-136077406D01*
X74603459Y-136145283D01*
X74603446Y-136145290D01*
X74455965Y-136243835D01*
X74455961Y-136243838D01*
X74330538Y-136369261D01*
X74330535Y-136369265D01*
X74231990Y-136516746D01*
X74231983Y-136516759D01*
X74164106Y-136680632D01*
X74164103Y-136680641D01*
X74129500Y-136854604D01*
X72575804Y-136854604D01*
X72478338Y-136757138D01*
X72478334Y-136757135D01*
X72330853Y-136658590D01*
X72330840Y-136658583D01*
X72166970Y-136590707D01*
X72166961Y-136590704D01*
X72107272Y-136578831D01*
X72045361Y-136546445D01*
X72016904Y-136504666D01*
X72015987Y-136502453D01*
X71976534Y-136407202D01*
X71963497Y-136375726D01*
X71963490Y-136375714D01*
X71875889Y-136244611D01*
X71875886Y-136244607D01*
X71764392Y-136133113D01*
X71764388Y-136133110D01*
X71633285Y-136045509D01*
X71633272Y-136045502D01*
X71487601Y-135985164D01*
X71487589Y-135985161D01*
X71332945Y-135954400D01*
X71332942Y-135954400D01*
X71175258Y-135954400D01*
X71175255Y-135954400D01*
X71020610Y-135985161D01*
X71020598Y-135985164D01*
X70874927Y-136045502D01*
X70874914Y-136045509D01*
X70743811Y-136133110D01*
X70743807Y-136133113D01*
X70632313Y-136244607D01*
X70632310Y-136244611D01*
X70544709Y-136375714D01*
X70544702Y-136375727D01*
X70484364Y-136521398D01*
X70484361Y-136521410D01*
X70453600Y-136676053D01*
X66014602Y-136676053D01*
X67566402Y-135124253D01*
X68825700Y-135124253D01*
X68825700Y-135281946D01*
X68856461Y-135436589D01*
X68856464Y-135436601D01*
X68916802Y-135582272D01*
X68916809Y-135582285D01*
X69004410Y-135713388D01*
X69004413Y-135713392D01*
X69115907Y-135824886D01*
X69115911Y-135824889D01*
X69247014Y-135912490D01*
X69247027Y-135912497D01*
X69354703Y-135957097D01*
X69392703Y-135972837D01*
X69547353Y-136003599D01*
X69547356Y-136003600D01*
X69547358Y-136003600D01*
X69705044Y-136003600D01*
X69705045Y-136003599D01*
X69859697Y-135972837D01*
X70005379Y-135912494D01*
X70136489Y-135824889D01*
X70247989Y-135713389D01*
X70335594Y-135582279D01*
X70395937Y-135436597D01*
X70426700Y-135281942D01*
X70426700Y-135168853D01*
X80113900Y-135168853D01*
X80113900Y-135326546D01*
X80144661Y-135481189D01*
X80144664Y-135481201D01*
X80205002Y-135626872D01*
X80205009Y-135626885D01*
X80292610Y-135757988D01*
X80292613Y-135757992D01*
X80404107Y-135869486D01*
X80404111Y-135869489D01*
X80535214Y-135957090D01*
X80535227Y-135957097D01*
X80647497Y-136003600D01*
X80680903Y-136017437D01*
X80822030Y-136045509D01*
X80835553Y-136048199D01*
X80835556Y-136048200D01*
X80835558Y-136048200D01*
X80993244Y-136048200D01*
X80993245Y-136048199D01*
X81147897Y-136017437D01*
X81293579Y-135957094D01*
X81424689Y-135869489D01*
X81536189Y-135757989D01*
X81623794Y-135626879D01*
X81684137Y-135481197D01*
X81714900Y-135326542D01*
X81714900Y-135168858D01*
X81714900Y-135168855D01*
X81714899Y-135168853D01*
X81706027Y-135124253D01*
X81684137Y-135014203D01*
X81665661Y-134969598D01*
X81623797Y-134868527D01*
X81623790Y-134868514D01*
X81536189Y-134737411D01*
X81536186Y-134737407D01*
X81424692Y-134625913D01*
X81424688Y-134625910D01*
X81293585Y-134538309D01*
X81293572Y-134538302D01*
X81147901Y-134477964D01*
X81147889Y-134477961D01*
X80993245Y-134447200D01*
X80993242Y-134447200D01*
X80835558Y-134447200D01*
X80835555Y-134447200D01*
X80680910Y-134477961D01*
X80680898Y-134477964D01*
X80535227Y-134538302D01*
X80535214Y-134538309D01*
X80404111Y-134625910D01*
X80404107Y-134625913D01*
X80292613Y-134737407D01*
X80292610Y-134737411D01*
X80205009Y-134868514D01*
X80205002Y-134868527D01*
X80144664Y-135014198D01*
X80144661Y-135014210D01*
X80113900Y-135168853D01*
X70426700Y-135168853D01*
X70426700Y-135124258D01*
X70426700Y-135124255D01*
X70426699Y-135124253D01*
X70404810Y-135014210D01*
X70395937Y-134969603D01*
X70395935Y-134969598D01*
X70335597Y-134823927D01*
X70335590Y-134823914D01*
X70247989Y-134692811D01*
X70247986Y-134692807D01*
X70136492Y-134581313D01*
X70136488Y-134581310D01*
X70005385Y-134493709D01*
X70005372Y-134493702D01*
X69859701Y-134433364D01*
X69859689Y-134433361D01*
X69705045Y-134402600D01*
X69705042Y-134402600D01*
X69547358Y-134402600D01*
X69547355Y-134402600D01*
X69392710Y-134433361D01*
X69392698Y-134433364D01*
X69247027Y-134493702D01*
X69247014Y-134493709D01*
X69115911Y-134581310D01*
X69115907Y-134581313D01*
X69004413Y-134692807D01*
X69004410Y-134692811D01*
X68916809Y-134823914D01*
X68916802Y-134823927D01*
X68856464Y-134969598D01*
X68856461Y-134969610D01*
X68825700Y-135124253D01*
X67566402Y-135124253D01*
X70659897Y-132030759D01*
X70721220Y-131997274D01*
X70790912Y-132002258D01*
X70835259Y-132030759D01*
X70939161Y-132134661D01*
X70939165Y-132134664D01*
X71086646Y-132233209D01*
X71086659Y-132233216D01*
X71209563Y-132284123D01*
X71250534Y-132301094D01*
X71250536Y-132301094D01*
X71250541Y-132301096D01*
X71424504Y-132335699D01*
X71424507Y-132335700D01*
X71424509Y-132335700D01*
X71601893Y-132335700D01*
X71601894Y-132335699D01*
X71659882Y-132324164D01*
X71775858Y-132301096D01*
X71775861Y-132301094D01*
X71775866Y-132301094D01*
X71801073Y-132290653D01*
X73017700Y-132290653D01*
X73017700Y-132448346D01*
X73048461Y-132602989D01*
X73048464Y-132603001D01*
X73108802Y-132748672D01*
X73108809Y-132748685D01*
X73196410Y-132879788D01*
X73196413Y-132879792D01*
X73307907Y-132991286D01*
X73307911Y-132991289D01*
X73439014Y-133078890D01*
X73439027Y-133078897D01*
X73584698Y-133139235D01*
X73584703Y-133139237D01*
X73739353Y-133169999D01*
X73739356Y-133170000D01*
X73739358Y-133170000D01*
X73897043Y-133170000D01*
X73913535Y-133166719D01*
X73979709Y-133153556D01*
X74049299Y-133159783D01*
X74104477Y-133202645D01*
X74127722Y-133268534D01*
X74127900Y-133275173D01*
X74127900Y-133446095D01*
X74162503Y-133620058D01*
X74162506Y-133620067D01*
X74230383Y-133783940D01*
X74230390Y-133783953D01*
X74328935Y-133931434D01*
X74328938Y-133931438D01*
X74454361Y-134056861D01*
X74454365Y-134056864D01*
X74601846Y-134155409D01*
X74601859Y-134155416D01*
X74724763Y-134206323D01*
X74765734Y-134223294D01*
X74765736Y-134223294D01*
X74765741Y-134223296D01*
X74939704Y-134257899D01*
X74939707Y-134257900D01*
X74939709Y-134257900D01*
X75117093Y-134257900D01*
X75117094Y-134257899D01*
X75175082Y-134246364D01*
X75291058Y-134223296D01*
X75291061Y-134223294D01*
X75291066Y-134223294D01*
X75454947Y-134155413D01*
X75602435Y-134056864D01*
X75727864Y-133931435D01*
X75826413Y-133783947D01*
X75894294Y-133620066D01*
X75928900Y-133446091D01*
X75928900Y-133268709D01*
X75928900Y-133268706D01*
X75928899Y-133268704D01*
X75894296Y-133094741D01*
X75894293Y-133094732D01*
X75826416Y-132930859D01*
X75826409Y-132930846D01*
X75727864Y-132783365D01*
X75727861Y-132783361D01*
X75602438Y-132657938D01*
X75602434Y-132657935D01*
X75454953Y-132559390D01*
X75454940Y-132559383D01*
X75291067Y-132491506D01*
X75291058Y-132491503D01*
X75117094Y-132456900D01*
X75117091Y-132456900D01*
X74939709Y-132456900D01*
X74939706Y-132456900D01*
X74766891Y-132491275D01*
X74697300Y-132485048D01*
X74642122Y-132442185D01*
X74618878Y-132376295D01*
X74618700Y-132369658D01*
X74618700Y-132290655D01*
X74618699Y-132290653D01*
X74607273Y-132233213D01*
X74587937Y-132136003D01*
X74535430Y-132009238D01*
X74527597Y-131990327D01*
X74527590Y-131990314D01*
X74439989Y-131859211D01*
X74439986Y-131859207D01*
X74328492Y-131747713D01*
X74328488Y-131747710D01*
X74197385Y-131660109D01*
X74197372Y-131660102D01*
X74051701Y-131599764D01*
X74051689Y-131599761D01*
X73897045Y-131569000D01*
X73897042Y-131569000D01*
X73739358Y-131569000D01*
X73739355Y-131569000D01*
X73584710Y-131599761D01*
X73584698Y-131599764D01*
X73439027Y-131660102D01*
X73439014Y-131660109D01*
X73307911Y-131747710D01*
X73307907Y-131747713D01*
X73196413Y-131859207D01*
X73196410Y-131859211D01*
X73108809Y-131990314D01*
X73108802Y-131990327D01*
X73048464Y-132135998D01*
X73048461Y-132136010D01*
X73017700Y-132290653D01*
X71801073Y-132290653D01*
X71939747Y-132233213D01*
X71939753Y-132233209D01*
X72017195Y-132181464D01*
X72054991Y-132156209D01*
X72087235Y-132134664D01*
X72212664Y-132009235D01*
X72311213Y-131861747D01*
X72312264Y-131859211D01*
X72321158Y-131837735D01*
X72379094Y-131697866D01*
X72386605Y-131660109D01*
X72413699Y-131523895D01*
X72413700Y-131523893D01*
X72413700Y-131346506D01*
X72413699Y-131346504D01*
X72398383Y-131269504D01*
X79720200Y-131269504D01*
X79720200Y-131446895D01*
X79754803Y-131620858D01*
X79754806Y-131620867D01*
X79822683Y-131784740D01*
X79822690Y-131784753D01*
X79921235Y-131932234D01*
X79921238Y-131932238D01*
X80046661Y-132057661D01*
X80046665Y-132057664D01*
X80194146Y-132156209D01*
X80194159Y-132156216D01*
X80317063Y-132207123D01*
X80358034Y-132224094D01*
X80358036Y-132224094D01*
X80358041Y-132224096D01*
X80532004Y-132258699D01*
X80532007Y-132258700D01*
X80532009Y-132258700D01*
X80709393Y-132258700D01*
X80709394Y-132258699D01*
X80767382Y-132247164D01*
X80883358Y-132224096D01*
X80883361Y-132224094D01*
X80883366Y-132224094D01*
X81047247Y-132156213D01*
X81194735Y-132057664D01*
X81320164Y-131932235D01*
X81418713Y-131784747D01*
X81486594Y-131620866D01*
X81490792Y-131599764D01*
X81521199Y-131446895D01*
X81521200Y-131446893D01*
X81521200Y-131269506D01*
X81521199Y-131269504D01*
X81486596Y-131095541D01*
X81486593Y-131095532D01*
X81418716Y-130931659D01*
X81418709Y-130931646D01*
X81320164Y-130784165D01*
X81320161Y-130784161D01*
X81194738Y-130658738D01*
X81194734Y-130658735D01*
X81047253Y-130560190D01*
X81047240Y-130560183D01*
X80883367Y-130492306D01*
X80883358Y-130492303D01*
X80709394Y-130457700D01*
X80709391Y-130457700D01*
X80532009Y-130457700D01*
X80532006Y-130457700D01*
X80358041Y-130492303D01*
X80358032Y-130492306D01*
X80194159Y-130560183D01*
X80194146Y-130560190D01*
X80046665Y-130658735D01*
X80046661Y-130658738D01*
X79921238Y-130784161D01*
X79921235Y-130784165D01*
X79822690Y-130931646D01*
X79822683Y-130931659D01*
X79754806Y-131095532D01*
X79754803Y-131095541D01*
X79720200Y-131269504D01*
X72398383Y-131269504D01*
X72379096Y-131172541D01*
X72379094Y-131172538D01*
X72379094Y-131172534D01*
X72378850Y-131171946D01*
X72378815Y-131171616D01*
X72377327Y-131166711D01*
X72378257Y-131166428D01*
X72371385Y-131102479D01*
X72402662Y-131040001D01*
X72462752Y-131004351D01*
X72493414Y-131000500D01*
X76289900Y-131000500D01*
X76356939Y-131020185D01*
X76358788Y-131021396D01*
X76473453Y-131098013D01*
X76637334Y-131165894D01*
X76637336Y-131165894D01*
X76637341Y-131165896D01*
X76811304Y-131200499D01*
X76811307Y-131200500D01*
X76811309Y-131200500D01*
X76988693Y-131200500D01*
X76988694Y-131200499D01*
X77046682Y-131188964D01*
X77162658Y-131165896D01*
X77162661Y-131165894D01*
X77162666Y-131165894D01*
X77326547Y-131098013D01*
X77474035Y-130999464D01*
X77599464Y-130874035D01*
X77698013Y-130726547D01*
X77765894Y-130562666D01*
X77766388Y-130560187D01*
X77800499Y-130388695D01*
X77800500Y-130388693D01*
X77800500Y-130211306D01*
X77800499Y-130211304D01*
X77765896Y-130037341D01*
X77765893Y-130037332D01*
X77698016Y-129873459D01*
X77698009Y-129873446D01*
X77599464Y-129725965D01*
X77599461Y-129725961D01*
X77474038Y-129600538D01*
X77474034Y-129600535D01*
X77326553Y-129501990D01*
X77326540Y-129501983D01*
X77162667Y-129434106D01*
X77162658Y-129434103D01*
X76988694Y-129399500D01*
X76988691Y-129399500D01*
X76811309Y-129399500D01*
X76811306Y-129399500D01*
X76637341Y-129434103D01*
X76637332Y-129434106D01*
X76473452Y-129501987D01*
X76473450Y-129501988D01*
X76358791Y-129578602D01*
X76292114Y-129599480D01*
X76289900Y-129599500D01*
X71331004Y-129599500D01*
X71195677Y-129626418D01*
X71195667Y-129626421D01*
X71068192Y-129679222D01*
X70953454Y-129755887D01*
X64336075Y-136373266D01*
X64274752Y-136406751D01*
X64272586Y-136407202D01*
X64137340Y-136434104D01*
X64137332Y-136434106D01*
X63973459Y-136501983D01*
X63973446Y-136501990D01*
X63825965Y-136600535D01*
X63825961Y-136600538D01*
X63700538Y-136725961D01*
X63700535Y-136725965D01*
X63601990Y-136873446D01*
X63601983Y-136873459D01*
X63534106Y-137037332D01*
X63534103Y-137037341D01*
X63499500Y-137211304D01*
X60300500Y-137211304D01*
X60300500Y-126821153D01*
X61449500Y-126821153D01*
X61449500Y-126978846D01*
X61480261Y-127133489D01*
X61480264Y-127133501D01*
X61540602Y-127279171D01*
X61540609Y-127279184D01*
X61545296Y-127286198D01*
X61566174Y-127352875D01*
X61556756Y-127402540D01*
X61530263Y-127466502D01*
X61530261Y-127466505D01*
X61499500Y-127621153D01*
X61499500Y-127778846D01*
X61530261Y-127933489D01*
X61530264Y-127933501D01*
X61590602Y-128079172D01*
X61590609Y-128079185D01*
X61678210Y-128210288D01*
X61678213Y-128210292D01*
X61789707Y-128321786D01*
X61789711Y-128321789D01*
X61920814Y-128409390D01*
X61920827Y-128409397D01*
X62066498Y-128469735D01*
X62066503Y-128469737D01*
X62221153Y-128500499D01*
X62221156Y-128500500D01*
X62221158Y-128500500D01*
X62378844Y-128500500D01*
X62378845Y-128500499D01*
X62533497Y-128469737D01*
X62679179Y-128409394D01*
X62762675Y-128353604D01*
X69082300Y-128353604D01*
X69082300Y-128530995D01*
X69116903Y-128704958D01*
X69116906Y-128704967D01*
X69184783Y-128868840D01*
X69184790Y-128868853D01*
X69283335Y-129016334D01*
X69283338Y-129016338D01*
X69408761Y-129141761D01*
X69408765Y-129141764D01*
X69556246Y-129240309D01*
X69556259Y-129240316D01*
X69679163Y-129291223D01*
X69720134Y-129308194D01*
X69720136Y-129308194D01*
X69720141Y-129308196D01*
X69894104Y-129342799D01*
X69894107Y-129342800D01*
X69894109Y-129342800D01*
X70071493Y-129342800D01*
X70071494Y-129342799D01*
X70129482Y-129331264D01*
X70245458Y-129308196D01*
X70245461Y-129308194D01*
X70245466Y-129308194D01*
X70409347Y-129240313D01*
X70556835Y-129141764D01*
X70682264Y-129016335D01*
X70780813Y-128868847D01*
X70848694Y-128704966D01*
X70883300Y-128530991D01*
X70883300Y-128353609D01*
X70883300Y-128353606D01*
X70883299Y-128353604D01*
X70848696Y-128179641D01*
X70848693Y-128179632D01*
X70780816Y-128015759D01*
X70780809Y-128015746D01*
X70682264Y-127868265D01*
X70682261Y-127868261D01*
X70556838Y-127742838D01*
X70556834Y-127742835D01*
X70409353Y-127644290D01*
X70409340Y-127644283D01*
X70245467Y-127576406D01*
X70245458Y-127576403D01*
X70071494Y-127541800D01*
X70071491Y-127541800D01*
X69894109Y-127541800D01*
X69894106Y-127541800D01*
X69720141Y-127576403D01*
X69720132Y-127576406D01*
X69556259Y-127644283D01*
X69556246Y-127644290D01*
X69408765Y-127742835D01*
X69408761Y-127742838D01*
X69283338Y-127868261D01*
X69283335Y-127868265D01*
X69184790Y-128015746D01*
X69184783Y-128015759D01*
X69116906Y-128179632D01*
X69116903Y-128179641D01*
X69082300Y-128353604D01*
X62762675Y-128353604D01*
X62810289Y-128321789D01*
X62810292Y-128321786D01*
X62872243Y-128259836D01*
X62921786Y-128210292D01*
X62921789Y-128210289D01*
X63009394Y-128079179D01*
X63069737Y-127933497D01*
X63100500Y-127778842D01*
X63100500Y-127621158D01*
X63100500Y-127621155D01*
X63100499Y-127621153D01*
X63091598Y-127576406D01*
X63069737Y-127466503D01*
X63043243Y-127402540D01*
X63009397Y-127320827D01*
X63009388Y-127320811D01*
X63004702Y-127313797D01*
X62983825Y-127247119D01*
X62993243Y-127197458D01*
X63019737Y-127133497D01*
X63050500Y-126978842D01*
X63050500Y-126821158D01*
X63050500Y-126821155D01*
X63050499Y-126821153D01*
X63019738Y-126666510D01*
X63019737Y-126666503D01*
X63019735Y-126666498D01*
X62959397Y-126520827D01*
X62959390Y-126520814D01*
X62871789Y-126389711D01*
X62871786Y-126389707D01*
X62760292Y-126278213D01*
X62760288Y-126278210D01*
X62629185Y-126190609D01*
X62629172Y-126190602D01*
X62483501Y-126130264D01*
X62483489Y-126130261D01*
X62328845Y-126099500D01*
X62328842Y-126099500D01*
X62171158Y-126099500D01*
X62171155Y-126099500D01*
X62016510Y-126130261D01*
X62016498Y-126130264D01*
X61870827Y-126190602D01*
X61870814Y-126190609D01*
X61739711Y-126278210D01*
X61739707Y-126278213D01*
X61628213Y-126389707D01*
X61628210Y-126389711D01*
X61540609Y-126520814D01*
X61540602Y-126520827D01*
X61480264Y-126666498D01*
X61480261Y-126666510D01*
X61449500Y-126821153D01*
X60300500Y-126821153D01*
X60300500Y-124788604D01*
X62128100Y-124788604D01*
X62128100Y-124965995D01*
X62162703Y-125139958D01*
X62162706Y-125139967D01*
X62230583Y-125303840D01*
X62230590Y-125303853D01*
X62329135Y-125451334D01*
X62329138Y-125451338D01*
X62454561Y-125576761D01*
X62454565Y-125576764D01*
X62602046Y-125675309D01*
X62602059Y-125675316D01*
X62701512Y-125716510D01*
X62765934Y-125743194D01*
X62765936Y-125743194D01*
X62765941Y-125743196D01*
X62939904Y-125777799D01*
X62939907Y-125777800D01*
X62939909Y-125777800D01*
X63117293Y-125777800D01*
X63220004Y-125757369D01*
X63251308Y-125751142D01*
X63320900Y-125757369D01*
X63376077Y-125800232D01*
X63399322Y-125866121D01*
X63399500Y-125872759D01*
X63399500Y-126028846D01*
X63430261Y-126183489D01*
X63430264Y-126183501D01*
X63490602Y-126329172D01*
X63490609Y-126329185D01*
X63578210Y-126460288D01*
X63578213Y-126460292D01*
X63584086Y-126466165D01*
X63617571Y-126527488D01*
X63618022Y-126578037D01*
X63599500Y-126671153D01*
X63599500Y-126828846D01*
X63630261Y-126983489D01*
X63630264Y-126983501D01*
X63690602Y-127129172D01*
X63690609Y-127129185D01*
X63778210Y-127260288D01*
X63778213Y-127260292D01*
X63889707Y-127371786D01*
X63889711Y-127371789D01*
X64020814Y-127459390D01*
X64020827Y-127459397D01*
X64166498Y-127519735D01*
X64166503Y-127519737D01*
X64321153Y-127550499D01*
X64321156Y-127550500D01*
X64321158Y-127550500D01*
X64478844Y-127550500D01*
X64478845Y-127550499D01*
X64633497Y-127519737D01*
X64761999Y-127466510D01*
X64779172Y-127459397D01*
X64779172Y-127459396D01*
X64779179Y-127459394D01*
X64910289Y-127371789D01*
X65021789Y-127260289D01*
X65109394Y-127129179D01*
X65169737Y-126983497D01*
X65200500Y-126828842D01*
X65200500Y-126671158D01*
X65200500Y-126671155D01*
X65200499Y-126671153D01*
X65170596Y-126520821D01*
X65169737Y-126516503D01*
X65151403Y-126472240D01*
X65109397Y-126370827D01*
X65109390Y-126370814D01*
X65021789Y-126239711D01*
X65021786Y-126239707D01*
X65015913Y-126233834D01*
X65014826Y-126231843D01*
X65012875Y-126230687D01*
X64998163Y-126201327D01*
X64982428Y-126172511D01*
X64982272Y-126169615D01*
X64981574Y-126168222D01*
X64981660Y-126158255D01*
X64980299Y-126132950D01*
X64980890Y-126127423D01*
X65000500Y-126028842D01*
X65000500Y-125957004D01*
X77158700Y-125957004D01*
X77158700Y-126134395D01*
X77193303Y-126308358D01*
X77193306Y-126308367D01*
X77261183Y-126472240D01*
X77261190Y-126472253D01*
X77359735Y-126619734D01*
X77359738Y-126619738D01*
X77485161Y-126745161D01*
X77485165Y-126745164D01*
X77632646Y-126843709D01*
X77632659Y-126843716D01*
X77755563Y-126894623D01*
X77796534Y-126911594D01*
X77796536Y-126911594D01*
X77796541Y-126911596D01*
X77970504Y-126946199D01*
X77970507Y-126946200D01*
X77970509Y-126946200D01*
X78147893Y-126946200D01*
X78147894Y-126946199D01*
X78205882Y-126934664D01*
X78321858Y-126911596D01*
X78321861Y-126911594D01*
X78321866Y-126911594D01*
X78485747Y-126843713D01*
X78633235Y-126745164D01*
X78758664Y-126619735D01*
X78857213Y-126472247D01*
X78925094Y-126308366D01*
X78931093Y-126278211D01*
X78952693Y-126169615D01*
X78959700Y-126134391D01*
X78959700Y-125957009D01*
X78959700Y-125957006D01*
X78959699Y-125957004D01*
X78925096Y-125783041D01*
X78925093Y-125783032D01*
X78922925Y-125777799D01*
X78882095Y-125679224D01*
X78857216Y-125619159D01*
X78857209Y-125619146D01*
X78758664Y-125471665D01*
X78758661Y-125471661D01*
X78633238Y-125346238D01*
X78633234Y-125346235D01*
X78485753Y-125247690D01*
X78485740Y-125247683D01*
X78321867Y-125179806D01*
X78321858Y-125179803D01*
X78147894Y-125145200D01*
X78147891Y-125145200D01*
X77970509Y-125145200D01*
X77970506Y-125145200D01*
X77796541Y-125179803D01*
X77796532Y-125179806D01*
X77632659Y-125247683D01*
X77632646Y-125247690D01*
X77485165Y-125346235D01*
X77485161Y-125346238D01*
X77359738Y-125471661D01*
X77359735Y-125471665D01*
X77261190Y-125619146D01*
X77261183Y-125619159D01*
X77193306Y-125783032D01*
X77193303Y-125783041D01*
X77158700Y-125957004D01*
X65000500Y-125957004D01*
X65000500Y-125871158D01*
X65000500Y-125871155D01*
X65000499Y-125871153D01*
X64982971Y-125783034D01*
X64969737Y-125716503D01*
X64964970Y-125704994D01*
X64909397Y-125570827D01*
X64909390Y-125570814D01*
X64821789Y-125439711D01*
X64821786Y-125439707D01*
X64710292Y-125328213D01*
X64710288Y-125328210D01*
X64579185Y-125240609D01*
X64579172Y-125240602D01*
X64433501Y-125180264D01*
X64433489Y-125180261D01*
X64278845Y-125149500D01*
X64278842Y-125149500D01*
X64121158Y-125149500D01*
X64121153Y-125149500D01*
X64065195Y-125160631D01*
X63995604Y-125154404D01*
X63940426Y-125111541D01*
X63917182Y-125045651D01*
X63919387Y-125014822D01*
X63929100Y-124965993D01*
X63929100Y-124788607D01*
X63925102Y-124768510D01*
X63925102Y-124768508D01*
X63921501Y-124750404D01*
X69082300Y-124750404D01*
X69082300Y-124927795D01*
X69116903Y-125101758D01*
X69116906Y-125101767D01*
X69184783Y-125265640D01*
X69184790Y-125265653D01*
X69283335Y-125413134D01*
X69283338Y-125413138D01*
X69408761Y-125538561D01*
X69408765Y-125538564D01*
X69556246Y-125637109D01*
X69556259Y-125637116D01*
X69648467Y-125675309D01*
X69720134Y-125704994D01*
X69720136Y-125704994D01*
X69720141Y-125704996D01*
X69894104Y-125739599D01*
X69894107Y-125739600D01*
X69894109Y-125739600D01*
X70071493Y-125739600D01*
X70071494Y-125739599D01*
X70129482Y-125728064D01*
X70245458Y-125704996D01*
X70245461Y-125704994D01*
X70245466Y-125704994D01*
X70409347Y-125637113D01*
X70556835Y-125538564D01*
X70682264Y-125413135D01*
X70780813Y-125265647D01*
X70848694Y-125101766D01*
X70855209Y-125069016D01*
X70883299Y-124927795D01*
X70883300Y-124927793D01*
X70883300Y-124750406D01*
X70883299Y-124750404D01*
X70848696Y-124576441D01*
X70848694Y-124576438D01*
X70848694Y-124576434D01*
X70800592Y-124460304D01*
X72874000Y-124460304D01*
X72874000Y-124637695D01*
X72908603Y-124811658D01*
X72908606Y-124811667D01*
X72976483Y-124975540D01*
X72976490Y-124975553D01*
X73075035Y-125123034D01*
X73075038Y-125123038D01*
X73200461Y-125248461D01*
X73200465Y-125248464D01*
X73347946Y-125347009D01*
X73347959Y-125347016D01*
X73470863Y-125397923D01*
X73511834Y-125414894D01*
X73511836Y-125414894D01*
X73511841Y-125414896D01*
X73685804Y-125449499D01*
X73685807Y-125449500D01*
X73685809Y-125449500D01*
X73863193Y-125449500D01*
X73863194Y-125449499D01*
X73921182Y-125437964D01*
X74037158Y-125414896D01*
X74037161Y-125414894D01*
X74037166Y-125414894D01*
X74201047Y-125347013D01*
X74348535Y-125248464D01*
X74473964Y-125123035D01*
X74572513Y-124975547D01*
X74574619Y-124970464D01*
X74626572Y-124845035D01*
X74640394Y-124811666D01*
X74644981Y-124788609D01*
X74667889Y-124673442D01*
X74700274Y-124611531D01*
X74760989Y-124576957D01*
X74830759Y-124580696D01*
X74887431Y-124621563D01*
X74904067Y-124650181D01*
X74923683Y-124697540D01*
X74923690Y-124697553D01*
X75022235Y-124845034D01*
X75022238Y-124845038D01*
X75147661Y-124970461D01*
X75147665Y-124970464D01*
X75295146Y-125069009D01*
X75295159Y-125069016D01*
X75374229Y-125101767D01*
X75459034Y-125136894D01*
X75459036Y-125136894D01*
X75459041Y-125136896D01*
X75633004Y-125171499D01*
X75633007Y-125171500D01*
X75633009Y-125171500D01*
X75810393Y-125171500D01*
X75810394Y-125171499D01*
X75896338Y-125154404D01*
X75984358Y-125136896D01*
X75984361Y-125136894D01*
X75984366Y-125136894D01*
X76148247Y-125069013D01*
X76295735Y-124970464D01*
X76421164Y-124845035D01*
X76519713Y-124697547D01*
X76587594Y-124533666D01*
X76593960Y-124501665D01*
X76622199Y-124359695D01*
X76622200Y-124359693D01*
X76622200Y-124182306D01*
X76622199Y-124182304D01*
X76587596Y-124008341D01*
X76587593Y-124008332D01*
X76519716Y-123844459D01*
X76519709Y-123844446D01*
X76421164Y-123696965D01*
X76421161Y-123696961D01*
X76295738Y-123571538D01*
X76295734Y-123571535D01*
X76148253Y-123472990D01*
X76148240Y-123472983D01*
X75984367Y-123405106D01*
X75984358Y-123405103D01*
X75810394Y-123370500D01*
X75810391Y-123370500D01*
X75633009Y-123370500D01*
X75633006Y-123370500D01*
X75459041Y-123405103D01*
X75459032Y-123405106D01*
X75295159Y-123472983D01*
X75295146Y-123472990D01*
X75147665Y-123571535D01*
X75147661Y-123571538D01*
X75022238Y-123696961D01*
X75022235Y-123696965D01*
X74923690Y-123844446D01*
X74923683Y-123844459D01*
X74855806Y-124008332D01*
X74855804Y-124008340D01*
X74828310Y-124146558D01*
X74795925Y-124208469D01*
X74735209Y-124243043D01*
X74665439Y-124239302D01*
X74608767Y-124198436D01*
X74592133Y-124169820D01*
X74572513Y-124122453D01*
X74572509Y-124122446D01*
X74473964Y-123974965D01*
X74473961Y-123974961D01*
X74348538Y-123849538D01*
X74348534Y-123849535D01*
X74201053Y-123750990D01*
X74201040Y-123750983D01*
X74037167Y-123683106D01*
X74037158Y-123683103D01*
X73863194Y-123648500D01*
X73863191Y-123648500D01*
X73685809Y-123648500D01*
X73685806Y-123648500D01*
X73511841Y-123683103D01*
X73511832Y-123683106D01*
X73347959Y-123750983D01*
X73347946Y-123750990D01*
X73200465Y-123849535D01*
X73200461Y-123849538D01*
X73075038Y-123974961D01*
X73075035Y-123974965D01*
X72976490Y-124122446D01*
X72976483Y-124122459D01*
X72908606Y-124286332D01*
X72908603Y-124286341D01*
X72874000Y-124460304D01*
X70800592Y-124460304D01*
X70780816Y-124412559D01*
X70780809Y-124412546D01*
X70682264Y-124265065D01*
X70682261Y-124265061D01*
X70556838Y-124139638D01*
X70556834Y-124139635D01*
X70409353Y-124041090D01*
X70409340Y-124041083D01*
X70245467Y-123973206D01*
X70245458Y-123973203D01*
X70071494Y-123938600D01*
X70071491Y-123938600D01*
X69894109Y-123938600D01*
X69894106Y-123938600D01*
X69720141Y-123973203D01*
X69720132Y-123973206D01*
X69556259Y-124041083D01*
X69556246Y-124041090D01*
X69408765Y-124139635D01*
X69408761Y-124139638D01*
X69283338Y-124265061D01*
X69283335Y-124265065D01*
X69184790Y-124412546D01*
X69184783Y-124412559D01*
X69116906Y-124576432D01*
X69116903Y-124576441D01*
X69082300Y-124750404D01*
X63921501Y-124750404D01*
X63894496Y-124614641D01*
X63894493Y-124614632D01*
X63826616Y-124450759D01*
X63826609Y-124450746D01*
X63728064Y-124303265D01*
X63728061Y-124303261D01*
X63602638Y-124177838D01*
X63602634Y-124177835D01*
X63455153Y-124079290D01*
X63455140Y-124079283D01*
X63291267Y-124011406D01*
X63291258Y-124011403D01*
X63117294Y-123976800D01*
X63117291Y-123976800D01*
X62939909Y-123976800D01*
X62939906Y-123976800D01*
X62765941Y-124011403D01*
X62765932Y-124011406D01*
X62602059Y-124079283D01*
X62602046Y-124079290D01*
X62454565Y-124177835D01*
X62454561Y-124177838D01*
X62329138Y-124303261D01*
X62329135Y-124303265D01*
X62230590Y-124450746D01*
X62230583Y-124450759D01*
X62162706Y-124614632D01*
X62162703Y-124614641D01*
X62128100Y-124788604D01*
X60300500Y-124788604D01*
X60300500Y-122013804D01*
X60599700Y-122013804D01*
X60599700Y-122191195D01*
X60634303Y-122365158D01*
X60634306Y-122365167D01*
X60702183Y-122529040D01*
X60702190Y-122529053D01*
X60800735Y-122676534D01*
X60800738Y-122676538D01*
X60926161Y-122801961D01*
X60926165Y-122801964D01*
X61073646Y-122900509D01*
X61073659Y-122900516D01*
X61196563Y-122951423D01*
X61237534Y-122968394D01*
X61237536Y-122968394D01*
X61237541Y-122968396D01*
X61411504Y-123002999D01*
X61411507Y-123003000D01*
X61411509Y-123003000D01*
X61588893Y-123003000D01*
X61588894Y-123002999D01*
X61646882Y-122991464D01*
X61748997Y-122971153D01*
X77899500Y-122971153D01*
X77899500Y-123128846D01*
X77930261Y-123283489D01*
X77930264Y-123283501D01*
X77990602Y-123429172D01*
X77990609Y-123429185D01*
X78078210Y-123560288D01*
X78078213Y-123560292D01*
X78189707Y-123671786D01*
X78189711Y-123671789D01*
X78320814Y-123759390D01*
X78320827Y-123759397D01*
X78466498Y-123819735D01*
X78466503Y-123819737D01*
X78590723Y-123844446D01*
X78621153Y-123850499D01*
X78621156Y-123850500D01*
X78621158Y-123850500D01*
X78778844Y-123850500D01*
X78778845Y-123850499D01*
X78933497Y-123819737D01*
X79079179Y-123759394D01*
X79210289Y-123671789D01*
X79321789Y-123560289D01*
X79409394Y-123429179D01*
X79469737Y-123283497D01*
X79500500Y-123128842D01*
X79500500Y-122971158D01*
X79500500Y-122971155D01*
X79500499Y-122971153D01*
X79469738Y-122816510D01*
X79469737Y-122816503D01*
X79463714Y-122801961D01*
X79409397Y-122670827D01*
X79409390Y-122670814D01*
X79321789Y-122539711D01*
X79321786Y-122539707D01*
X79210292Y-122428213D01*
X79210288Y-122428210D01*
X79079185Y-122340609D01*
X79079172Y-122340602D01*
X78933501Y-122280264D01*
X78933489Y-122280261D01*
X78778845Y-122249500D01*
X78778842Y-122249500D01*
X78621158Y-122249500D01*
X78621155Y-122249500D01*
X78466510Y-122280261D01*
X78466498Y-122280264D01*
X78320827Y-122340602D01*
X78320814Y-122340609D01*
X78189711Y-122428210D01*
X78189707Y-122428213D01*
X78078213Y-122539707D01*
X78078210Y-122539711D01*
X77990609Y-122670814D01*
X77990602Y-122670827D01*
X77930264Y-122816498D01*
X77930261Y-122816510D01*
X77899500Y-122971153D01*
X61748997Y-122971153D01*
X61762858Y-122968396D01*
X61762861Y-122968394D01*
X61762866Y-122968394D01*
X61926747Y-122900513D01*
X61926753Y-122900509D01*
X61984440Y-122861964D01*
X62022513Y-122836523D01*
X62074235Y-122801964D01*
X62199664Y-122676535D01*
X62298213Y-122529047D01*
X62366094Y-122365166D01*
X62370980Y-122340606D01*
X62400699Y-122191195D01*
X62400700Y-122191193D01*
X62400700Y-122013806D01*
X62400699Y-122013804D01*
X62366096Y-121839841D01*
X62366093Y-121839832D01*
X62298216Y-121675959D01*
X62298209Y-121675946D01*
X62199664Y-121528465D01*
X62199661Y-121528461D01*
X62074238Y-121403038D01*
X62074234Y-121403035D01*
X61926753Y-121304490D01*
X61926740Y-121304483D01*
X61762867Y-121236606D01*
X61762858Y-121236603D01*
X61588894Y-121202000D01*
X61588891Y-121202000D01*
X61411509Y-121202000D01*
X61411506Y-121202000D01*
X61237541Y-121236603D01*
X61237532Y-121236606D01*
X61073659Y-121304483D01*
X61073646Y-121304490D01*
X60926165Y-121403035D01*
X60926161Y-121403038D01*
X60800738Y-121528461D01*
X60800735Y-121528465D01*
X60702190Y-121675946D01*
X60702183Y-121675959D01*
X60634306Y-121839832D01*
X60634303Y-121839841D01*
X60599700Y-122013804D01*
X60300500Y-122013804D01*
X60300500Y-121054453D01*
X63122600Y-121054453D01*
X63122600Y-121212146D01*
X63153361Y-121366789D01*
X63153364Y-121366801D01*
X63213702Y-121512472D01*
X63213709Y-121512485D01*
X63301310Y-121643588D01*
X63301313Y-121643592D01*
X63412807Y-121755086D01*
X63412811Y-121755089D01*
X63543914Y-121842690D01*
X63543927Y-121842697D01*
X63679579Y-121898885D01*
X63689603Y-121903037D01*
X63844253Y-121933799D01*
X63844256Y-121933800D01*
X63844258Y-121933800D01*
X64001944Y-121933800D01*
X64001945Y-121933799D01*
X64156597Y-121903037D01*
X64302279Y-121842694D01*
X64433389Y-121755089D01*
X64544889Y-121643589D01*
X64632494Y-121512479D01*
X64652103Y-121465138D01*
X64662162Y-121440853D01*
X67419200Y-121440853D01*
X67419200Y-121598546D01*
X67449961Y-121753189D01*
X67449964Y-121753201D01*
X67510302Y-121898872D01*
X67510309Y-121898885D01*
X67597910Y-122029988D01*
X67597913Y-122029992D01*
X67709407Y-122141486D01*
X67709411Y-122141489D01*
X67840514Y-122229090D01*
X67840527Y-122229097D01*
X67964050Y-122280261D01*
X67986203Y-122289437D01*
X68140853Y-122320199D01*
X68140856Y-122320200D01*
X68140858Y-122320200D01*
X68298544Y-122320200D01*
X68298545Y-122320199D01*
X68453197Y-122289437D01*
X68598879Y-122229094D01*
X68729989Y-122141489D01*
X68841489Y-122029989D01*
X68929094Y-121898879D01*
X68989437Y-121753197D01*
X69020200Y-121598542D01*
X69020200Y-121440858D01*
X69020200Y-121440855D01*
X69020199Y-121440853D01*
X69005468Y-121366797D01*
X68989437Y-121286203D01*
X68989435Y-121286198D01*
X68929097Y-121140527D01*
X68929090Y-121140514D01*
X68841489Y-121009411D01*
X68841486Y-121009407D01*
X68729990Y-120897911D01*
X68598885Y-120810309D01*
X68598872Y-120810302D01*
X68579804Y-120802404D01*
X71938800Y-120802404D01*
X71938800Y-120979795D01*
X71973403Y-121153758D01*
X71973406Y-121153767D01*
X72041283Y-121317640D01*
X72041290Y-121317653D01*
X72139835Y-121465134D01*
X72139838Y-121465138D01*
X72265261Y-121590561D01*
X72265265Y-121590564D01*
X72412746Y-121689109D01*
X72412759Y-121689116D01*
X72535663Y-121740023D01*
X72576634Y-121756994D01*
X72576636Y-121756994D01*
X72576641Y-121756996D01*
X72750604Y-121791599D01*
X72750607Y-121791600D01*
X72750609Y-121791600D01*
X72927993Y-121791600D01*
X72927994Y-121791599D01*
X72985982Y-121780064D01*
X73101958Y-121756996D01*
X73101961Y-121756994D01*
X73101966Y-121756994D01*
X73265847Y-121689113D01*
X73413335Y-121590564D01*
X73538764Y-121465135D01*
X73637313Y-121317647D01*
X73705194Y-121153766D01*
X73707828Y-121140527D01*
X73738029Y-120988693D01*
X73739800Y-120979791D01*
X73739800Y-120811304D01*
X78237000Y-120811304D01*
X78237000Y-120988695D01*
X78271603Y-121162658D01*
X78271606Y-121162667D01*
X78339483Y-121326540D01*
X78339490Y-121326553D01*
X78438035Y-121474034D01*
X78438038Y-121474038D01*
X78563461Y-121599461D01*
X78563465Y-121599464D01*
X78710946Y-121698009D01*
X78710959Y-121698016D01*
X78833863Y-121748923D01*
X78874834Y-121765894D01*
X78874836Y-121765894D01*
X78874841Y-121765896D01*
X79048804Y-121800499D01*
X79048807Y-121800500D01*
X79048809Y-121800500D01*
X79226193Y-121800500D01*
X79226194Y-121800499D01*
X79284182Y-121788964D01*
X79400158Y-121765896D01*
X79400161Y-121765894D01*
X79400166Y-121765894D01*
X79564047Y-121698013D01*
X79711535Y-121599464D01*
X79836964Y-121474035D01*
X79935513Y-121326547D01*
X79939200Y-121317647D01*
X79972767Y-121236606D01*
X80003394Y-121162666D01*
X80005165Y-121153767D01*
X80026464Y-121046682D01*
X80038000Y-120988691D01*
X80038000Y-120811309D01*
X80038000Y-120811306D01*
X80037999Y-120811304D01*
X80003396Y-120637341D01*
X80003393Y-120637332D01*
X79999707Y-120628434D01*
X79951277Y-120511510D01*
X79935516Y-120473459D01*
X79935509Y-120473446D01*
X79836964Y-120325965D01*
X79836961Y-120325961D01*
X79711538Y-120200538D01*
X79711534Y-120200535D01*
X79564053Y-120101990D01*
X79564040Y-120101983D01*
X79400167Y-120034106D01*
X79400158Y-120034103D01*
X79226194Y-119999500D01*
X79226191Y-119999500D01*
X79048809Y-119999500D01*
X79048806Y-119999500D01*
X78874841Y-120034103D01*
X78874832Y-120034106D01*
X78710959Y-120101983D01*
X78710946Y-120101990D01*
X78563465Y-120200535D01*
X78563461Y-120200538D01*
X78438038Y-120325961D01*
X78438035Y-120325965D01*
X78339490Y-120473446D01*
X78339483Y-120473459D01*
X78271606Y-120637332D01*
X78271603Y-120637341D01*
X78237000Y-120811304D01*
X73739800Y-120811304D01*
X73739800Y-120802409D01*
X73739800Y-120802406D01*
X73739799Y-120802404D01*
X73705196Y-120628441D01*
X73705193Y-120628432D01*
X73637316Y-120464559D01*
X73637309Y-120464546D01*
X73538764Y-120317065D01*
X73538761Y-120317061D01*
X73413338Y-120191638D01*
X73413334Y-120191635D01*
X73265853Y-120093090D01*
X73265840Y-120093083D01*
X73101967Y-120025206D01*
X73101958Y-120025203D01*
X72927994Y-119990600D01*
X72927991Y-119990600D01*
X72750609Y-119990600D01*
X72750606Y-119990600D01*
X72576641Y-120025203D01*
X72576632Y-120025206D01*
X72412759Y-120093083D01*
X72412746Y-120093090D01*
X72265265Y-120191635D01*
X72265261Y-120191638D01*
X72139838Y-120317061D01*
X72139835Y-120317065D01*
X72041290Y-120464546D01*
X72041283Y-120464559D01*
X71973406Y-120628432D01*
X71973403Y-120628441D01*
X71938800Y-120802404D01*
X68579804Y-120802404D01*
X68453201Y-120749964D01*
X68453189Y-120749961D01*
X68298545Y-120719200D01*
X68298542Y-120719200D01*
X68140858Y-120719200D01*
X68140855Y-120719200D01*
X67986210Y-120749961D01*
X67986198Y-120749964D01*
X67840527Y-120810302D01*
X67840514Y-120810309D01*
X67709411Y-120897910D01*
X67709407Y-120897913D01*
X67597913Y-121009407D01*
X67597910Y-121009411D01*
X67510309Y-121140514D01*
X67510302Y-121140527D01*
X67449964Y-121286198D01*
X67449961Y-121286210D01*
X67419200Y-121440853D01*
X64662162Y-121440853D01*
X64684339Y-121387314D01*
X64692835Y-121366801D01*
X64692837Y-121366797D01*
X64723600Y-121212142D01*
X64723600Y-121054458D01*
X64723600Y-121054455D01*
X64723599Y-121054453D01*
X64692837Y-120899803D01*
X64655768Y-120810309D01*
X64632497Y-120754127D01*
X64632490Y-120754114D01*
X64544889Y-120623011D01*
X64544886Y-120623007D01*
X64433392Y-120511513D01*
X64433388Y-120511510D01*
X64302285Y-120423909D01*
X64302272Y-120423902D01*
X64156601Y-120363564D01*
X64156589Y-120363561D01*
X64001945Y-120332800D01*
X64001942Y-120332800D01*
X63844258Y-120332800D01*
X63844255Y-120332800D01*
X63689610Y-120363561D01*
X63689598Y-120363564D01*
X63543927Y-120423902D01*
X63543914Y-120423909D01*
X63412811Y-120511510D01*
X63412807Y-120511513D01*
X63301313Y-120623007D01*
X63301310Y-120623011D01*
X63213709Y-120754114D01*
X63213702Y-120754127D01*
X63153364Y-120899798D01*
X63153361Y-120899810D01*
X63122600Y-121054453D01*
X60300500Y-121054453D01*
X60300500Y-117836304D01*
X61244100Y-117836304D01*
X61244100Y-118013695D01*
X61278703Y-118187658D01*
X61278706Y-118187667D01*
X61346583Y-118351540D01*
X61346590Y-118351553D01*
X61445135Y-118499034D01*
X61445138Y-118499038D01*
X61570561Y-118624461D01*
X61570565Y-118624464D01*
X61718046Y-118723009D01*
X61718059Y-118723016D01*
X61835380Y-118771611D01*
X61881934Y-118790894D01*
X61881936Y-118790894D01*
X61881941Y-118790896D01*
X62055904Y-118825499D01*
X62055907Y-118825500D01*
X62055909Y-118825500D01*
X62233293Y-118825500D01*
X62233294Y-118825499D01*
X62291282Y-118813964D01*
X62407258Y-118790896D01*
X62407261Y-118790894D01*
X62407266Y-118790894D01*
X62492225Y-118755702D01*
X62576776Y-118720682D01*
X62577358Y-118722088D01*
X62638417Y-118709371D01*
X62703662Y-118734367D01*
X62745037Y-118790669D01*
X62749404Y-118860402D01*
X62733588Y-118897190D01*
X62733879Y-118897346D01*
X62732051Y-118900765D01*
X62731583Y-118901855D01*
X62731013Y-118902708D01*
X62731002Y-118902727D01*
X62670664Y-119048398D01*
X62670661Y-119048410D01*
X62639900Y-119203053D01*
X62639900Y-119360746D01*
X62670661Y-119515389D01*
X62670664Y-119515401D01*
X62731002Y-119661072D01*
X62731009Y-119661085D01*
X62818610Y-119792188D01*
X62818613Y-119792192D01*
X62930107Y-119903686D01*
X62930111Y-119903689D01*
X63061214Y-119991290D01*
X63061227Y-119991297D01*
X63164579Y-120034106D01*
X63206903Y-120051637D01*
X63361553Y-120082399D01*
X63361556Y-120082400D01*
X63361558Y-120082400D01*
X63519244Y-120082400D01*
X63519245Y-120082399D01*
X63673897Y-120051637D01*
X63819579Y-119991294D01*
X63950689Y-119903689D01*
X64062189Y-119792189D01*
X64149794Y-119661079D01*
X64157614Y-119642201D01*
X64210135Y-119515401D01*
X64210137Y-119515397D01*
X64213243Y-119499782D01*
X64245627Y-119437873D01*
X64306343Y-119403299D01*
X64376112Y-119407038D01*
X64382283Y-119409402D01*
X64394334Y-119414394D01*
X64568304Y-119448999D01*
X64568307Y-119449000D01*
X64568309Y-119449000D01*
X64745693Y-119449000D01*
X64745694Y-119448999D01*
X64803682Y-119437464D01*
X64919658Y-119414396D01*
X64919661Y-119414394D01*
X64919666Y-119414394D01*
X65083547Y-119346513D01*
X65108480Y-119329853D01*
X65918600Y-119329853D01*
X65918600Y-119487546D01*
X65949361Y-119642189D01*
X65949364Y-119642201D01*
X66009702Y-119787872D01*
X66009709Y-119787885D01*
X66097310Y-119918988D01*
X66097313Y-119918992D01*
X66208807Y-120030486D01*
X66208811Y-120030489D01*
X66339914Y-120118090D01*
X66339927Y-120118097D01*
X66485598Y-120178435D01*
X66485603Y-120178437D01*
X66640253Y-120209199D01*
X66640256Y-120209200D01*
X66640258Y-120209200D01*
X66797944Y-120209200D01*
X66797945Y-120209199D01*
X66952597Y-120178437D01*
X67098279Y-120118094D01*
X67229389Y-120030489D01*
X67340889Y-119918989D01*
X67428494Y-119787879D01*
X67488837Y-119642197D01*
X67519600Y-119487542D01*
X67519600Y-119329858D01*
X67519600Y-119329855D01*
X67519599Y-119329853D01*
X67503310Y-119247964D01*
X67488837Y-119175203D01*
X67467023Y-119122538D01*
X67428497Y-119029527D01*
X67428490Y-119029514D01*
X67340889Y-118898411D01*
X67340886Y-118898407D01*
X67229392Y-118786913D01*
X67229388Y-118786910D01*
X67098285Y-118699309D01*
X67098272Y-118699302D01*
X66952601Y-118638964D01*
X66952589Y-118638961D01*
X66797945Y-118608200D01*
X66797942Y-118608200D01*
X66640258Y-118608200D01*
X66640255Y-118608200D01*
X66485610Y-118638961D01*
X66485598Y-118638964D01*
X66339927Y-118699302D01*
X66339914Y-118699309D01*
X66208811Y-118786910D01*
X66208807Y-118786913D01*
X66097313Y-118898407D01*
X66097310Y-118898411D01*
X66009709Y-119029514D01*
X66009702Y-119029527D01*
X65949364Y-119175198D01*
X65949361Y-119175210D01*
X65918600Y-119329853D01*
X65108480Y-119329853D01*
X65231035Y-119247964D01*
X65231038Y-119247961D01*
X65242915Y-119236085D01*
X65356461Y-119122538D01*
X65356464Y-119122535D01*
X65455013Y-118975047D01*
X65522894Y-118811166D01*
X65526926Y-118790896D01*
X65557500Y-118637194D01*
X65557500Y-118459806D01*
X65557499Y-118459804D01*
X65522896Y-118285841D01*
X65522893Y-118285832D01*
X65455016Y-118121959D01*
X65455009Y-118121946D01*
X65356464Y-117974465D01*
X65356461Y-117974461D01*
X65231038Y-117849038D01*
X65231034Y-117849035D01*
X65083553Y-117750490D01*
X65083540Y-117750483D01*
X64919667Y-117682606D01*
X64919658Y-117682603D01*
X64745694Y-117648000D01*
X64745691Y-117648000D01*
X64568309Y-117648000D01*
X64568306Y-117648000D01*
X64394341Y-117682603D01*
X64394332Y-117682606D01*
X64230459Y-117750483D01*
X64230446Y-117750490D01*
X64082965Y-117849035D01*
X64082961Y-117849038D01*
X63957538Y-117974461D01*
X63957535Y-117974465D01*
X63858990Y-118121946D01*
X63858983Y-118121959D01*
X63791106Y-118285832D01*
X63791104Y-118285840D01*
X63767529Y-118404358D01*
X63735144Y-118466269D01*
X63674428Y-118500843D01*
X63621721Y-118501784D01*
X63535661Y-118484666D01*
X63519242Y-118481400D01*
X63361558Y-118481400D01*
X63361555Y-118481400D01*
X63206910Y-118512161D01*
X63206898Y-118512164D01*
X63070741Y-118568562D01*
X63001272Y-118576031D01*
X62938793Y-118544755D01*
X62903141Y-118484666D01*
X62905635Y-118414841D01*
X62920188Y-118385109D01*
X62942608Y-118351555D01*
X62942609Y-118351552D01*
X62942613Y-118351547D01*
X63010494Y-118187666D01*
X63014379Y-118168138D01*
X63045099Y-118013695D01*
X63045100Y-118013693D01*
X63045100Y-117836306D01*
X63045099Y-117836304D01*
X63010496Y-117662341D01*
X63010493Y-117662332D01*
X62942616Y-117498459D01*
X62942609Y-117498446D01*
X62865040Y-117382357D01*
X62844064Y-117350965D01*
X62844061Y-117350961D01*
X62812653Y-117319553D01*
X72709500Y-117319553D01*
X72709500Y-117477246D01*
X72740261Y-117631889D01*
X72740264Y-117631901D01*
X72800602Y-117777572D01*
X72800609Y-117777585D01*
X72888210Y-117908688D01*
X72888213Y-117908692D01*
X72999707Y-118020186D01*
X72999711Y-118020189D01*
X73130814Y-118107790D01*
X73130827Y-118107797D01*
X73276498Y-118168135D01*
X73276503Y-118168137D01*
X73417691Y-118196221D01*
X73479602Y-118228605D01*
X73514176Y-118289321D01*
X73517500Y-118317838D01*
X73517500Y-118478246D01*
X73548261Y-118632889D01*
X73548264Y-118632901D01*
X73608602Y-118778572D01*
X73608609Y-118778585D01*
X73696210Y-118909688D01*
X73696213Y-118909692D01*
X73807707Y-119021186D01*
X73807711Y-119021189D01*
X73938814Y-119108790D01*
X73938827Y-119108797D01*
X74084498Y-119169135D01*
X74084503Y-119169137D01*
X74239153Y-119199899D01*
X74239156Y-119199900D01*
X74239158Y-119199900D01*
X74396844Y-119199900D01*
X74396845Y-119199899D01*
X74551497Y-119169137D01*
X74697179Y-119108794D01*
X74828289Y-119021189D01*
X74939789Y-118909689D01*
X75027394Y-118778579D01*
X75087737Y-118632897D01*
X75118500Y-118478242D01*
X75118500Y-118320558D01*
X75118500Y-118320555D01*
X75118499Y-118320553D01*
X75117959Y-118317838D01*
X75087737Y-118165903D01*
X75069535Y-118121959D01*
X75027397Y-118020227D01*
X75027390Y-118020214D01*
X74939789Y-117889111D01*
X74939786Y-117889107D01*
X74828292Y-117777613D01*
X74828288Y-117777610D01*
X74772829Y-117740553D01*
X80709500Y-117740553D01*
X80709500Y-117898246D01*
X80740261Y-118052889D01*
X80740264Y-118052901D01*
X80800602Y-118198572D01*
X80800609Y-118198585D01*
X80888210Y-118329688D01*
X80888213Y-118329692D01*
X80999707Y-118441186D01*
X80999711Y-118441189D01*
X81130814Y-118528790D01*
X81130827Y-118528797D01*
X81244862Y-118576031D01*
X81276503Y-118589137D01*
X81372339Y-118608200D01*
X81431153Y-118619899D01*
X81431156Y-118619900D01*
X81431158Y-118619900D01*
X81588844Y-118619900D01*
X81588845Y-118619899D01*
X81743497Y-118589137D01*
X81889179Y-118528794D01*
X82020289Y-118441189D01*
X82131789Y-118329689D01*
X82219394Y-118198579D01*
X82279737Y-118052897D01*
X82310500Y-117898242D01*
X82310500Y-117740558D01*
X82310500Y-117740555D01*
X82310499Y-117740553D01*
X82300445Y-117690009D01*
X82279737Y-117585903D01*
X82272816Y-117569193D01*
X82219397Y-117440227D01*
X82219390Y-117440214D01*
X82131789Y-117309111D01*
X82131786Y-117309107D01*
X82020292Y-117197613D01*
X82020288Y-117197610D01*
X81889185Y-117110009D01*
X81889172Y-117110002D01*
X81743501Y-117049664D01*
X81743489Y-117049661D01*
X81588845Y-117018900D01*
X81588842Y-117018900D01*
X81431158Y-117018900D01*
X81431155Y-117018900D01*
X81276510Y-117049661D01*
X81276498Y-117049664D01*
X81130827Y-117110002D01*
X81130814Y-117110009D01*
X80999711Y-117197610D01*
X80999707Y-117197613D01*
X80888213Y-117309107D01*
X80888210Y-117309111D01*
X80800609Y-117440214D01*
X80800602Y-117440227D01*
X80740264Y-117585898D01*
X80740261Y-117585910D01*
X80709500Y-117740553D01*
X74772829Y-117740553D01*
X74697185Y-117690009D01*
X74697172Y-117690002D01*
X74551501Y-117629664D01*
X74551491Y-117629661D01*
X74410308Y-117601578D01*
X74348397Y-117569193D01*
X74313823Y-117508477D01*
X74310500Y-117479961D01*
X74310500Y-117319555D01*
X74310499Y-117319553D01*
X74291798Y-117225538D01*
X74279737Y-117164903D01*
X74264030Y-117126983D01*
X74219397Y-117019227D01*
X74219390Y-117019214D01*
X74131789Y-116888111D01*
X74131786Y-116888107D01*
X74020292Y-116776613D01*
X74020288Y-116776610D01*
X73889185Y-116689009D01*
X73889172Y-116689002D01*
X73743501Y-116628664D01*
X73743489Y-116628661D01*
X73588845Y-116597900D01*
X73588842Y-116597900D01*
X73431158Y-116597900D01*
X73431155Y-116597900D01*
X73276510Y-116628661D01*
X73276498Y-116628664D01*
X73130827Y-116689002D01*
X73130814Y-116689009D01*
X72999711Y-116776610D01*
X72999707Y-116776613D01*
X72888213Y-116888107D01*
X72888210Y-116888111D01*
X72800609Y-117019214D01*
X72800602Y-117019227D01*
X72740264Y-117164898D01*
X72740261Y-117164910D01*
X72709500Y-117319553D01*
X62812653Y-117319553D01*
X62718638Y-117225538D01*
X62718634Y-117225535D01*
X62571153Y-117126990D01*
X62571140Y-117126983D01*
X62407267Y-117059106D01*
X62407258Y-117059103D01*
X62233294Y-117024500D01*
X62233291Y-117024500D01*
X62055909Y-117024500D01*
X62055906Y-117024500D01*
X61881941Y-117059103D01*
X61881932Y-117059106D01*
X61718059Y-117126983D01*
X61718046Y-117126990D01*
X61570565Y-117225535D01*
X61570561Y-117225538D01*
X61445138Y-117350961D01*
X61445135Y-117350965D01*
X61346590Y-117498446D01*
X61346583Y-117498459D01*
X61278706Y-117662332D01*
X61278703Y-117662341D01*
X61244100Y-117836304D01*
X60300500Y-117836304D01*
X60300500Y-115064553D01*
X64142000Y-115064553D01*
X64142000Y-115222246D01*
X64172761Y-115376889D01*
X64172764Y-115376901D01*
X64233102Y-115522572D01*
X64233109Y-115522585D01*
X64320710Y-115653688D01*
X64320713Y-115653692D01*
X64432207Y-115765186D01*
X64432211Y-115765189D01*
X64563314Y-115852790D01*
X64563327Y-115852797D01*
X64699940Y-115909383D01*
X64709003Y-115913137D01*
X64863653Y-115943899D01*
X64863656Y-115943900D01*
X64863658Y-115943900D01*
X65021344Y-115943900D01*
X65021345Y-115943899D01*
X65175997Y-115913137D01*
X65321679Y-115852794D01*
X65452789Y-115765189D01*
X65564289Y-115653689D01*
X65651894Y-115522579D01*
X65705172Y-115393953D01*
X66224100Y-115393953D01*
X66224100Y-115551646D01*
X66254861Y-115706289D01*
X66254864Y-115706301D01*
X66315202Y-115851972D01*
X66315209Y-115851985D01*
X66402810Y-115983088D01*
X66402813Y-115983092D01*
X66514307Y-116094586D01*
X66514311Y-116094589D01*
X66645414Y-116182190D01*
X66645427Y-116182197D01*
X66791098Y-116242535D01*
X66791103Y-116242537D01*
X66874054Y-116259037D01*
X66945753Y-116273299D01*
X66945756Y-116273300D01*
X66945758Y-116273300D01*
X67103444Y-116273300D01*
X67103445Y-116273299D01*
X67258097Y-116242537D01*
X67403779Y-116182194D01*
X67534889Y-116094589D01*
X67646389Y-115983089D01*
X67733994Y-115851979D01*
X67794337Y-115706297D01*
X67825100Y-115551642D01*
X67825100Y-115393958D01*
X67825100Y-115393955D01*
X67825099Y-115393953D01*
X67794338Y-115239310D01*
X67794337Y-115239303D01*
X67740831Y-115110127D01*
X67733997Y-115093627D01*
X67733988Y-115093611D01*
X67694326Y-115034253D01*
X72164500Y-115034253D01*
X72164500Y-115191946D01*
X72195261Y-115346589D01*
X72195264Y-115346601D01*
X72255602Y-115492272D01*
X72255609Y-115492285D01*
X72343210Y-115623388D01*
X72343213Y-115623392D01*
X72454707Y-115734886D01*
X72454711Y-115734889D01*
X72585814Y-115822490D01*
X72585827Y-115822497D01*
X72696839Y-115868479D01*
X72731503Y-115882837D01*
X72864958Y-115909383D01*
X72886153Y-115913599D01*
X72886156Y-115913600D01*
X73001575Y-115913600D01*
X73068614Y-115933285D01*
X73104677Y-115968709D01*
X73125310Y-115999588D01*
X73125313Y-115999592D01*
X73236807Y-116111086D01*
X73236811Y-116111089D01*
X73367914Y-116198690D01*
X73367927Y-116198697D01*
X73513598Y-116259035D01*
X73513603Y-116259037D01*
X73668253Y-116289799D01*
X73668256Y-116289800D01*
X73668258Y-116289800D01*
X73825944Y-116289800D01*
X73825945Y-116289799D01*
X73980597Y-116259037D01*
X74126279Y-116198694D01*
X74257389Y-116111089D01*
X74368889Y-115999589D01*
X74456494Y-115868479D01*
X74463329Y-115851979D01*
X74511828Y-115734889D01*
X74516837Y-115722797D01*
X74547600Y-115568142D01*
X74547600Y-115410458D01*
X74547600Y-115410455D01*
X74547599Y-115410453D01*
X74534897Y-115346597D01*
X74516837Y-115255803D01*
X74516835Y-115255798D01*
X74456497Y-115110127D01*
X74456490Y-115110114D01*
X74368889Y-114979011D01*
X74368886Y-114979007D01*
X74257392Y-114867513D01*
X74257388Y-114867510D01*
X74126285Y-114779909D01*
X74126272Y-114779902D01*
X73980601Y-114719564D01*
X73980589Y-114719561D01*
X73825945Y-114688800D01*
X73825942Y-114688800D01*
X73710525Y-114688800D01*
X73643486Y-114669115D01*
X73607423Y-114633691D01*
X73586789Y-114602811D01*
X73586786Y-114602807D01*
X73475292Y-114491313D01*
X73475288Y-114491310D01*
X73344185Y-114403709D01*
X73344172Y-114403702D01*
X73198501Y-114343364D01*
X73198489Y-114343361D01*
X73043845Y-114312600D01*
X73043842Y-114312600D01*
X72886158Y-114312600D01*
X72886155Y-114312600D01*
X72731510Y-114343361D01*
X72731498Y-114343364D01*
X72585827Y-114403702D01*
X72585814Y-114403709D01*
X72454711Y-114491310D01*
X72454707Y-114491313D01*
X72343213Y-114602807D01*
X72343210Y-114602811D01*
X72255609Y-114733914D01*
X72255602Y-114733927D01*
X72195264Y-114879598D01*
X72195261Y-114879610D01*
X72164500Y-115034253D01*
X67694326Y-115034253D01*
X67646389Y-114962511D01*
X67646386Y-114962507D01*
X67534892Y-114851013D01*
X67534888Y-114851010D01*
X67403785Y-114763409D01*
X67403772Y-114763402D01*
X67258101Y-114703064D01*
X67258089Y-114703061D01*
X67103445Y-114672300D01*
X67103442Y-114672300D01*
X66945758Y-114672300D01*
X66945755Y-114672300D01*
X66791110Y-114703061D01*
X66791098Y-114703064D01*
X66645427Y-114763402D01*
X66645414Y-114763409D01*
X66514311Y-114851010D01*
X66514307Y-114851013D01*
X66402813Y-114962507D01*
X66402810Y-114962511D01*
X66315209Y-115093614D01*
X66315202Y-115093627D01*
X66254864Y-115239298D01*
X66254861Y-115239310D01*
X66224100Y-115393953D01*
X65705172Y-115393953D01*
X65712237Y-115376897D01*
X65743000Y-115222242D01*
X65743000Y-115064558D01*
X65743000Y-115064555D01*
X65742999Y-115064553D01*
X65736972Y-115034253D01*
X65712237Y-114909903D01*
X65699689Y-114879610D01*
X65651897Y-114764227D01*
X65651890Y-114764214D01*
X65564289Y-114633111D01*
X65564286Y-114633107D01*
X65452792Y-114521613D01*
X65452788Y-114521610D01*
X65321685Y-114434009D01*
X65321672Y-114434002D01*
X65176001Y-114373664D01*
X65175989Y-114373661D01*
X65021345Y-114342900D01*
X65021342Y-114342900D01*
X64863658Y-114342900D01*
X64863655Y-114342900D01*
X64709010Y-114373661D01*
X64708998Y-114373664D01*
X64563327Y-114434002D01*
X64563314Y-114434009D01*
X64432211Y-114521610D01*
X64432207Y-114521613D01*
X64320713Y-114633107D01*
X64320710Y-114633111D01*
X64233109Y-114764214D01*
X64233102Y-114764227D01*
X64172764Y-114909898D01*
X64172761Y-114909910D01*
X64142000Y-115064553D01*
X60300500Y-115064553D01*
X60300500Y-112993053D01*
X79881400Y-112993053D01*
X79881400Y-113150746D01*
X79912161Y-113305389D01*
X79912164Y-113305401D01*
X79972502Y-113451072D01*
X79972509Y-113451085D01*
X80060110Y-113582188D01*
X80060113Y-113582192D01*
X80171607Y-113693686D01*
X80171611Y-113693689D01*
X80302714Y-113781290D01*
X80302727Y-113781297D01*
X80448398Y-113841635D01*
X80448403Y-113841637D01*
X80603053Y-113872399D01*
X80603056Y-113872400D01*
X80603058Y-113872400D01*
X80760744Y-113872400D01*
X80760745Y-113872399D01*
X80915397Y-113841637D01*
X81061079Y-113781294D01*
X81192189Y-113693689D01*
X81303689Y-113582189D01*
X81391294Y-113451079D01*
X81451637Y-113305397D01*
X81482400Y-113150742D01*
X81482400Y-112993058D01*
X81482400Y-112993055D01*
X81482399Y-112993053D01*
X81451638Y-112838410D01*
X81451637Y-112838403D01*
X81451635Y-112838398D01*
X81391297Y-112692727D01*
X81391290Y-112692714D01*
X81303689Y-112561611D01*
X81303686Y-112561607D01*
X81192192Y-112450113D01*
X81192188Y-112450110D01*
X81061085Y-112362509D01*
X81061072Y-112362502D01*
X80915401Y-112302164D01*
X80915389Y-112302161D01*
X80760745Y-112271400D01*
X80760742Y-112271400D01*
X80603058Y-112271400D01*
X80603055Y-112271400D01*
X80448410Y-112302161D01*
X80448398Y-112302164D01*
X80302727Y-112362502D01*
X80302714Y-112362509D01*
X80171611Y-112450110D01*
X80171607Y-112450113D01*
X80060113Y-112561607D01*
X80060110Y-112561611D01*
X79972509Y-112692714D01*
X79972502Y-112692727D01*
X79912164Y-112838398D01*
X79912161Y-112838410D01*
X79881400Y-112993053D01*
X60300500Y-112993053D01*
X60300500Y-109882504D01*
X61605400Y-109882504D01*
X61605400Y-110059895D01*
X61640003Y-110233858D01*
X61640006Y-110233867D01*
X61707883Y-110397740D01*
X61707890Y-110397753D01*
X61806435Y-110545234D01*
X61806438Y-110545238D01*
X61931861Y-110670661D01*
X61931865Y-110670664D01*
X62079346Y-110769209D01*
X62079359Y-110769216D01*
X62202263Y-110820123D01*
X62243234Y-110837094D01*
X62243236Y-110837094D01*
X62243241Y-110837096D01*
X62417204Y-110871699D01*
X62417207Y-110871700D01*
X62417209Y-110871700D01*
X62594593Y-110871700D01*
X62594594Y-110871699D01*
X62652582Y-110860164D01*
X62768558Y-110837096D01*
X62768561Y-110837094D01*
X62768566Y-110837094D01*
X62932447Y-110769213D01*
X63079935Y-110670664D01*
X63205364Y-110545235D01*
X63303913Y-110397747D01*
X63371794Y-110233866D01*
X63375350Y-110215993D01*
X63406399Y-110059895D01*
X63406400Y-110059893D01*
X63406400Y-109882506D01*
X63406399Y-109882504D01*
X63371796Y-109708541D01*
X63371793Y-109708532D01*
X63303916Y-109544659D01*
X63303909Y-109544646D01*
X63205364Y-109397165D01*
X63205361Y-109397161D01*
X63079938Y-109271738D01*
X63079934Y-109271735D01*
X63064473Y-109261404D01*
X66232900Y-109261404D01*
X66232900Y-109438795D01*
X66267503Y-109612758D01*
X66267506Y-109612767D01*
X66335383Y-109776640D01*
X66335390Y-109776653D01*
X66433935Y-109924134D01*
X66433938Y-109924138D01*
X66559361Y-110049561D01*
X66559365Y-110049564D01*
X66706846Y-110148109D01*
X66706859Y-110148116D01*
X66829763Y-110199023D01*
X66870734Y-110215994D01*
X66870736Y-110215994D01*
X66870741Y-110215996D01*
X67044704Y-110250599D01*
X67044707Y-110250600D01*
X67044709Y-110250600D01*
X67222093Y-110250600D01*
X67222094Y-110250599D01*
X67306218Y-110233866D01*
X67396058Y-110215996D01*
X67396061Y-110215994D01*
X67396066Y-110215994D01*
X67559947Y-110148113D01*
X67707435Y-110049564D01*
X67832864Y-109924135D01*
X67931413Y-109776647D01*
X67999294Y-109612766D01*
X68012842Y-109544659D01*
X68033899Y-109438795D01*
X68033900Y-109438793D01*
X68033900Y-109261406D01*
X68033899Y-109261404D01*
X67999296Y-109087441D01*
X67999293Y-109087432D01*
X67931416Y-108923559D01*
X67931409Y-108923546D01*
X67832864Y-108776065D01*
X67832861Y-108776061D01*
X67707438Y-108650638D01*
X67707434Y-108650635D01*
X67559953Y-108552090D01*
X67559940Y-108552083D01*
X67396067Y-108484206D01*
X67396058Y-108484203D01*
X67222094Y-108449600D01*
X67222091Y-108449600D01*
X67044709Y-108449600D01*
X67044706Y-108449600D01*
X66870741Y-108484203D01*
X66870732Y-108484206D01*
X66706859Y-108552083D01*
X66706846Y-108552090D01*
X66559365Y-108650635D01*
X66559361Y-108650638D01*
X66433938Y-108776061D01*
X66433935Y-108776065D01*
X66335390Y-108923546D01*
X66335383Y-108923559D01*
X66267506Y-109087432D01*
X66267503Y-109087441D01*
X66232900Y-109261404D01*
X63064473Y-109261404D01*
X62932453Y-109173190D01*
X62932440Y-109173183D01*
X62768567Y-109105306D01*
X62768558Y-109105303D01*
X62594594Y-109070700D01*
X62594591Y-109070700D01*
X62417209Y-109070700D01*
X62417206Y-109070700D01*
X62243241Y-109105303D01*
X62243232Y-109105306D01*
X62079359Y-109173183D01*
X62079346Y-109173190D01*
X61931865Y-109271735D01*
X61931861Y-109271738D01*
X61806438Y-109397161D01*
X61806435Y-109397165D01*
X61707890Y-109544646D01*
X61707883Y-109544659D01*
X61640006Y-109708532D01*
X61640003Y-109708541D01*
X61605400Y-109882504D01*
X60300500Y-109882504D01*
X60300500Y-106024000D01*
X60320185Y-105956961D01*
X60372989Y-105911206D01*
X60424500Y-105900000D01*
X83575500Y-105900000D01*
X83642539Y-105919685D01*
G37*
%TD.AperFunction*%
%TD*%
M02*
