M48
; DRILL file KiCad 10.0.5 date 2026-09-17T23:34:35
; FORMAT={-:-/ absolute / metric / decimal}
; #@! TF.CreationDate,2026-09-17T23:34:35-05:00
; #@! TF.GenerationSoftware,Kicad,Pcbnew,10.0.5
; #@! TF.FileFunction,Plated,1,4,PTH
FMAT,2
METRIC
; #@! TA.AperFunction,Plated,PTH,ViaDrill
T1C0.300
; #@! TA.AperFunction,Plated,PTH,ViaDrill
T2C0.400
; #@! TA.AperFunction,Plated,PTH,ComponentDrill
T3C0.600
%
G90
G05
T1
X62.25Y-126.9
X62.3Y-127.7
X63.44Y-119.282
X63.923Y-121.133
X64.2Y-125.95
X64.4Y-126.75
X64.78Y-113.2
X64.942Y-115.143
X66.05Y-138.1
X66.719Y-119.409
X66.85Y-137.5
X67.025Y-115.473
X68.22Y-121.52
X69.4Y-142.9
X69.626Y-135.203
X71.254Y-136.755
X72.965Y-115.113
X73.51Y-117.398
X73.747Y-115.489
X73.818Y-132.369
X73.887Y-141.601
X74.318Y-118.399
X76.73Y-142.724
X77.971Y-136.422
X78.7Y-123.05
X80.682Y-113.072
X80.914Y-135.248
X80.949Y-140.712
X81.51Y-117.819
T2
X61.5Y-122.102
X62.145Y-117.925
X62.506Y-109.971
X62.801Y-143.345
X63.029Y-124.877
X64.4Y-137.3
X64.657Y-118.548
X67.133Y-109.35
X68.931Y-138.638
X69.983Y-124.839
X69.983Y-128.442
X71.185Y-132.924
X71.513Y-131.435
X71.904Y-137.457
X72.839Y-120.891
X73.775Y-124.549
X75.028Y-133.357
X75.03Y-136.943
X75.722Y-124.271
X76.9Y-130.3
X78.059Y-126.046
X79.138Y-120.9
X79.832Y-136.929
X80.621Y-131.358
T3
X73.16Y-138.67G85X73.16Y-139.77
G05
X73.16Y-143.1G85X73.16Y-143.7
G05
X81.8Y-138.67G85X81.8Y-139.77
G05
X81.8Y-143.1G85X81.8Y-143.7
G05
M30
